<svg fill="none" height="180" viewBox="0 0 180 180" width="180" xmlns="http://www.w3.org/2000/svg" xmlns:xlink="http://www.w3.org/1999/xlink"><clipPath id="a"><path d="m0 0h180v180h-180z"/></clipPath><mask id="b" height="180" maskUnits="userSpaceOnUse" width="180" x="0" y="0"><path d="m180 0h-180v180h180z" fill="#fff"/></mask><g clip-path="url(#a)"><g fill="#2965ff" mask="url(#b)"><path d="m105.032 60.9292v.2407c0 1.5443-1.043 2.9081-2.547 3.2691-18.2707 4.3721-32.6506 18.7119-37.0829 36.963-.361 1.504-1.7248 2.547-3.2691 2.547s-2.9081-1.043-3.2691-2.547c-4.4323-18.2511-18.8122-32.5909-37.0629-36.963-1.5042-.361-2.5471-1.7248-2.5471-3.2691v-.2407c0-1.5443 1.0429-2.9081 2.5471-3.2691 18.2707-4.3922 32.6507-18.732 37.083-36.9626.361-1.5042 1.7248-2.5471 3.2691-2.5471s2.908 1.0429 3.269 2.5471c4.4324 18.2306 18.8324 32.5905 37.0829 36.9626 1.504.361 2.547 1.7248 2.547 3.2691z"/><path d="m161.81 94.5024v.1805c0 1.1632-.782 2.186-1.925 2.4668-13.738 3.2893-24.568 14.0793-27.898 27.7973-.28 1.123-1.303 1.905-2.466 1.905-1.164 0-2.186-.782-2.467-1.905-3.329-13.718-14.14-24.508-27.8777-27.7973-1.1432-.2808-1.9253-1.3036-1.9253-2.4668v-.1805c0-1.1633.7821-2.1861 1.9253-2.4669 13.7377-3.2891 24.5487-14.0791 27.8777-27.7972.281-1.1231 1.303-1.9053 2.467-1.9053 1.163 0 2.186.7822 2.466 1.9053 3.33 13.7181 14.16 24.5081 27.898 27.7972 1.123.2808 1.925 1.3036 1.925 2.4669z"/><path d="m97.852 137.782v.141c0 .902-.6017 1.704-1.4842 1.905-10.6496 2.547-19.0328 10.91-21.62 21.56-.2206.882-1.0028 1.484-1.9053 1.484s-1.7048-.602-1.9053-1.484c-2.5872-10.63-10.9705-19.013-21.6201-21.56-.8824-.201-1.4841-1.003-1.4841-1.905v-.141c0-.902.6017-1.704 1.4841-1.905 10.6496-2.547 19.0329-10.91 21.6201-21.56.2206-.882 1.0028-1.484 1.9053-1.484s1.7047.602 1.9053 1.484c2.5872 10.63 10.9704 18.993 21.62 21.56.8825.221 1.4842 1.003 1.4842 1.905z"/></g></g></svg>