<svg fill="none" height="180" viewBox="0 0 180 180" width="180" xmlns="http://www.w3.org/2000/svg" xmlns:xlink="http://www.w3.org/1999/xlink"><clipPath id="a"><path d="m0 0h180v180h-180z"/></clipPath><mask id="b" height="180" maskUnits="userSpaceOnUse" width="180" x="0" y="0"><path d="m180 0h-180v180h180z" fill="#fff"/></mask><g clip-path="url(#a)"><g mask="url(#b)"><path d="m32.0689 153.947c-3.3092 0-5.9966-2.687-5.9966-5.996 0-22.804 15.8239-34.376 16.5058-34.857 2.3866-1.705 5.6557-1.444 7.7215.642l15.9844 15.984c2.0657 2.066 2.3465 5.335.6417 7.722-.4813.682-12.0534 16.505-34.8568 16.505zm115.8821-127.8747h-27.898c-14.5 0-28.2582 5.9766-38.2459 15.9844h-11.2112c-9.8273 0-19.0529 4.8334-24.6484 12.9158l-10.8301 15.6435c-1.2635 1.8251-1.424 4.2117-.3811 6.1972s3.0886 3.2089 5.3148 3.2089h20.0356l-4.9738 10.2485c-2.6072 5.3549-1.5242 11.7724 2.6875 15.9844l15.9443 15.944c2.6875 2.688 6.2574 4.092 9.9075 4.092 2.0657 0 4.1515-.462 6.0969-1.404l10.2485-4.974v20.036c0 2.226 1.2434 4.271 3.2094 5.314.882.462 1.825.682 2.787.682 1.204 0 2.387-.361 3.41-1.063l15.643-10.83c8.083-5.595 12.916-14.801 12.916-24.648v-11.2114c10.008-9.9878 15.984-23.746 15.984-38.2462v-27.8775c0-3.3092-2.687-5.9966-5.996-5.9966zm-33.975 55.9554c-8.804 0-15.984-7.18-15.984-15.9844 0-8.8045 7.18-15.9844 15.984-15.9844 8.805 0 15.985 7.1799 15.985 15.9844 0 8.8044-7.18 15.9844-15.985 15.9844z" fill="#fff"/></g></g></svg>