<svg width="54" height="54" viewBox="0 0 54 54" fill="none" xmlns="http://www.w3.org/2000/svg">
<rect width="54" height="54" rx="27" fill="#2965FF"/>
<mask id="mask0_2301_2504" style="mask-type:luminance" maskUnits="userSpaceOnUse" x="0" y="0" width="54" height="54">
<path d="M54 0L0 0L0 54H54V0Z" fill="white"/>
</mask>
<g mask="url(#mask0_2301_2504)">
<path d="M45.7824 26.0117L40.0726 20.3018C39.5311 19.7603 39.6996 19.1767 40.4456 19.0082C40.4456 19.0082 41.0653 18.8698 41.8295 18.1057C43.466 16.4692 43.466 13.8098 41.8295 12.1793C40.1929 10.5427 37.5396 10.5427 35.903 12.1793C35.1389 12.9434 35.0005 13.5631 35.0005 13.5631C34.832 14.3152 34.2484 14.4837 33.7069 13.9361L27.997 8.2323C27.4555 7.6908 26.5651 7.6908 26.0236 8.2323L20.3137 13.9422C19.7722 14.4897 19.9407 15.0673 20.6867 15.2358C20.6867 15.2358 21.3065 15.3741 22.0706 16.1383C23.7071 17.7748 23.7071 20.4282 22.0706 22.0707C20.434 23.7073 17.7747 23.7073 16.1441 22.0707C15.38 21.3066 15.2416 20.6869 15.2416 20.6869C15.0731 19.9348 14.4895 19.7663 13.948 20.3139L8.23816 26.0237C7.69666 26.5652 7.69666 27.4557 8.23816 27.9972L13.948 33.7071C14.4895 34.2486 14.3211 34.8322 13.575 35.0007C13.575 35.0007 12.9553 35.139 12.1911 35.9032C10.5546 37.5397 10.5546 40.1931 12.1911 41.8296C13.8277 43.4662 16.4811 43.4662 18.1176 41.8296C18.8817 41.0655 19.0201 40.4458 19.0201 40.4458C19.1886 39.6937 19.7722 39.5252 20.3137 40.0727L26.0236 45.7766C26.5651 46.3181 27.4555 46.3181 27.997 45.7766L33.7069 40.0667C34.2484 39.5252 34.0799 38.9416 33.3339 38.7731C33.3339 38.7731 32.7141 38.6347 31.95 37.8706C30.3135 36.2341 30.3135 33.5807 31.95 31.9381C33.5866 30.3016 36.2399 30.3016 37.8765 31.9381C38.6406 32.7023 38.779 33.322 38.779 33.322C38.9475 34.0741 39.5311 34.2425 40.0726 33.701L45.7824 27.9912C46.324 27.4437 46.324 26.5592 45.7824 26.0117Z" fill="white"/>
</g>
</svg>
