<svg width="54" height="54" viewBox="0 0 54 54" fill="none" xmlns="http://www.w3.org/2000/svg">
<g clip-path="url(#clip0_2301_2510)">
<rect width="54" height="54" rx="27" fill="#7EE100"/>
<mask id="mask0_2301_2510" style="mask-type:luminance" maskUnits="userSpaceOnUse" x="0" y="0" width="54" height="54">
<path d="M54 0L0 0L0 54H54V0Z" fill="white"/>
</mask>
<g mask="url(#mask0_2301_2510)">
<path d="M38.7957 11.8782C37.845 11.1321 36.4792 11.2284 35.6249 12.0827L33.4949 14.2127C32.4601 15.2475 32.5684 16.9623 33.7476 17.8287C36.5635 19.8985 38.3925 23.2377 38.3925 26.9982C38.3925 30.7586 36.5574 34.1039 33.7356 36.1737C32.5563 37.0401 32.448 38.7608 33.4829 39.7897L35.6128 41.9196C36.4672 42.774 37.833 42.8703 38.7836 42.1302C43.2841 38.6225 46.1842 33.1473 46.1842 26.9982C46.1842 20.8491 43.2901 15.3859 38.7957 11.8722V11.8782Z" fill="white"/>
<path d="M23.0547 17.1973H13.2595C11.0814 17.1973 9.3125 18.9662 9.3125 21.1442C9.3125 23.3223 11.0814 25.0912 13.2595 25.0912H23.0547C25.2327 25.0912 27.0016 23.3223 27.0016 21.1442C27.0016 18.9662 25.2327 17.1973 23.0547 17.1973Z" fill="white"/>
<path d="M23.0547 28.918H13.2595C11.0814 28.918 9.3125 30.6869 9.3125 32.8649C9.3125 35.043 11.0814 36.8119 13.2595 36.8119H23.0547C25.2327 36.8119 27.0016 35.043 27.0016 32.8649C27.0016 30.6869 25.2327 28.918 23.0547 28.918Z" fill="white"/>
</g>
</g>
<defs>
<clipPath id="clip0_2301_2510">
<rect width="54" height="54" rx="27" fill="white"/>
</clipPath>
</defs>
</svg>
