<svg fill="none" height="180" viewBox="0 0 180 180" width="180" xmlns="http://www.w3.org/2000/svg" xmlns:xlink="http://www.w3.org/1999/xlink"><clipPath id="a"><path d="m0 0h180v180h-180z" transform="matrix(-1 0 0 1 180 0)"/></clipPath><mask id="b" height="180" maskUnits="userSpaceOnUse" width="180" x="0" y="0"><path d="m0 0h180v180h-180z" fill="#fff"/></mask><g clip-path="url(#a)"><g mask="url(#b)"><path d="m1.77817 36.4748 2.87955.4234.8187-2.0326c.14115-.3388.6493-.2823.734.0847l.367 2.2302 1.07278.1694.81869-2.0326c.14116-.3388.64931-.2823.734.0847l.36701 2.2302.8187.113.9316-2.2867c.1412-.3388.6493-.2824.734.0846l.4235 2.5126.734.1129.8469-2.1173c.1412-.3388.6493-.2823.734.0847l.3952 2.3432.4235.0564 1.1857-2.9642c.1411-.3388.6493-.2823.734.0847l.4799 2.936 8.4411-2.7102s5.7026-6.8319 4.2346-11.377l-2.8796 2.8795c-.3387.3388-.9316 0-.8187-.4517l1.2704-5.1098s-.1129-.0564-.1694-.0847l-3.557 3.5289c-.3388.3388-.9317 0-.8187-.4517l1.1857-4.7992s-.1977-.113-.2824-.1694l-5.138 4.6298c-.4799.4235-1.2421 0-1.0445-.6493l2.1455-7.1141s-.1129-.113-.1694-.1412l-3.19 2.8795c-.367.3388-.9599.0001-.8187-.5081l1.4962-4.9686c-.1129-.1412-.2541-.2823-.367-.4235l-2.6255 1.5527c-.3387.1976-.7057-.1694-.5364-.4799l1.6374-3.0207c-.1129-.1694-.2541-.3388-.367-.5082l-2.202 1.2986c-.3387.1976-.7057-.1694-.5364-.4799l1.4963-2.73838c-.113-.16939-.2259-.36701-.3106-.56462l-1.4115.84692c-.3388.19762-.7058-.16938-.5364-.47992l1.1292-2.06085c-.254-.62108-.4234-1.29862-.254-1.69386 0 0 3.2183-6.74717 15.7528-3.83939 0 0 9.909 3.19008 11.5464 8.27164 0 0 3.6983 3.67006 5.7591 4.48866 0 0 11.2923.367 12.3651 8.0741l4.4605 2.7101s11.4053 7.2554 9.6267 18.3219c0 0-2.1737 8.6104 1.6092 15.8093l1.4962 2.3149s.0283.0282.0565.0565h16.0916c50.6458-.0283 87.7978 45.6771 87.7978 96.6341v15.668c0 3.247-2.371 5.844-5.307 5.844s-5.308-2.625-5.308-5.844c0-19.507-11.546-36.107-27.496-41.979-4.489 3.331-10.305 4.489-14.681 4.827h1.977c1.581 0 3.105.791 4.121 2.146 1.017 1.355 1.412 3.134 1.101 4.856l-5.702 31.308c-.508 2.738-2.682 4.714-5.223 4.714h-17.447c-2.004 0-3.613-1.581-3.613-3.5v-4.687c0-1.948 1.609-3.5 3.613-3.5h13.071l3.557-19.621h-10.586c-11.9984 0-22.4156-8.356-26.3679-20.298l-12.0264-5.364-7.5941-3.585c-.734 5.9-5.3356 10.445-10.8971 10.445-.1976 0-.367.17-.367.424-.0565.423-.4234.847-1.0163.988-1.8915.423-5.7873-.565-7.34-1.779-.4517-.367-.3388-1.016-.3388-1.383 0-6.691 2.9925-9.937 9.0903-9.937.1977 0 .367-.198.367-.424v-3.303l-.8186-.395c-6.2391-2.936-15.3294-44.6893-15.3294-44.6893-1.0446-2.7101-1.8632-5.3638-2.1173-7.6505 0 0-1.9762-4.4041-5.3074-5.3639 0 0-8.7798-1.9762-12.224-5.4203 0 0-11.06649-.9034-15.44228-3.4442 0 0-4.43225-2.4561-2.14555-10.643z" fill="#7ee100"/></g></g></svg>