<svg fill="none" height="269" viewBox="0 0 382 269" width="382" xmlns="http://www.w3.org/2000/svg" xmlns:xlink="http://www.w3.org/1999/xlink"><clipPath id="a"><path d="m133.887 0h156.692v157h-156.692z"/></clipPath><mask id="b" height="157" maskUnits="userSpaceOnUse" width="158" x="133" y="0"><path d="m290.579 0h-156.692v157h156.692z" fill="#fff"/></mask><path d="m128.371 218.909v29.091h-4.034l-14.787-21.335h-.269v21.335h-4.39v-29.091h4.063l14.801 21.364h.27v-21.364zm15.253 29.531c-2.046 0-3.831-.468-5.356-1.406-1.524-.937-2.708-2.249-3.551-3.935-.842-1.685-1.264-3.655-1.264-5.909 0-2.263.422-4.242 1.264-5.937.843-1.695 2.027-3.012 3.551-3.949 1.525-.938 3.31-1.406 5.356-1.406 2.045 0 3.83.468 5.355 1.406 1.524.937 2.708 2.254 3.551 3.949s1.264 3.674 1.264 5.937c0 2.254-.421 4.224-1.264 5.909-.843 1.686-2.027 2.998-3.551 3.935-1.525.938-3.31 1.406-5.355 1.406zm.014-3.565c1.326 0 2.424-.35 3.295-1.051s1.515-1.634 1.932-2.798c.426-1.165.639-2.448.639-3.85 0-1.392-.213-2.67-.639-3.835-.417-1.174-1.061-2.117-1.932-2.827s-1.969-1.065-3.295-1.065c-1.335 0-2.443.355-3.324 1.065-.871.71-1.52 1.653-1.946 2.827-.417 1.165-.625 2.443-.625 3.835 0 1.402.208 2.685.625 3.85.426 1.164 1.075 2.097 1.946 2.798.881.701 1.989 1.051 3.324 1.051zm25.081-18.693v3.409h-11.917v-3.409zm-8.721-5.227h4.247v20.639c0 .824.123 1.444.369 1.861.247.407.564.686.952.838.398.142.829.213 1.293.213.341 0 .639-.024.895-.071.255-.048.454-.086.596-.114l.767 3.509c-.246.094-.596.189-1.051.284-.454.104-1.023.161-1.704.17-1.118.019-2.16-.18-3.125-.596-.966-.417-1.748-1.061-2.344-1.932-.597-.872-.895-1.965-.895-3.282zm34.389 5.227v3.409h-12.329v-3.409zm-8.949 21.818v-24.347c0-1.363.299-2.495.895-3.394.597-.91 1.387-1.587 2.372-2.032.985-.454 2.055-.682 3.21-.682.853 0 1.582.071 2.188.214.606.132 1.056.255 1.349.369l-.994 3.437c-.199-.056-.454-.123-.767-.199-.312-.085-.691-.127-1.136-.127-1.033 0-1.771.255-2.216.767-.436.511-.654 1.25-.654 2.216v23.778zm21.662.44c-2.045 0-3.83-.468-5.355-1.406-1.525-.937-2.708-2.249-3.551-3.935-.843-1.685-1.264-3.655-1.264-5.909 0-2.263.421-4.242 1.264-5.937s2.026-3.012 3.551-3.949c1.525-.938 3.31-1.406 5.355-1.406 2.046 0 3.831.468 5.355 1.406 1.525.937 2.709 2.254 3.551 3.949.843 1.695 1.265 3.674 1.265 5.937 0 2.254-.422 4.224-1.265 5.909-.842 1.686-2.026 2.998-3.551 3.935-1.524.938-3.309 1.406-5.355 1.406zm.014-3.565c1.326 0 2.425-.35 3.296-1.051s1.515-1.634 1.932-2.798c.426-1.165.639-2.448.639-3.85 0-1.392-.213-2.67-.639-3.835-.417-1.174-1.061-2.117-1.932-2.827s-1.97-1.065-3.296-1.065c-1.335 0-2.443.355-3.324 1.065-.871.71-1.519 1.653-1.946 2.827-.416 1.165-.625 2.443-.625 3.835 0 1.402.209 2.685.625 3.85.427 1.164 1.075 2.097 1.946 2.798.881.701 1.989 1.051 3.324 1.051zm28.718-5.923v-12.77h4.262v21.818h-4.176v-3.778h-.228c-.502 1.164-1.306 2.135-2.414 2.912-1.099.767-2.467 1.15-4.106 1.15-1.401 0-2.642-.308-3.721-.923-1.07-.625-1.913-1.549-2.529-2.77-.606-1.222-.909-2.732-.909-4.531v-13.878h4.248v13.366c0 1.487.411 2.671 1.235 3.551.824.881 1.894 1.321 3.211 1.321.795 0 1.586-.198 2.372-.596.795-.398 1.453-.999 1.974-1.804.53-.805.791-1.828.781-3.068zm14.216-3.907v12.955h-4.248v-21.818h4.077v3.551h.27c.502-1.155 1.288-2.083 2.358-2.784 1.08-.701 2.438-1.051 4.077-1.051 1.486 0 2.789.312 3.906.937 1.117.616 1.984 1.534 2.599 2.756.616 1.221.924 2.732.924 4.531v13.878h-4.248v-13.366c0-1.582-.411-2.818-1.235-3.708-.824-.899-1.956-1.349-3.395-1.349-.985 0-1.861.213-2.628.639-.758.426-1.359 1.051-1.804 1.875-.436.814-.653 1.799-.653 2.954zm27.826 13.381c-1.761 0-3.333-.45-4.716-1.349-1.373-.909-2.452-2.202-3.238-3.878-.777-1.686-1.165-3.708-1.165-6.065 0-2.358.393-4.375 1.179-6.052.795-1.676 1.884-2.959 3.267-3.849s2.95-1.335 4.702-1.335c1.354 0 2.443.227 3.267.682.833.445 1.477.965 1.932 1.562.464.597.823 1.122 1.079 1.577h.256v-10.81h4.247v29.091h-4.148v-3.395h-.355c-.256.464-.625.994-1.108 1.591-.473.597-1.127 1.117-1.96 1.563-.833.445-1.913.667-3.239.667zm.938-3.622c1.221 0 2.254-.322 3.096-.966.853-.653 1.497-1.558 1.932-2.713.445-1.155.668-2.5.668-4.034 0-1.515-.218-2.841-.654-3.977-.435-1.137-1.074-2.022-1.917-2.657-.843-.634-1.885-.951-3.125-.951-1.279 0-2.344.331-3.196.994-.853.663-1.496 1.567-1.932 2.713-.426 1.146-.639 2.439-.639 3.878 0 1.458.218 2.77.653 3.935.436 1.164 1.08 2.088 1.932 2.769.862.673 1.922 1.009 3.182 1.009z" fill="#000"/><path d="m264.48 126.336v-19.165l67.668-107.171h15.062v28.2109h-9.557l-48.399 76.8131v1.227h92.746v20.085zm74.243 30.664v-36.49l.153-8.739v-111.771h22.403v157z" fill="#7ee100"/><path d="m0 126.336v-19.165l67.6672-107.171h15.0627v28.2109h-9.5575l-48.3993 76.8131v1.227h92.7459v20.085zm74.2428 30.664v-36.49l.1529-8.739v-111.771h22.4029v157z" fill="#7ee100"/><g clip-path="url(#a)"><g mask="url(#b)"><path d="m289.031 31.814-2.506.3693-.713-1.7729c-.123-.2955-.565-.2462-.639.0739l-.319 1.9453-.934.1477-.713-1.7729c-.123-.2955-.565-.2462-.639.0739l-.319 1.9452-.713.0985-.811-1.9945c-.123-.2955-.565-.2462-.639.0739l-.369 2.1915-.639.0985-.737-1.8468c-.123-.2955-.565-.2462-.639.0739l-.344 2.0437-.369.0493-1.032-2.5855c-.123-.2955-.565-.2462-.639.0739l-.417 2.5608-7.349-2.3638s-4.964-5.9589-3.686-9.9233l2.507 2.5116c.295.2955.811 0 .713-.394l-1.106-4.4569s.098-.0492.147-.0738l3.097 3.0779c.295.2955.811 0 .712-.394l-1.032-4.186s.172-.0985.246-.1477l4.473 4.0382c.417.3694 1.081 0 .909-.5663l-1.868-6.2051s.098-.0985.148-.1232l2.777 2.5116c.319.2955.835 0 .712-.4432l-1.302-4.3337c.098-.1232.221-.2463.319-.3694l2.286 1.3543c.295.1724.614-.1477.467-.4186l-1.426-2.6347c.099-.14775.222-.2955.32-.44324l1.917 1.13264c.295.1724.614-.1477.467-.4186l-1.303-2.38844c.098-.14774.197-.32011.27-.49247l1.229.7387c.295.17237.615-.14774.467-.4186l-.983-1.79752c.221-.54172.369-1.13268.221-1.47741 0 0-2.801-5.88504-13.713-3.34881 0 0-8.626 2.78246-10.051 7.21471 0 0-3.219 3.20104-5.013 3.91514 0 0-9.831.3201-10.764 7.0424l-3.883 2.3638s-9.929 6.3283-8.38 15.9807c0 0 1.892 7.5102-1.401 13.7892l-1.303 2.0192s-.024.0246-.049.0492h-14.008c-44.088-.0246-76.429 39.841-76.429 84.2868v13.666c0 2.832 2.064 5.097 4.62 5.097s4.62-2.29 4.62-5.097c0-17.015 10.051-31.494 23.937-36.615 3.907 2.905 8.97 3.915 12.779 4.21h-1.721c-1.376 0-2.703.69-3.588 1.872-.884 1.182-1.228 2.733-.958 4.235l4.964 27.307c.443 2.389 2.335 4.113 4.547 4.113h15.187c1.745 0 3.146-1.379 3.146-3.054v-4.087c0-1.699-1.401-3.054-3.146-3.054h-11.378l-3.097-17.113h9.216c10.445 0 19.513-7.289 22.953-17.704l10.47-4.679 6.61-3.127c.639 5.146 4.645 9.111 9.486 9.111.172 0 .32.147.32.369.049.369.369.739.885.862 1.646.369 5.038-.493 6.389-1.551.393-.321.295-.887.295-1.207 0-5.836-2.605-8.667-7.913-8.667-.172 0-.32-.173-.32-.37v-2.8808l.713-.3447c5.431-2.5609 13.344-38.9792 13.344-38.9792.91-2.3638 1.622-4.6784 1.844-6.6729 0 0 1.72-3.8413 4.62-4.6785 0 0 7.643-1.7237 10.641-4.7278 0 0 9.633-.7879 13.443-3.004 0 0 3.858-2.1423 1.867-9.2831z" fill="#7ee100"/></g></g></svg>