<svg fill="none" height="32" viewBox="0 0 56 32" width="56" xmlns="http://www.w3.org/2000/svg"><rect height="31" rx="15.5" stroke="#fc4c02" width="55" x=".5" y=".5"/><path d="m19.056 21.096c-.384 0-.7413-.0427-1.072-.128-.32-.096-.6133-.2293-.88-.4-.256-.1707-.48-.368-.672-.592l-.064 1.024h-1.296v-11.312h1.36v4.096c.2773-.4267.672-.752 1.184-.976.5227-.224 1.056-.336 1.6-.336.8533 0 1.552.192 2.096.576.544.3733.944.8853 1.2 1.536.2667.64.4 1.3653.4 2.176 0 .8-.1387 1.5307-.416 2.192-.2773.6507-.6987 1.1733-1.264 1.568-.5653.384-1.2907.576-2.176.576zm-.016-1.2c.6187 0 1.1093-.1387 1.472-.416.3627-.288.624-.6667.784-1.136.1707-.4693.256-.9867.256-1.552 0-.576-.0853-1.0987-.256-1.568-.16-.4693-.4267-.8427-.8-1.12s-.8693-.416-1.488-.416c-.5547 0-1.0293.1547-1.424.464-.384.3093-.6773.704-.88 1.184s-.304.9707-.304 1.472c0 .544.0853 1.0507.256 1.52.1813.4693.464.848.848 1.136.3947.288.9067.432 1.536.432zm5.0963 1.104v-1.168l3.2-2.768c.288-.2453.6026-.512.944-.8.352-.2987.6826-.6187.992-.96.32-.3413.5813-.704.784-1.088.2133-.3947.32-.8107.32-1.248 0-.6827-.2027-1.2053-.608-1.568-.4054-.3733-.9494-.56-1.632-.56-.544 0-1.0187.112-1.424.336-.4054.224-.672.5493-.8.976h-1.488c.1066-.5867.3466-1.0667.72-1.44.384-.384.8426-.672 1.376-.864.544-.192 1.104-.288 1.68-.288.704 0 1.3226.128 1.856.384.544.256.9653.6293 1.264 1.12.3093.48.464 1.072.464 1.776 0 .6933-.1334 1.3013-.4 1.824-.256.5227-.5974.9973-1.024 1.424-.416.416-.864.8267-1.344 1.232l-2.864 2.416h5.76v1.264zm13.2545.096c-.8854 0-1.6214-.1813-2.208-.544-.576-.3733-1.008-.8853-1.296-1.536-.2774-.6507-.416-1.3867-.416-2.208 0-.8.144-1.5253.432-2.176.2986-.6613.7466-1.184 1.344-1.568.608-.3947 1.376-.592 2.304-.592.576 0 1.088.096 1.536.288.4586.192.8373.4747 1.136.848.2986.3627.5066.8213.624 1.376h-1.392c-.16-.4693-.416-.8-.768-.992-.3414-.2027-.7467-.304-1.216-.304-.64 0-1.152.1493-1.536.448s-.6667.688-.848 1.168c-.1707.4693-.2561.9707-.2561 1.504 0 .5547.0907 1.0667.2721 1.536.1813.4693.464.848.848 1.136.384.2773.88.416 1.488.416.448 0 .8693-.096 1.264-.288.4053-.192.672-.5333.8-1.024h1.408c-.1067.576-.336 1.0507-.688 1.424-.3414.3733-.7627.6507-1.264.832-.4907.1707-1.0134.256-1.568.256z" fill="#fc4c02"/></svg>