<svg fill="none" height="32" viewBox="0 0 59 32" width="59" xmlns="http://www.w3.org/2000/svg"><rect height="31" rx="15.5" stroke="#06038d" width="58" x=".5" y=".5"/><path d="m18.672 21.096c-.8853 0-1.6213-.1813-2.208-.544-.576-.3733-1.008-.8853-1.296-1.536-.2773-.6507-.416-1.3867-.416-2.208 0-.8.144-1.5253.432-2.176.2987-.6613.7467-1.184 1.344-1.568.608-.3947 1.376-.592 2.304-.592.576 0 1.088.096 1.536.288.4587.192.8373.4747 1.136.848.2987.3627.5067.8213.624 1.376h-1.392c-.16-.4693-.416-.8-.768-.992-.3413-.2027-.7467-.304-1.216-.304-.64 0-1.152.1493-1.536.448s-.6667.688-.848 1.168c-.1707.4693-.256.9707-.256 1.504 0 .5547.0907 1.0667.272 1.536s.464.848.848 1.136c.384.2773.88.416 1.488.416.448 0 .8693-.096 1.264-.288.4053-.192.672-.5333.8-1.024h1.408c-.1067.576-.336 1.0507-.688 1.424-.3413.3733-.7627.6507-1.264.832-.4907.1707-1.0133.256-1.568.256zm5.2438-.096v-8.432h1.312l.064 1.008c.1813-.256.384-.464.608-.624.2346-.16.4906-.2773.768-.352.288-.0853.592-.128.912-.128.5866 0 1.0613.128 1.424.384.3626.2453.6346.5707.816.976.192-.288.4106-.5333.656-.736.256-.2027.5386-.3573.848-.464.32-.1067.672-.16 1.056-.16.6186 0 1.1146.1333 1.488.4.384.2667.6613.6293.832 1.088.1706.448.256.9547.256 1.52v5.52h-1.36v-4.832c0-.2773-.016-.56-.048-.848-.0214-.288-.0854-.5547-.192-.8-.1067-.256-.2667-.4587-.48-.608-.2027-.16-.4907-.24-.864-.24-.352 0-.6507.0853-.896.256-.2347.16-.4267.3787-.576.656-.1494.2773-.256.576-.32.896-.064.3093-.096.6187-.096.928v4.592h-1.36v-4.848c0-.2667-.016-.544-.048-.832-.0214-.288-.08-.5547-.176-.8-.0854-.256-.2347-.4587-.448-.608-.2027-.16-.4854-.24-.848-.24-.512 0-.912.1493-1.2.448-.288.288-.4907.6453-.608 1.072-.1067.416-.16.8267-.16 1.232v4.576zm16.1813.096c-.384 0-.7733-.0373-1.168-.112-.384-.0747-.7466-.2027-1.088-.384-.3306-.1813-.608-.4267-.832-.736s-.368-.6933-.432-1.152h1.376c.1067.288.2774.5227.512.704.2454.1707.5174.2933.816.368.3094.0747.6027.112.88.112.1707 0 .368-.0107.592-.032s.4374-.0693.64-.144c.2134-.0853.384-.208.512-.368.1387-.16.208-.384.208-.672 0-.2133-.048-.3893-.144-.528s-.2293-.2507-.4-.336c-.1706-.096-.3786-.1653-.624-.208-.5013-.1067-1.04-.208-1.616-.304-.5653-.096-1.0666-.2773-1.504-.544-.1493-.096-.288-.2027-.416-.32-.1173-.128-.2186-.2667-.304-.416-.0853-.16-.1546-.3307-.208-.512-.0426-.192-.064-.4-.064-.624 0-.416.08-.7733.24-1.072.1707-.3093.4054-.56.704-.752.2987-.2027.64-.352 1.024-.448.3947-.096.816-.144 1.264-.144.5547 0 1.0507.0907 1.488.272.448.1707.816.4267 1.104.768.288.3307.4587.7413.512 1.232h-1.264c-.0746-.3093-.2773-.56-.608-.752-.3306-.2027-.752-.304-1.264-.304-.1706 0-.3626.016-.576.048-.2133.0213-.416.0747-.608.16-.192.0747-.352.192-.48.352-.128.1493-.192.352-.192.608 0 .2347.0587.432.176.592.128.16.304.288.528.384s.48.176.768.24c.3734.0747.784.1547 1.232.24.448.0747.8.1547 1.056.24.3414.1067.624.256.848.448.2347.192.4054.4213.512.688.1174.2667.176.576.176.928 0 .5013-.1013.912-.304 1.232-.192.32-.4533.5707-.784.752-.3306.1813-.6986.3093-1.104.384-.3946.0747-.7893.112-1.184.112z" fill="#06038d"/></svg>