<svg fill="none" height="32" viewBox="0 0 148 32" width="148" xmlns="http://www.w3.org/2000/svg"><rect height="31" rx="15.5" stroke="#2965ff" width="147" x=".5" y=".5"/><path d="m18.672 21.096c-.8853 0-1.6213-.1813-2.208-.544-.576-.3733-1.008-.8853-1.296-1.536-.2773-.6507-.416-1.3867-.416-2.208 0-.8.144-1.5253.432-2.176.2987-.6613.7467-1.184 1.344-1.568.608-.3947 1.376-.592 2.304-.592.576 0 1.088.096 1.536.288.4587.192.8373.4747 1.136.848.2987.3627.5067.8213.624 1.376h-1.392c-.16-.4693-.416-.8-.768-.992-.3413-.2027-.7467-.304-1.216-.304-.64 0-1.152.1493-1.536.448s-.6667.688-.848 1.168c-.1707.4693-.256.9707-.256 1.504 0 .5547.0907 1.0667.272 1.536s.464.848.848 1.136c.384.2773.88.416 1.488.416.448 0 .8693-.096 1.264-.288.4053-.192.672-.5333.8-1.024h1.408c-.1067.576-.336 1.0507-.688 1.424-.3413.3733-.7627.6507-1.264.832-.4907.1707-1.0133.256-1.568.256zm5.2438-.096v-11.312h1.36v11.312zm3.5 0v-8.432h1.36v8.432zm.672-9.68c-.2774 0-.5014-.0853-.672-.256-.16-.1707-.24-.3893-.24-.656s.0853-.48.256-.64c.1706-.17067.3893-.256.656-.256.2453 0 .4586.08533.64.256.192.17067.288.384.288.64 0 .2667-.0907.4853-.272.656-.1814.1707-.4.256-.656.256zm2.828 9.68v-8.432h1.312l.064 1.28c.192-.3093.4373-.5653.736-.768.2986-.2027.624-.352.976-.448.3626-.1067.7146-.16 1.056-.16.8213 0 1.4613.1707 1.92.512.4693.3413.8.8053.992 1.392.2026.576.304 1.232.304 1.968v4.656h-1.36v-4.288c0-.3947-.0267-.7733-.08-1.136-.0427-.3627-.1387-.688-.288-.976-.1387-.288-.3414-.512-.608-.672-.2667-.1707-.624-.256-1.072-.256-.5547 0-1.0294.1547-1.424.464-.384.3093-.6774.7253-.88 1.248-.192.5227-.288 1.1093-.288 1.76v3.856zm9.4531 0v-8.432h1.36v8.432zm.672-9.68c-.2774 0-.5014-.0853-.672-.256-.16-.1707-.24-.3893-.24-.656s.0853-.48.256-.64c.1706-.17067.3893-.256.656-.256.2453 0 .4586.08533.64.256.192.17067.288.384.288.64 0 .2667-.0907.4853-.272.656-.1814.1707-.4.256-.656.256zm6.428 9.776c-.8854 0-1.6214-.1813-2.208-.544-.576-.3733-1.008-.8853-1.296-1.536-.2774-.6507-.416-1.3867-.416-2.208 0-.8.144-1.5253.432-2.176.2986-.6613.7466-1.184 1.344-1.568.608-.3947 1.376-.592 2.304-.592.576 0 1.088.096 1.536.288.4586.192.8373.4747 1.136.848.2986.3627.5066.8213.624 1.376h-1.392c-.16-.4693-.416-.8-.768-.992-.3414-.2027-.7467-.304-1.216-.304-.64 0-1.152.1493-1.536.448s-.6667.688-.848 1.168c-.1707.4693-.256.9707-.256 1.504 0 .5547.0906 1.0667.272 1.536.1813.4693.464.848.848 1.136.384.2773.88.416 1.488.416.448 0 .8693-.096 1.264-.288.4053-.192.672-.5333.8-1.024h1.408c-.1067.576-.336 1.0507-.688 1.424-.3414.3733-.7627.6507-1.264.832-.4907.1707-1.0134.256-1.568.256zm7.9477 0c-.384 0-.7573-.048-1.12-.144-.352-.1067-.672-.2613-.96-.464-.2773-.2133-.5013-.4747-.672-.784-.16-.32-.24-.688-.24-1.104 0-.48.0854-.8853.256-1.216.1814-.3307.4214-.592.72-.784.2987-.192.6454-.3307 1.04-.416.3947-.0853.8054-.128 1.232-.128h2.48c0-.48-.0693-.896-.208-1.248-.128-.352-.3413-.624-.64-.816-.2986-.2027-.6933-.304-1.184-.304-.2986 0-.576.032-.832.096s-.4746.1653-.656.304c-.1813.1387-.3146.3253-.4.56h-1.456c.0747-.384.2187-.7093.432-.976.224-.2773.4907-.5013.8-.672.32-.1813.6614-.3147 1.024-.4.3627-.0853.7254-.128 1.088-.128 1.216 0 2.08.3573 2.592 1.072s.768 1.68.768 2.896v4.56h-1.136l-.08-1.072c-.2346.32-.5173.5653-.848.736-.3306.1707-.672.2827-1.024.336-.3413.064-.6666.096-.976.096zm.128-1.2c.5334 0 .992-.0853 1.376-.256.3947-.1813.6987-.4427.912-.784.2134-.3413.32-.7573.32-1.248v-.416h-1.488c-.352 0-.6986.0053-1.04.016-.3413.0107-.6506.0533-.928.128-.2773.0747-.5013.2027-.672.384-.16.1813-.24.4427-.24.784 0 .32.08.5813.24.784.1707.2027.3894.3573.656.464.2774.096.5654.144.864.144zm6.043 1.104v-11.312h1.36v11.312zm7.8125 0v-8.432h1.312l.064 1.312c.2134-.3307.4587-.5973.736-.8.288-.2027.6027-.352.944-.448.352-.1067.7307-.16 1.136-.16h.208.224v1.28h-.496c-.6613 0-1.2.144-1.616.432-.4053.2773-.6986.656-.88 1.136-.1813.4693-.272.992-.272 1.568v4.112zm9.4605.096c-.896 0-1.6373-.1813-2.224-.544-.5866-.3733-1.024-.8853-1.312-1.536s-.432-1.392-.432-2.224c0-.8427.1494-1.584.448-2.224.3094-.6507.7574-1.1627 1.344-1.536.5867-.3733 1.3067-.56 2.16-.56.6614 0 1.2267.128 1.696.384.48.2453.8747.576 1.184.992.3094.416.5334.8747.672 1.376.1387.4907.1974.9867.176 1.488-.0106.096-.0213.192-.032.288 0 .096-.0053.192-.016.288h-6.256c.0427.4907.1654.9333.368 1.328.2027.3947.4907.7093.864.944.3734.224.8374.336 1.392.336.2774 0 .5547-.032.832-.096.288-.0747.544-.1973.768-.368.2347-.1707.4-.4.496-.688h1.392c-.128.544-.368.992-.72 1.344-.352.3413-.7733.5973-1.264.768-.4906.16-1.0026.24-1.536.24zm-2.56-4.992h4.88c-.0106-.48-.1173-.9013-.32-1.264-.2026-.3627-.48-.6453-.832-.848-.3413-.2027-.752-.304-1.232-.304-.5226 0-.9653.112-1.328.336-.352.224-.624.5173-.816.88s-.3093.7627-.352 1.2zm11.1559 4.992c-.384 0-.7733-.0373-1.168-.112-.384-.0747-.7467-.2027-1.088-.384-.3307-.1813-.608-.4267-.832-.736s-.368-.6933-.432-1.152h1.376c.1067.288.2773.5227.512.704.2453.1707.5173.2933.816.368.3093.0747.6027.112.88.112.1707 0 .368-.0107.592-.032s.4373-.0693.64-.144c.2133-.0853.384-.208.512-.368.1387-.16.208-.384.208-.672 0-.2133-.048-.3893-.144-.528s-.2293-.2507-.4-.336c-.1707-.096-.3787-.1653-.624-.208-.5013-.1067-1.04-.208-1.616-.304-.5653-.096-1.0667-.2773-1.504-.544-.1493-.096-.288-.2027-.416-.32-.1173-.128-.2187-.2667-.304-.416-.0853-.16-.1547-.3307-.208-.512-.0427-.192-.064-.4-.064-.624 0-.416.08-.7733.24-1.072.1707-.3093.4053-.56.704-.752.2987-.2027.64-.352 1.024-.448.3947-.096.816-.144 1.264-.144.5547 0 1.0507.0907 1.488.272.448.1707.816.4267 1.104.768.288.3307.4587.7413.512 1.232h-1.264c-.0747-.3093-.2773-.56-.608-.752-.3307-.2027-.752-.304-1.264-.304-.1707 0-.3627.016-.576.048-.2133.0213-.416.0747-.608.16-.192.0747-.352.192-.48.352-.128.1493-.192.352-.192.608 0 .2347.0587.432.176.592.128.16.304.288.528.384s.48.176.768.24c.3733.0747.784.1547 1.232.24.448.0747.8.1547 1.056.24.3413.1067.624.256.848.448.2347.192.4053.4213.512.688.1173.2667.176.576.176.928 0 .5013-.1013.912-.304 1.232-.192.32-.4533.5707-.784.752s-.6987.3093-1.104.384c-.3947.0747-.7893.112-1.184.112zm8.7166 0c-.896 0-1.6373-.1813-2.224-.544-.5866-.3733-1.024-.8853-1.312-1.536s-.432-1.392-.432-2.224c0-.8427.1494-1.584.448-2.224.3094-.6507.7574-1.1627 1.344-1.536.5867-.3733 1.3067-.56 2.16-.56.6614 0 1.2267.128 1.696.384.48.2453.8747.576 1.184.992.3094.416.5334.8747.672 1.376.1387.4907.1974.9867.176 1.488-.0106.096-.0213.192-.032.288 0 .096-.0053.192-.016.288h-6.256c.0427.4907.1654.9333.368 1.328.2027.3947.4907.7093.864.944.3734.224.8374.336 1.392.336.2774 0 .5547-.032.832-.096.288-.0747.544-.1973.768-.368.2347-.1707.4-.4.496-.688h1.392c-.128.544-.368.992-.72 1.344-.352.3413-.7733.5973-1.264.768-.4906.16-1.0026.24-1.536.24zm-2.56-4.992h4.88c-.0106-.48-.1173-.9013-.32-1.264-.2026-.3627-.48-.6453-.832-.848-.3413-.2027-.752-.304-1.232-.304-.5226 0-.9653.112-1.328.336-.352.224-.624.5173-.816.88s-.3093.7627-.352 1.2zm10.7879 4.992c-.384 0-.757-.048-1.12-.144-.352-.1067-.672-.2613-.96-.464-.277-.2133-.501-.4747-.672-.784-.16-.32-.24-.688-.24-1.104 0-.48.085-.8853.256-1.216.181-.3307.421-.592.72-.784s.645-.3307 1.04-.416.805-.128 1.232-.128h2.48c0-.48-.069-.896-.208-1.248-.128-.352-.341-.624-.64-.816-.299-.2027-.693-.304-1.184-.304-.299 0-.576.032-.832.096s-.475.1653-.656.304-.315.3253-.4.56h-1.456c.075-.384.219-.7093.432-.976.224-.2773.491-.5013.8-.672.32-.1813.661-.3147 1.024-.4s.725-.128 1.088-.128c1.216 0 2.08.3573 2.592 1.072s.768 1.68.768 2.896v4.56h-1.136l-.08-1.072c-.235.32-.517.5653-.848.736s-.672.2827-1.024.336c-.341.064-.667.096-.976.096zm.128-1.2c.533 0 .992-.0853 1.376-.256.395-.1813.699-.4427.912-.784s.32-.7573.32-1.248v-.416h-1.488c-.352 0-.699.0053-1.04.016s-.651.0533-.928.128-.501.2027-.672.384c-.16.1813-.24.4427-.24.784 0 .32.08.5813.24.784.171.2027.389.3573.656.464.277.096.565.144.864.144zm6.043 1.104v-8.432h1.312l.064 1.312c.213-.3307.459-.5973.736-.8.288-.2027.603-.352.944-.448.352-.1067.731-.16 1.136-.16h.208.224v1.28h-.496c-.661 0-1.2.144-1.616.432-.405.2773-.699.656-.88 1.136-.181.4693-.272.992-.272 1.568v4.112zm9.413.096c-.886 0-1.622-.1813-2.208-.544-.576-.3733-1.008-.8853-1.296-1.536-.278-.6507-.416-1.3867-.416-2.208 0-.8.144-1.5253.432-2.176.298-.6613.746-1.184 1.344-1.568.608-.3947 1.376-.592 2.304-.592.576 0 1.088.096 1.536.288.458.192.837.4747 1.136.848.298.3627.506.8213.624 1.376h-1.392c-.16-.4693-.416-.8-.768-.992-.342-.2027-.747-.304-1.216-.304-.64 0-1.152.1493-1.536.448s-.667.688-.848 1.168c-.171.4693-.257.9707-.257 1.504 0 .5547.091 1.0667.273 1.536.181.4693.464.848.848 1.136.384.2773.88.416 1.488.416.448 0 .869-.096 1.264-.288.405-.192.672-.5333.8-1.024h1.408c-.107.576-.336 1.0507-.688 1.424-.342.3733-.763.6507-1.264.832-.491.1707-1.014.256-1.568.256zm5.243-.096v-11.312h1.36v4.176c.203-.2987.448-.5493.736-.752.299-.2133.624-.3733.976-.48s.715-.16 1.088-.16c.822 0 1.462.1707 1.92.512.47.3413.8.8053.992 1.392.192.576.288 1.2373.288 1.984v4.64h-1.36v-4.224c0-.3733-.026-.7413-.08-1.104-.042-.3733-.133-.7093-.272-1.008-.138-.2987-.352-.5387-.64-.72-.277-.1813-.656-.272-1.136-.272-.458 0-.853.1013-1.184.304-.32.2027-.576.4747-.768.816-.192.3307-.336.6987-.432 1.104-.085.3947-.128.784-.128 1.168v3.936z" fill="#2965ff"/></svg>