<svg fill="none" height="120" viewBox="0 0 476 120" width="476" xmlns="http://www.w3.org/2000/svg"><g clip-rule="evenodd" fill="#fff" fill-rule="evenodd"><path d="m14.097 3.1156c-7.51581 7.74-8.74912 16.3133-3.5075 24.385 1.7403 2.6797 2.0288 4.2807 1.1156 6.1887-.7583 1.5842-1.77441 2.2432-3.45954 2.2432-2.70431 0-3.92616-2.3274-4.26921-8.1317l-.20358-3.4442-1.29034 2.8174c-3.87906 8.4715-3.204454 15.8242 1.97052 21.4782 1.96774 2.1493 4.67608 4.2157 4.32994 3.3034-.47567-1.2537-.56213-3.0127-.2042-4.145.53763-1.7003 1.71331-2.8778 3.88001-3.8862 3.4908-1.6244 6.2288-4.1729 7.2248-6.724.2017-.5172.554-1.8572.7831-2.9776l.4157-2.0373.7891 2.5074c2.341 7.4423 1.866 12.673-1.493 16.4334l-1.1736 1.3141.9056-.2202c2.9209-.7106 4.3602-1.5296 6.5145-3.707 5.5164-5.5754 6.5967-13.3686 2.9264-21.1102-1.7356-3.6608-2.7491-5.0379-6.9753-9.4782-2.0511-2.1548-4.0984-4.623-4.5499-5.4849-1.2085-2.3071-1.6163-4.79785-1.3728-8.38403.1144-1.68089.093-3.05587-.0471-3.05587-.14 0-1.1794.95186-2.3092 2.1156zm-.8729 52.9624c-2.2758.0825-7.62986.6856-8.26109.9304-.31793.1234-.41555 1.1175-.41555 4.2371v4.076l1.0071-.1909c5.75574-1.0897 14.14904-1.1011 20.29704-.0266l1.0072.1761v-4.0553c0-3.1022-.0976-4.093-.4156-4.2164-1.3049-.5066-9.3301-1.0714-13.2191-.9304zm4.5843 4.0806.0911 2.2721h-2.1828-2.1828v-2.1414c0-1.1783.0989-2.242.2198-2.3643.1208-.1223 1.0619-.1808 2.0916-.1303l1.872.0915zm-6.7535.088c0 2.4591.1029 2.3538-2.57011 2.6323l-1.79544.1875.0911-2.2766.0911-2.2767 1.23953-.1906c.68172-.1051 1.62314-.2107 2.09172-.2351l.8521-.0445zm12.9034-1.8902c.7037 0 .7314.0889.7314 2.3534v2.3531l-1.782-.1855c-2.6605-.277-2.5564-.1682-2.5564-2.6734v-2.2464l1.4379.1994c.7905.1096 1.7666.1994 2.1691.1994zm-12.2061 7.5881c-1.5764.1229-3.39602.3675-4.04336.544l-1.17723.3202-.36007 6.6652c-.19833 3.6658-.66716 8.781-1.04211 11.3666-.37496 2.5857-.67648 4.9835-.66997 5.3282.00651.3448.81404 2.4604 1.79481 4.7013 2.18125 4.9848 5.67763 15.573 6.85673 20.764 1.4914 6.566 1.6625 5.63 1.6625-9.09v-12.9296l-.9297-.8875c-1.8998-1.8134-.8212-4.9089 1.7106-4.9089 1.5205 0 2.2875.4771 2.8131 1.7489.3835.929.3835 1.2149 0 2.1439-.2436.5891-.7336 1.2288-1.0887 1.4214-.6389.3456-.6461.4945-.6461 13.3458 0 10.682.0744 12.996.4171 12.996.2805 0 .7472-1.412 1.4249-4.31 1.3162-5.63 4.1219-14.136 6.5387-19.8239 1.0623-2.4996 1.9384-4.8971 1.9473-5.3281s-.2135-2.2645-.494-4.0745c-.5323-3.4355-1.0325-9.1748-1.3445-15.4323l-.1834-3.679-1.1317-.3077c-2.3484-.6391-7.849-.9008-12.0549-.574z"/><path d="m39.2617 26.3875v1.5671h3.2537 3.2538v8.6191 8.619h1.8592 1.8593v-8.619-8.6191h3.4087 3.4088v-1.5671-1.5672h-8.5218-8.5217zm19.8324 8.6348v10.2017l1.7817-.0939 1.7818-.0941.0863-4.3096.086-4.3094h5.1043 5.1044v4.3878 4.3879h1.8593 1.8592v-10.1862-10.1862h-1.8592-1.8593v4.2311 4.2313h-5.113-5.113v-4.2313-4.2311h-1.8593-1.8592zm23.2408-.0158v10.1862h7.4371 7.4371v-1.5671-1.5671h-5.5778-5.5778v-2.8207-2.8208h4.8032 4.8029v-1.5672-1.5671h-4.8029-4.8032v-2.6642-2.6639h5.4228 5.423v-1.5671-1.5672h-7.2823-7.2821zm-36.4736 20.2114c-2.2129.4758-4.0195 1.7655-4.9228 3.5147-.5611 1.0863-.5621 3.4872-.0019 4.576.9656 1.8767 2.2767 2.6064 6.8773 3.8276 1.38.3663 2.957.9413 3.5043 1.278.8678.5335.983.7576.8993 1.7495-.1542 1.8335-1.2704 2.456-4.3799 2.4426-2.4479-.0108-3.4166-.3032-6.4526-1.9487-.1105-.0598-.4493.5485-.7525 1.3523l-.5517 1.4604.7517.5735c1.4302 1.0912 3.9954 1.7076 7.1059 1.7076 2.6029 0 3.1502-.1025 4.7259-.885 2.4291-1.2065 3.4676-2.9278 3.2643-5.4101-.2456-2.9962-1.8234-4.2637-6.8452-5.4996-3.3693-.829-4.6726-1.6444-4.8044-3.006-.2012-2.0814 2.3808-3.2456 5.7983-2.6143 1.091.2016 2.3937.5811 2.895.8434.5011.262.9504.431.9982.3751.3229-.3778 1.095-2.1905 1.095-2.5705 0-1.2045-6.2447-2.4027-9.2042-1.7665zm115.6187-.0057c-5.656 1.2215-9.167 6.409-8.16 12.0574.883 4.9561 4.504 8.1515 9.687 8.5468 2.594.1977 5.506-.4405 7.558-1.6569l1.325-.785v-4.0614-4.0613h-1.859-1.86v3.1502 3.1502l-1.074.4542c-1.412.5964-4.537.5794-5.985-.0326-2.604-1.1001-4.083-3.4781-4.083-6.5653 0-4.3014 2.866-7.0652 7.305-7.0452 1.536.007 3.822.8526 4.852 1.7945.526.481.632.4396 1.71-.6658l1.149-1.1787-1.192-1.056c-.655-.5811-1.841-1.2841-2.634-1.5623-1.762-.6185-5.027-.8523-6.739-.4828zm-104.5552 1.5772v1.5671h3.2537 3.2539v8.6191 8.6191h1.8542 1.8543l.0825-8.5407.0824-8.5408 3.3312-.0889 3.3312-.0892v-1.5563-1.5566h-8.5217-8.5217zm19.8323 8.5887v10.2166h1.8593 1.8593v-2.9897-2.9898l2.6884.0906 2.6886.0907 1.9838 2.8992 1.9835 2.899h2.0279c1.9581 0 2.0136-.0213 1.6031-.6208-3.8234-5.5841-4.1159-6.071-3.7264-6.2043.8875-.3034 2.6494-2.1598 3.1881-3.3582 1.1233-2.5012.5038-6.2039-1.3221-7.9014-.4077-.3795-1.4371-1.0108-2.287-1.4029-1.3819-.6371-2.1292-.725-7.0462-.8294l-5.5003-.1162zm22.6986-.1934c-2.4284 5.475-4.4157 10.0572-4.4157 10.1822 0 .1253.8177.2278 1.8173.2278h1.8176l1.0133-2.3507 1.0138-2.3506h5.012 5.014l.93 2.2722.931 2.2724 1.916.0933c1.054.0511 1.917-.0228 1.917-.1647 0-.2576-7.928-18.1052-8.635-19.4391-.321-.6058-.623-.7045-2.144-.7014l-1.771.004zm16.0973-8.3624.094 1.5999 3.254.0456 3.253.0454.083 8.5408.082 8.5407h1.854 1.855v-8.6392-8.6394l3.254.0986 3.255.0985-.001-1.6455-.001-1.6455h-8.538-8.538zm19.771 8.5862v10.1862h7.592 7.592v-1.5672-1.5669h-5.732-5.733v-2.8209-2.8208h4.958 4.958v-1.5671-1.5672h-4.971-4.97l.09-2.5856.09-2.5858 5.5-.0856 5.5-.0855v-1.5599-1.56h-7.437-7.437zm38.517-9.9512c.071.1291 1.822 3.0704 3.892 6.5359l3.763 6.3004v3.6507 3.6504h1.859 1.86v-3.4664-3.4667l4.035-6.7349 4.034-6.7345-1.93.0934-1.929.0934-2.803 4.7706c-1.54 2.624-2.89 4.7746-2.997 4.7798-.108.0049-1.483-2.1772-3.059-4.849l-2.862-4.8582h-1.995c-1.098 0-1.938.106-1.868.2351zm-85.9583 3.667c1.2591.6586 2.0142 2.3539 1.7927 4.025-.3284 2.477-1.9647 3.3562-6.246 3.3562h-2.9537v-4.1196-4.1195l3.1992.1654c2.1154.1089 3.5409.3438 4.2078.6925zm19.6823 4.3868c.951 2.2309 1.729 4.1701 1.729 4.3089 0 .1387-1.603.2526-3.563.2526-2.285 0-3.564-.1181-3.564-.3294 0-.1812.578-1.6974 1.284-3.3693s1.481-3.5134 1.722-4.0923c.242-.5789.489-1.0018.551-.9398.061.0621.89 1.9383 1.841 4.1693zm-58.0773 22.1382c-4.565.5071-8.0875 3.7399-8.9898 8.2509-.9234 4.6153 1.3523 9.3068 5.5185 11.3758 1.6109.8 2.0688.877 5.1832.877 3.2857 0 3.4985-.042 5.5779-1.096l2.1616-1.097v-4.075-4.0746l-1.7818-.0939-1.7818-.0941v3.2825 3.2821l-1.0071.315c-2.0241.634-3.0437.714-4.6969.366-3.4164-.717-5.5619-3.3745-5.5481-6.8727.0163-4.0233 2.4565-6.7297 6.444-7.1459 1.8673-.1949 3.516.2503 5.2131 1.4081l1.18.8052 1.1264-1.1393c1.106-1.1186 1.1158-1.1509.5529-1.7803-1.5844-1.7703-5.6606-2.8812-9.1521-2.4938zm42.834.0012c-3.6473.4922-7.2168 3.3421-8.3211 6.6434-1.7525 5.2382.4843 10.6591 5.4195 13.1341 1.2221.613 1.9218.721 4.6903.723 2.8678.002 3.4558-.095 4.958-.815 4.4656-2.143 6.8006-7.1864 5.6016-12.0962-1.265-5.1768-6.4789-8.3812-12.3483-7.5893zm75.4453.0268c-2.128.2863-5.168 1.8309-6.323 3.2119-.445.5314-1.17 1.742-1.611 2.6901-.67 1.4379-.802 2.1658-.797 4.3878.008 3.3772.792 5.2939 3.048 7.4519 2.232 2.135 3.944 2.735 7.792 2.731 2.747-.003 3.274-.097 4.647-.831.854-.455 1.877-1.181 2.274-1.613l.724-.785-1.189-1.105c-1.158-1.076-1.205-1.09-1.809-.536-1.762 1.618-4.338 2.168-6.785 1.449-1.999-.588-3.394-1.687-4.22-3.3248-2.523-5.0008.897-10.6457 6.449-10.6457 1.245 0 2.822.5741 3.994 1.4536.542.4072 1.108.7403 1.255.7403.15 0 .752-.5027 1.339-1.1171l1.068-1.1173-1.085-.9148c-2.13-1.7962-5.375-2.5829-8.771-2.1259zm20.429.0027c-5.449.7331-9.167 5.3903-8.8 11.024.18 2.7958 1.154 4.844 3.24 6.817 2.154 2.038 3.89 2.632 7.692 2.632 2.788 0 3.269-.088 4.803-.882 3.645-1.889 5.651-5.108 5.697-9.1355.034-3.2327-.748-5.2424-2.883-7.4012-2.602-2.6317-5.692-3.5999-9.749-3.0543zm-124.2215.1172c-.1276.1347-.2323 4.7345-.2323 10.2223v9.9775h1.8474 1.8478l.089-2.899.0894-2.9h2.6291 2.6294l2.0121 2.9 2.0117 2.899h1.9439c1.0687 0 1.9435-.067 1.9435-.148 0-.082-.9701-1.527-2.1558-3.213-1.9005-2.7012-2.0932-3.1014-1.6268-3.3779.2909-.1723 1.1075-.9004 1.8143-1.6175 3.3215-3.3702 2.0604-9.1106-2.4337-11.0785-1.437-.6291-2.2947-.7363-6.9085-.864-2.8974-.0798-5.3728-.0353-5.5005.0991zm44.8145.2913c-.346.9117.098 13.7582.517 14.9795.551 1.601 2.258 3.553 3.818 4.365.862.448 2.072.715 3.686.813 4.207.254 6.766-.969 8.443-4.035l.93-1.699.102-7.4602.102-7.4604-1.806.0948-1.807.0947-.155 7.0521c-.171 7.8-.313 8.395-2.289 9.586-1.338.807-4.039.787-5.46-.041-2.051-1.194-2.305-2.234-2.428-9.9368l-.11-6.817h-1.683c-1.201 0-1.734.1329-1.86.4643zm22.817 9.7219v10.1866h1.859 1.859v-2.821-2.821l2.247-.002c5.146-.006 8.186-1.1008 9.768-3.5183.749-1.1442.845-1.5871.845-3.8735 0-2.3639-.079-2.6949-.932-3.9236-1.794-2.5802-4.592-3.3958-11.695-3.407l-3.951-.0064zm-34.9352-6.5585c1.7457.6014 3.7632 2.7044 4.2312 4.4101 1.345 4.8988-1.7623 9.262-6.6448 9.331-4.6469.065-7.7482-3.794-6.897-8.5822.7555-4.2485 5.0488-6.6278 9.3106-5.1589zm96.9612.4941c.724.4049 1.742 1.3478 2.259 2.0953.879 1.2656.945 1.5492.945 4.1258 0 2.5699-.067 2.8622-.934 4.1089-2.591 3.731-8.362 3.95-11.233.427-1.52-1.8657-1.982-4.314-1.289-6.841.441-1.6019 2.495-3.8084 4.103-4.4092 1.773-.6611 4.471-.4445 6.149.4932zm-118.9198-.2371c1.4618.6177 2.0449 1.6103 2.0449 3.4808 0 3.0157-1.2566 3.8529-5.9137 3.9413l-3.2276.0608-.0868-3.9598-.0868-3.9601h3.118c1.9656 0 3.5003.1615 4.152.437zm68.0768.2775c1.405.9583 1.886 1.9712 1.723 3.6334-.098 1.0064-.391 1.6303-1.102 2.3505-.957.9685-1.012.9817-4.527 1.0858l-3.559.1053v-3.9448-3.9447h3.208c2.826 0 3.333.0849 4.257.7145zm60.603 12.3956c-.821.917-.666 2.709.302 3.478.998.794 2.001.83 2.867.102 1.719-1.445.749-4.153-1.488-4.153-.739 0-1.359.211-1.681.573z"/></g></svg>