<svg fill="none" height="120" viewBox="0 0 476 120" width="476" xmlns="http://www.w3.org/2000/svg"><g fill="#fff"><path d="m93.9139 85.8196c-2.3858 3.4314-5.1512 6.5333-8.269 9.2784s-6.5067 5.106-10.1939 7.027c-3.66 1.922-7.5098 3.404-11.5494 4.393-4.0125.988-8.1063 1.482-12.2273 1.482-28.5483 0-51.6743-23.498-51.6743-52.5137s23.1531-52.4863 51.7014-52.4863c4.1481 0 8.2148.49412 12.2273 1.48235 4.0125.98824 7.8623 2.44314 11.5494 4.39216 3.6601 1.92159 7.0761 4.28239 10.1939 7.02749s5.8832 5.847 8.269 9.2784c-.976-1.0431-2.0333-2.0314-3.1178-2.9922-1.0845-.9333-2.2231-1.8392-3.3889-2.6627s-2.3858-1.5922-3.633-2.3059c-1.2471-.7137-2.5213-1.3451-3.8227-1.9216-1.3013-.5764-2.6298-1.098-3.9853-1.5372-1.3556-.4392-2.7383-.8235-4.121-1.1255s-2.7925-.549-4.2294-.7137c-1.4097-.1647-2.8467-.2471-4.2564-.2745-1.4098-.0275-2.8467.0274-4.2836.1647-1.4098.1098-2.8467.3294-4.2294.5764-1.4098.2745-2.7925.604-4.1481 1.0157-1.3827.4118-2.7111.8785-4.0396 1.4275-1.3284.549-2.6298 1.1529-3.8769 1.8117-1.2742.6589-2.4942 1.4-3.6871 2.1961-1.193.7961-2.3316 1.6471-3.4432 2.553-1.1116.9058-2.1689 1.8666-3.1991 2.8823-1.0032 1.0157-1.9792 2.0863-2.901 3.1843-.9217 1.0981-1.7622 2.2785-2.5755 3.4588-.7863 1.2079-1.5454 2.4432-2.2232 3.7059-.6778 1.2628-1.3013 2.5804-1.8436 3.9255-.5422 1.3451-1.0302 2.6902-1.464 4.0902-.4066 1.3726-.7591 2.8-1.0573 4.2-.2711 1.4275-.488 2.8549-.6236 4.2824-.1355 1.4549-.2169 2.8823-.2169 4.3372s.0814 2.8824.2169 4.3373c.1356 1.4549.3525 2.8823.6236 4.2823.2711 1.4275.6235 2.8275 1.0573 4.2.4067 1.3726.8947 2.7451 1.464 4.0902.5423 1.3451 1.1658 2.6353 1.8436 3.9255.6778 1.2628 1.4098 2.5255 2.2232 3.7059.7862 1.2078 1.6538 2.3608 2.5755 3.4588.9218 1.1255 1.8707 2.1687 2.901 3.1843 1.0031 1.0157 2.0875 1.9765 3.1991 2.8824s2.2502 1.7569 3.4432 2.5529c1.1929.7961 2.4129 1.5373 3.6871 2.1961s2.5485 1.2628 3.8769 1.8118c1.3285.549 2.6841 1.0157 4.0396 1.4274 1.3827.4118 2.7654.7412 4.1481 1.0157 1.4098.2745 2.8196.4667 4.2294.5765 1.4097.1098 2.8467.1647 4.2836.1647s2.8467-.1098 4.2564-.2745c1.4098-.1647 2.8196-.4118 4.2294-.7137 1.3827-.302 2.7654-.6863 4.121-1.1255 1.3555-.4393 2.684-.9608 3.9853-1.5373 1.3014-.5765 2.5756-1.2078 3.8227-1.9216 1.2472-.7137 2.4401-1.4823 3.633-2.3058 1.1658-.8236 2.3044-1.702 3.3889-2.6628 1.0845-.9333 2.1147-1.949 3.1178-2.9921z"/><path d="m69.1622 40.416c1.4911.7686 2.8738 1.6471 4.1752 2.7177 1.3013 1.0431 2.4671 2.2235 3.5244 3.5411 1.0574 1.3177 1.9521 2.7177 2.7383 4.2275.7591 1.5098 1.3556 3.0745 1.7893 4.6941.4338 1.6196.7049 3.2941.7863 4.9686.0813 1.6745 0 3.3765-.244 5.0236-.2711 1.6745-.6778 3.2941-1.2743 4.8588-.5964 1.5647-1.3555 3.0745-2.2502 4.5019-.8947 1.4275-1.952 2.7177-3.1178 3.9255-1.1658 1.1804-2.4672 2.251-3.877 3.1569-1.4097.9059-2.8738 1.6745-4.4191 2.2784-1.5454.604-3.1449 1.0157-4.7987 1.2902-1.6538.2471-3.3076.3294-4.9614.2471-1.6538-.1098-3.3076-.3843-4.9072-.8235-1.5996-.4393-3.1449-1.0706-4.6089-1.8393-1.464-.7686-2.8467-1.7019-4.1481-2.7725-1.3013-1.0706-2.44-2.2784-3.4702-3.5961-1.0303-1.3176-1.9249-2.7451-2.6569-4.2549s-1.3014-3.1019-1.7352-4.7216c-.4066-1.647-.6506-3.2941-.7049-4.996-.0542-1.702.0543-3.3765.3254-5.0236.2711-1.6745.732-3.2941 1.3555-4.8588.6236-1.5647 1.3827-3.047 2.3316-4.447s2.0063-2.6902 3.1992-3.8706c-.7863 1.0431-1.4912 2.1686-2.0605 3.3764-.5693 1.1804-1.0302 2.4157-1.3556 3.7059-.3253 1.2902-.5422 2.5804-.6235 3.9255-.0814 1.3177-.0271 2.6353.1626 3.953.1898 1.3176.488 2.6078.9218 3.8431.4338 1.2627.976 2.4431 1.6538 3.5961.6778 1.1529 1.4369 2.196 2.3045 3.1843.8676.9882 1.8436 1.8666 2.8738 2.6627 1.0573.7961 2.1689 1.4824 3.3347 2.0314s2.4129 1.0157 3.6872 1.3451c1.2742.3294 2.5484.5216 3.8498.5765 1.3013.0549 2.6027 0 3.904-.2196 1.3014-.1922 2.5485-.5216 3.7685-.9883 1.22-.4666 2.4129-1.0431 3.5245-1.7294 1.1115-.6863 2.1418-1.4823 3.1178-2.3882.9489-.9059 1.8165-1.8941 2.5756-2.9647s1.4098-2.2236 1.952-3.4314.976-2.4706 1.2471-3.7608.4609-2.6078.5151-3.9255c.0543-1.3176-.0542-2.6353-.2711-3.9529-.2169-1.3177-.5693-2.5804-1.0302-3.8157s-1.0574-2.4157-1.7351-3.5412c-.7049-1.1255-1.4912-2.1686-2.3858-3.1294-.8947-.9608-1.8978-1.8118-2.9552-2.5804z"/><path d="m64.2253 69.6505c-.8946.4667-1.8435.851-2.8466 1.1255-1.0032.2745-1.9792.4392-3.0094.4941s-2.0334 0-3.0365-.1372c-1.0031-.1647-2.0062-.4118-2.9551-.7961-.9489-.3569-1.8707-.8235-2.7112-1.4-.8675-.5765-1.6538-1.2079-2.3858-1.949-.732-.7412-1.3555-1.5373-1.9249-2.4157-.5693-.8785-1.0302-1.7843-1.3827-2.7726-.3795-.9608-.6235-1.9764-.7862-2.9921s-.2169-2.0589-.1627-3.102c.0543-1.0431.2169-2.0588.488-3.0471.2712-1.0156.6507-1.9764 1.1116-2.8823.4609-.9333 1.0302-1.7843 1.6809-2.5804s1.3827-1.5373 2.1689-2.1686c.7863-.6589 1.6538-1.2079 2.5756-1.6745.9218-.4667 1.8707-.8236 2.8467-1.0981 1.0031-.247 2.0063-.4117 3.0094-.4666 1.0302-.0549 2.0333 0 3.0364.1921 1.0032.1647 1.9792.4667 2.9281.8235.9489.3844 1.8436.8785 2.7111 1.4549.8405.5765 1.6267 1.2353 2.3587 1.9765.7049.7412 1.3285 1.5647 1.8978 2.4432.5422.8784 1.0031 1.8117 1.3556 2.7725.3524.9882.5964 1.9765.732 3.0196-.2169-.7961-.5422-1.5372-.8947-2.251-.3796-.7137-.8133-1.4-1.3284-2.0313-.5152-.6314-1.0845-1.2079-1.681-1.7295-.6235-.5215-1.2742-.9607-2.0062-1.3451-.7049-.3843-1.4369-.6862-2.2231-.9333-.7592-.247-1.5454-.3843-2.3587-.4667-.8134-.0823-1.5996-.0823-2.3858 0-.7863.0824-1.5725.2471-2.3587.4942-.7591.247-1.4911.549-2.196.9607-.7049.3844-1.3556.851-1.9792 1.3726-.6235.5216-1.1658 1.098-1.6809 1.7569-.5151.6313-.9489 1.3176-1.3013 2.0313-.3525.7138-.6507 1.4824-.8947 2.2785-.2169.796-.3525 1.5921-.4338 2.3882-.0542.8235-.0542 1.6196.0542 2.4431.1085.8236.2712 1.5922.5152 2.3883.244.7686.5693 1.5098.976 2.2235.4066.7137.8675 1.3726 1.3826 2.0039.5152.6039 1.1116 1.1804 1.7352 1.6745.6235.4942 1.3013.9334 2.0333 1.2902.732.3569 1.464.6589 2.2503.851.7862.2196 1.5724.3569 2.3587.4118.8133.0549 1.5995 0 2.3858-.0824.7862-.1098 1.5724-.3019 2.3315-.549z"/><path d="m29.7683 66.6597c-.3795-1.2079-.7049-2.4432-.976-3.7059-.2711-1.2628-.4609-2.5255-.5693-3.7882-.1356-1.2628-.1898-2.553-.1898-3.8157 0-1.2902.0813-2.553.2169-3.8157.1356-1.2628.3253-2.5255.5964-3.7883.2712-1.2627.5965-2.4705 1.0032-3.7058.4066-1.2079.8404-2.4157 1.3555-3.5687.5152-1.1529 1.0845-2.3058 1.7352-3.4039.6235-1.098 1.3284-2.1686 2.0604-3.2117.7592-1.0432 1.5454-2.004 2.3858-2.9648.8405-.9333 1.7352-1.8392 2.6841-2.6901.9489-.851 1.9249-1.6471 2.9551-2.3883s2.0876-1.4274 3.172-2.0588c1.0845-.6314 2.2232-1.2078 3.3619-1.702 1.1657-.5215 2.3315-.9608 3.5244-1.3451s2.413-.7137 3.6601-.9607c1.2471-.2471 2.4671-.4393 3.7413-.5491 1.2472-.1098 2.5214-.1647 3.7685-.1647 1.2472 0 2.5214.0824 3.7685.2471 1.2471.1372 2.4943.3568 3.7143.6314 1.22.2745 2.44.6313 3.6329 1.0431s2.3587.8784 3.4974 1.4274c1.1387.5216 2.2502 1.1255 3.3347 1.7844 1.0844.6588 2.1147 1.3725 3.1449 2.1411 1.0031.7687 1.9791 1.5922 2.9009 2.4432.9218.8784 1.7894 1.7843 2.6298 2.7451.8405.9608 1.5996 1.9764 2.3316 3.0196.732 1.0431 1.3827 2.1412 2.0062 3.2392.6236 1.1255 1.1658 2.251 1.6538 3.4314s.9218 2.3882 1.3014 3.596c.3795 1.2079.6778 2.4706.9218 3.7059s.4066 2.5255.5151 3.7883c.1084 1.2627.1627 2.5529.1356 3.8156-.0272 1.2628-.1085 2.553-.2712 3.8157-.1626 1.2628-.3795 2.5255-.6506 3.7608-.2983 1.2353-.6236 2.4706-1.0574 3.6784-.4066 1.2079-.8947 2.3883-1.4369 3.5412-.5422 1.153-1.1387 2.2784-1.7893 3.3765-.6507 1.098-1.3556 2.1412-2.1147 3.1569-.7591 1.0156-1.5725 2.0039-2.4401 2.9098-.8675.9333-1.7622 1.8117-2.7382 2.6352-.9489.8236-1.952 1.6197-2.9823 2.3334-1.0302.7137-2.1146 1.4-3.1991 2.0039-1.1116.6039-2.2502 1.1529-3.3889 1.6471-1.1387.4941-2.3587.9058-3.5516 1.2902-1.22.3568-2.44.6588-3.6601.9058-1.2471.2471-2.4942.4118-3.7413.4942-1.2472.0823-2.5214.1372-3.7685.1098 1.9791-.2471 3.904-.6863 5.7747-1.3177s3.6872-1.4549 5.4223-2.4431c1.7351-.9883 3.3347-2.1686 4.8258-3.4863 1.4912-1.3176 2.8467-2.7725 4.0667-4.3647s2.2503-3.2941 3.145-5.1059c.8675-1.8117 1.5724-3.6784 2.0875-5.6274.5152-1.9491.8405-3.9255.9489-5.9294.1356-2.004.0542-4.0079-.2169-6.0118s-.732-3.953-1.3826-5.8471c-.6507-1.8941-1.4912-3.7333-2.4943-5.4627s-2.1689-3.349-3.4974-4.8588c-1.3284-1.5098-2.7924-2.8549-4.3649-4.0628-1.5996-1.2078-3.2805-2.251-5.0698-3.1019-1.7894-.8785-3.6601-1.5373-5.585-2.0314s-3.8769-.7961-5.856-.8784c-1.9792-.1098-3.9583 0-5.9103.3019-1.952.302-3.877.7961-5.7476 1.4824-1.8707.6862-3.633 1.5647-5.341 2.6078-1.708 1.0432-3.2805 2.251-4.7174 3.6235-1.464 1.3726-2.7653 2.8549-3.9311 4.502-1.1658 1.6196-2.1689 3.349-2.9823 5.1882-.8133 1.8393-1.464 3.7334-1.9249 5.6824s-.7049 3.9529-.7862 5.9569c-.0542 2.0039.0542 4.0078.3795 6.0117z"/><path d="m135.312 54.279c-.596.4667-1.247.851-1.925 1.1804-1.111.5765-2.25.9882-3.443 1.3176-1.464.4118-2.982.5765-4.501.5491-2.331 0-4.554-.4941-6.696-1.4-1.925-.8236-3.579-2.004-5.016-3.5412-1.382-1.5098-2.413-3.2118-3.145-5.1333-.732-2.004-1.084-4.0628-1.084-6.1765 0-2.3059.352-4.5843 1.112-6.753.704-1.9764 1.735-3.7607 3.144-5.298 1.383-1.5098 3.037-2.6627 4.908-3.4588 2.006-.851 4.121-1.2628 6.317-1.2353 1.924-.0275 3.822.2471 5.666.8784 1.41.4667 2.738 1.0981 4.012 1.8667l-2.467 6.0118c-.894-.6589-1.87-1.2353-2.874-1.7295-1.301-.6313-2.684-.9333-4.121-.9058-1.22 0-2.385.247-3.47.7686-1.111.5216-2.114 1.2353-2.928 2.1686-.867.9608-1.545 2.0588-2.006 3.2667-.515 1.3176-.759 2.6627-.732 4.0627 0 1.4549.217 2.8824.678 4.2549.406 1.2353 1.057 2.3334 1.925 3.3216.84.9333 1.843 1.6471 3.009 2.1137 1.274.5216 2.576.7687 3.958.7412 1.518.0275 2.955-.2471 4.365-.8235 1.03-.4392 1.925-1.0157 2.766-1.7569l2.602 5.7098z"/><path d="m143.744 24.6592h21.689v6.149h-15.426v6.8902h13.637v6.1216h-13.637v6.9725h16.023v6.149h-22.286z"/><path d="m196.992 24.6573.136 19.4627-22.205-20.7255h-.271v33.5451h6.372l-.136-19.0784 22.231 20.3961h.19v-33.6z"/><path d="m211.496 24.6592h21.418v6.149h-7.727v26.1333h-6.262v-26.1333h-7.429z"/><path d="m247.392 30.8073h4.5c1.085 0 1.979.1922 2.603.5765.597.3294 1.085.7961 1.437 1.4.298.5216.515 1.0706.624 1.6471.081.4392.135.8784.162 1.3451 0 .5215-.081 1.0156-.244 1.5098-.162.5764-.434 1.098-.786 1.5647-.407.5215-.895.9333-1.491 1.2353-.759.3568-1.546.5215-2.386.4941h-4.446v-9.7451zm18.192 26.1334-7.402-11.7216c.976-.549 1.817-1.2628 2.549-2.1137.867-1.0706 1.518-2.2785 1.897-3.5961.38-1.2902.57-2.6079.57-3.953 0-1.5647-.244-3.047-.814-4.5019-.542-1.3177-1.328-2.4706-2.385-3.4314-1.139-1.0157-2.44-1.7294-3.904-2.1961-1.735-.549-3.498-.796-5.314-.7686h-9.625v32.2824h6.263v-10.2667h4.175l6.724 10.2667h7.293z"/><path d="m279.192 24.6592h-6.262v32.2823h6.262z"/><path d="m313.38 54.2769c-.596.4667-1.247.851-1.925 1.1804-1.111.5765-2.25.9883-3.443 1.3177-1.464.4118-2.982.5765-4.5.549-2.332 0-4.555-.4667-6.724-1.3725-1.925-.8236-3.579-2.004-5.015-3.5412-1.383-1.5098-2.413-3.2118-3.118-5.1334-.732-2.0039-1.085-4.0627-1.085-6.1764 0-2.3059.353-4.5843 1.112-6.753.705-1.9764 1.735-3.7607 3.145-5.298 1.382-1.5098 3.036-2.6627 4.907-3.4588 2.006-.851 4.121-1.2628 6.317-1.2353 1.925-.0275 3.823.247 5.666.8784 1.41.4667 2.738 1.0981 4.013 1.8667l-2.467 5.9843c-.895-.6588-1.871-1.2353-2.874-1.7294-1.302-.6314-2.684-.9334-4.121-.9059-1.22 0-2.386.2471-3.47.7686-1.112.5216-2.115 1.2353-2.928 2.1687-.868.9607-1.546 2.0588-2.007 3.2666-.515 1.3177-.759 2.6628-.732 4.0628 0 1.4549.217 2.8823.678 4.2549.407 1.2353 1.057 2.3333 1.925 3.3215.84.9334 1.844 1.6471 3.009 2.1138 1.275.5215 2.603.7686 3.959.7411 1.518.0275 2.955-.247 4.365-.8235 1.03-.4392 1.952-1.0157 2.765-1.7569l2.575 5.7098z"/><path d="m328.075 24.6592h-6.263v32.2823h6.263z"/><path d="m336.264 24.6592h21.418v6.149h-7.727v26.1333h-6.263v-26.1333h-7.428z"/><path d="m384.603 24.6592-7.13 14.9059-7.293-14.9059h-7.727l11.685 22.2353v10.047h6.263v-10.047l11.929-22.2353z"/><path d="m157.734 73.7974h3.443c.705 0 1.356.1098 2.006.4117.488.2471.922.604 1.247 1.0432.299.4117.515.851.651 1.3176.108.4118.19.851.19 1.2628 0 .4392-.082.8784-.217 1.3176-.136.4667-.353.9059-.678 1.2902-.352.4392-.786.7686-1.274 1.0157-.651.302-1.356.4392-2.061.4118h-3.307zm13.203 19.8196-5.612-9.0588c.759-.3844 1.41-.9059 1.979-1.5648.624-.7411 1.085-1.5647 1.356-2.498.271-.9059.406-1.8118.406-2.7725 0-1.1255-.189-2.1687-.623-3.2118-.407-.9333-.976-1.702-1.735-2.3608-.787-.6863-1.708-1.1804-2.684-1.4823-1.139-.3569-2.305-.5216-3.498-.4942h-6.506v23.4432h3.714v-8.1255h3.714l5.205 8.1529h4.284z"/><path d="m186.717 84.2819c.326-.6314.759-1.1255 1.356-1.5098.596-.3843 1.247-.549 1.979-.549.922 0 1.654.247 2.196.7137.488.4392.84.9608 1.057 1.5647l-7.021 2.5255c0-.1647 0-.3569 0-.549 0-.7961.135-1.5373.488-2.251zm5.179 6.3137c-.516.1922-1.031.302-1.573.2745-.732 0-1.437-.1647-2.087-.549-.516-.302-.949-.7137-1.275-1.2078l10.303-3.5412c-.407-1.9765-1.193-3.4863-2.386-4.5843-1.193-1.0981-2.711-1.6196-4.555-1.6196-1.355 0-2.63.3019-3.823.9882-1.138.6314-2.06 1.5098-2.765 2.6353-.678 1.1255-1.03 2.3608-1.003 3.6784 0 1.3177.271 2.5804.895 3.7608.596 1.1255 1.464 1.9765 2.575 2.5804 1.274.6588 2.63.9608 4.067.9333.813 0 1.599-.1372 2.386-.4117.813-.2471 1.572-.604 2.304-1.0706l-1.627-2.6628c-.433.302-.921.5765-1.436.7687z"/><path d="m219.602 87.4665c-.298-.4941-.705-.9059-1.193-1.2353-.542-.3569-1.112-.6314-1.735-.7961-.488-.1647-.976-.3294-1.464-.4941-.434-.1098-.841-.3294-1.193-.6039-.325-.2745-.488-.6039-.461-1.0432 0-.2745.081-.5215.298-.7411s.461-.3844.732-.4942c.326-.1372.678-.1647 1.003-.1372.488.0274.949.1372 1.41.3294.515.1922.949.4941 1.356.8784l1.355-2.196c-.65-.4942-1.355-.8785-2.114-1.1255-.868-.2471-1.736-.3569-2.657-.3569-.976-.0274-1.925.1647-2.793.6314-.705.3843-1.247.9333-1.654 1.6196-.352.6314-.542 1.3176-.542 2.0314 0 .9058.271 1.7294.868 2.4431.569.6863 1.437 1.2353 2.575 1.6196.543.1373 1.031.302 1.491.4667.407.1372.787.3294 1.139.6039.325.2745.461.6039.434 1.0157 0 .3294-.081.6313-.298.8784-.217.2196-.488.3843-.787.4667-.352.1098-.732.1372-1.084.1372-.596 0-1.139-.1372-1.654-.4117-.65-.3294-1.247-.7412-1.762-1.2628l-1.491 2.0314c.623.7412 1.41 1.2627 2.304 1.6196.949.3569 1.898.549 2.901.549 1.058.0275 2.088-.1647 3.037-.6313.759-.3844 1.382-.9608 1.816-1.7295.407-.7137.597-1.4823.597-2.3058 0-.6314-.136-1.2353-.461-1.7844z"/><path d="m236.682 84.2819c.325-.6314.759-1.1255 1.356-1.5098.596-.3843 1.247-.549 1.952-.549.922 0 1.654.247 2.196.7137.488.4392.84.9608 1.057 1.5647l-7.022 2.5255c0-.1647 0-.3569 0-.549 0-.7961.136-1.5373.488-2.251zm5.178 6.3137c-.515.1922-1.03.302-1.572.2745-.732 0-1.437-.1647-2.088-.549-.515-.302-.949-.7137-1.274-1.2078l10.302-3.5412c-.406-1.9765-1.192-3.4863-2.385-4.5843-1.193-1.0981-2.711-1.6196-4.555-1.6196-1.356 0-2.63.3019-3.823.9882-1.138.6314-2.06 1.5098-2.765 2.6353-.678 1.1255-1.03 2.3608-1.003 3.6784 0 1.3177.271 2.5804.894 3.7608.597 1.1255 1.464 1.9765 2.576 2.5804 1.274.6588 2.63.9608 4.067.9333.813 0 1.599-.1372 2.386-.4117.813-.2471 1.572-.604 2.304-1.0706l-1.627-2.6628c-.433.302-.921.5765-1.437.7687z"/><path d="m270.247 89.6632c-.352.4392-.813.7686-1.328.9882-.569.247-1.166.3569-1.762.3569-.732 0-1.41-.1922-2.034-.5765-.488-.302-.894-.6863-1.22-1.153-.325-.4666-.569-.9882-.732-1.5372-.135-.549-.19-1.1255-.108-1.702.081-.5764.244-1.1255.515-1.6196.352-.6314.84-1.1529 1.464-1.5098s1.301-.549 2.006-.549c.624 0 1.22.1098 1.79.3569.542.2196.976.549 1.382.9882.38.4118.651.9059.814 1.4549v2.9647c-.163.5765-.434 1.0706-.814 1.5373zm1.085-9.6628-.271 1.8667c-.488-.6863-1.058-1.2353-1.763-1.6745-.786-.5216-1.843-.7961-3.117-.7961-1.193 0-2.305.3019-3.335.9059-1.057.6313-1.871 1.4823-2.467 2.5529-.651 1.2353-.976 2.553-.922 3.9804 0 1.5647.298 2.8824.895 3.9529.569 1.0432 1.382 1.8393 2.413 2.3883 1.057.549 2.196.8235 3.416.7961.732 0 1.437-.1099 2.114-.3569.57-.2196 1.085-.4941 1.573-.8784.379-.2745.732-.604 1.057-.9608.054-.0549.109-.1098.136-.1647v1.9764h3.551v-13.6156h-3.253z"/><path d="m296.272 79.8621c-.759.3568-1.437.796-2.06 1.3451-.624.549-1.112 1.1804-1.464 1.949l-.272-3.1569h-3.199v13.6157h3.525v-5.8471c0-.8784.217-1.6745.65-2.4156.434-.7412 1.004-1.3451 1.736-1.7844.813-.4666 1.708-.6588 2.657-.549l.162-3.596c-.596.0274-1.166.1921-1.708.4666z"/><path d="m318.993 90.7611c-.488.1647-.976.2471-1.492.2471-.786 0-1.491-.1647-2.168-.549-.624-.3844-1.112-.8785-1.465-1.5373-.352-.6588-.542-1.3725-.542-2.1137 0-.7687.163-1.4824.515-2.1687.326-.6313.787-1.1254 1.383-1.5098.597-.3568 1.247-.549 1.925-.549.651 0 1.247.1098 1.844.3843.488.1922.921.4667 1.328.7961l1.735-2.3608c-.651-.5764-1.41-.9882-2.223-1.2627-.976-.3294-1.979-.4941-3.009-.4667-1.22 0-2.359.2745-3.444.851-1.111.5765-1.979 1.4-2.656 2.4706-.705 1.1804-1.031 2.4431-1.004 3.8431-.027 1.3726.272 2.6353.949 3.8157.624 1.0706 1.519 1.9216 2.603 2.4706 1.22.6314 2.521.9059 3.904.8784.895 0 1.735-.1372 2.576-.4392.786-.247 1.518-.6588 2.169-1.1804l-1.79-2.251c-.379.2745-.759.4942-1.22.6589z"/><path d="m347.324 80.548c-.895-.796-1.952-1.1803-3.145-1.1254-1.166-.0275-2.25.247-3.254.8509-.84.5216-1.518 1.2079-2.006 2.0589v-13.8353h-3.497v25.1176h3.551v-6.0392c0-.9059.136-1.7569.488-2.5804.299-.7137.732-1.3451 1.356-1.8118.569-.4666 1.22-.6862 1.925-.6862.786 0 1.356.247 1.708.6588.38.4941.569 1.0431.569 1.647v8.8118h3.552v-10.1019c0-1.1804-.407-2.1687-1.274-2.9648z"/></g></svg>