<svg fill="none" height="32" viewBox="0 0 56 32" width="56" xmlns="http://www.w3.org/2000/svg"><rect height="31" rx="15.5" stroke="#2965ff" width="55" x=".5" y=".5"/><path d="m18.672 21.096c-.8853 0-1.6213-.1813-2.208-.544-.576-.3733-1.008-.8853-1.296-1.536-.2773-.6507-.416-1.3867-.416-2.208 0-.8.144-1.5253.432-2.176.2987-.6613.7467-1.184 1.344-1.568.608-.3947 1.376-.592 2.304-.592.576 0 1.088.096 1.536.288.4587.192.8373.4747 1.136.848.2987.3627.5067.8213.624 1.376h-1.392c-.16-.4693-.416-.8-.768-.992-.3413-.2027-.7467-.304-1.216-.304-.64 0-1.152.1493-1.536.448s-.6667.688-.848 1.168c-.1707.4693-.256.9707-.256 1.504 0 .5547.0907 1.0667.272 1.536s.464.848.848 1.136c.384.2773.88.416 1.488.416.448 0 .8693-.096 1.264-.288.4053-.192.672-.5333.8-1.024h1.408c-.1067.576-.336 1.0507-.688 1.424-.3413.3733-.7627.6507-1.264.832-.4907.1707-1.0133.256-1.568.256zm5.2438-.096v-8.432h1.312l.064 1.312c.2133-.3307.4586-.5973.736-.8.288-.2027.6026-.352.944-.448.352-.1067.7306-.16 1.136-.16h.208.224v1.28h-.496c-.6614 0-1.2.144-1.616.432-.4054.2773-.6987.656-.88 1.136-.1814.4693-.272.992-.272 1.568v4.112zm5.9687 0v-8.432h1.312l.064 1.008c.1813-.256.384-.464.608-.624.2347-.16.4907-.2773.768-.352.288-.0853.592-.128.912-.128.5867 0 1.0613.128 1.424.384.3627.2453.6347.5707.816.976.192-.288.4107-.5333.656-.736.256-.2027.5387-.3573.848-.464.32-.1067.672-.16 1.056-.16.6187 0 1.1147.1333 1.488.4.384.2667.6613.6293.832 1.088.1707.448.256.9547.256 1.52v5.52h-1.36v-4.832c0-.2773-.016-.56-.048-.848-.0213-.288-.0853-.5547-.192-.8-.1067-.256-.2667-.4587-.48-.608-.2027-.16-.4907-.24-.864-.24-.352 0-.6507.0853-.896.256-.2347.16-.4267.3787-.576.656s-.256.576-.32.896c-.064.3093-.096.6187-.096.928v4.592h-1.36v-4.848c0-.2667-.016-.544-.048-.832-.0213-.288-.08-.5547-.176-.8-.0853-.256-.2347-.4587-.448-.608-.2027-.16-.4853-.24-.848-.24-.512 0-.912.1493-1.2.448-.288.288-.4907.6453-.608 1.072-.1067.416-.16.8267-.16 1.232v4.576z" fill="#2965ff"/></svg>