<svg fill="none" height="32" viewBox="0 0 74 32" width="74" xmlns="http://www.w3.org/2000/svg"><rect height="31" rx="15.5" stroke="#2965ff" width="73" x=".5" y=".5"/><path d="m18.144 21.096c-.384 0-.7733-.0373-1.168-.112-.384-.0747-.7467-.2027-1.088-.384-.3307-.1813-.608-.4267-.832-.736s-.368-.6933-.432-1.152h1.376c.1067.288.2773.5227.512.704.2453.1707.5173.2933.816.368.3093.0747.6027.112.88.112.1707 0 .368-.0107.592-.032s.4373-.0693.64-.144c.2133-.0853.384-.208.512-.368.1387-.16.208-.384.208-.672 0-.2133-.048-.3893-.144-.528s-.2293-.2507-.4-.336c-.1707-.096-.3787-.1653-.624-.208-.5013-.1067-1.04-.208-1.616-.304-.5653-.096-1.0667-.2773-1.504-.544-.1493-.096-.288-.2027-.416-.32-.1173-.128-.2187-.2667-.304-.416-.0853-.16-.1547-.3307-.208-.512-.0427-.192-.064-.4-.064-.624 0-.416.08-.7733.24-1.072.1707-.3093.4053-.56.704-.752.2987-.2027.64-.352 1.024-.448.3947-.096.816-.144 1.264-.144.5547 0 1.0507.0907 1.488.272.448.1707.816.4267 1.104.768.288.3307.4587.7413.512 1.232h-1.264c-.0747-.3093-.2773-.56-.608-.752-.3307-.2027-.752-.304-1.264-.304-.1707 0-.3627.016-.576.048-.2133.0213-.416.0747-.608.16-.192.0747-.352.192-.48.352-.128.1493-.192.352-.192.608 0 .2347.0587.432.176.592.128.16.304.288.528.384s.48.176.768.24c.3733.0747.784.1547 1.232.24.448.0747.8.1547 1.056.24.3413.1067.624.256.848.448.2347.192.4053.4213.512.688.1173.2667.176.576.176.928 0 .5013-.1013.912-.304 1.232-.192.32-.4533.5707-.784.752s-.6987.3093-1.104.384c-.3947.0747-.7893.112-1.184.112zm7.7726 0c-.384 0-.7573-.048-1.12-.144-.352-.1067-.672-.2613-.96-.464-.2773-.2133-.5013-.4747-.672-.784-.16-.32-.24-.688-.24-1.104 0-.48.0854-.8853.256-1.216.1814-.3307.4214-.592.72-.784.2987-.192.6454-.3307 1.04-.416.3947-.0853.8054-.128 1.232-.128h2.48c0-.48-.0693-.896-.208-1.248-.128-.352-.3413-.624-.64-.816-.2986-.2027-.6933-.304-1.184-.304-.2986 0-.576.032-.832.096s-.4746.1653-.656.304c-.1813.1387-.3146.3253-.4.56h-1.456c.0747-.384.2187-.7093.432-.976.224-.2773.4907-.5013.8-.672.32-.1813.6614-.3147 1.024-.4.3627-.0853.7254-.128 1.088-.128 1.216 0 2.08.3573 2.592 1.072s.768 1.68.768 2.896v4.56h-1.136l-.08-1.072c-.2346.32-.5173.5653-.848.736-.3306.1707-.672.2827-1.024.336-.3413.064-.6666.096-.976.096zm.128-1.2c.5334 0 .992-.0853 1.376-.256.3947-.1813.6987-.4427.912-.784.2134-.3413.32-.7573.32-1.248v-.416h-1.488c-.352 0-.6986.0053-1.04.016-.3413.0107-.6506.0533-.928.128-.2773.0747-.5013.2027-.672.384-.16.1813-.24.4427-.24.784 0 .32.08.5813.24.784.1707.2027.3894.3573.656.464.2774.096.5654.144.864.144zm6.043 1.104v-8.432h1.312l.064 1.28c.192-.3093.4374-.5653.736-.768.2987-.2027.624-.352.976-.448.3627-.1067.7147-.16 1.056-.16.8214 0 1.4614.1707 1.92.512.4694.3413.8.8053.992 1.392.2027.576.304 1.232.304 1.968v4.656h-1.36v-4.288c0-.3947-.0266-.7733-.08-1.136-.0426-.3627-.1386-.688-.288-.976-.1386-.288-.3413-.512-.608-.672-.2666-.1707-.624-.256-1.072-.256-.5546 0-1.0293.1547-1.424.464-.384.3093-.6773.7253-.88 1.248-.192.5227-.288 1.1093-.288 1.76v3.856zm9.4532 0v-8.432h1.36v8.432zm.672-9.68c-.2774 0-.5014-.0853-.672-.256-.16-.1707-.24-.3893-.24-.656s.0853-.48.256-.64c.1706-.17067.3893-.256.656-.256.2453 0 .4586.08533.64.256.192.17067.288.384.288.64 0 .2667-.0907.4853-.272.656-.1814.1707-.4.256-.656.256zm5.996 9.776c-.8854 0-1.5094-.24-1.872-.72-.352-.48-.528-1.1627-.528-2.048v-4.56h-1.376v-1.2h1.376v-2.528h1.36v2.528h2.592v1.2h-2.592v4.384c0 .32.0266.6133.08.88.0533.256.1653.464.336.624.1706.1493.4266.2293.768.24.2453 0 .4586-.0427.64-.128.192-.0853.352-.1867.48-.304l.592.992c-.1814.1493-.3734.272-.576.368-.192.096-.3947.1653-.608.208-.2027.0427-.4267.064-.672.064zm6.8877 3.68c-.6507 0-1.28-.0907-1.888-.272-.5973-.1813-1.136-.496-1.616-.944l.592-1.072c.416.3307.8587.592 1.328.784.48.192.9813.288 1.504.288.8747 0 1.4987-.256 1.872-.768.384-.5013.576-1.1413.576-1.92v-1.008c-.192.288-.4373.528-.736.72-.288.1813-.608.32-.96.416-.352.0853-.7147.128-1.088.128-.832 0-1.488-.1653-1.968-.496s-.8213-.7893-1.024-1.376-.304-1.264-.304-2.032v-4.656h1.36v4.272c0 .384.0213.7627.064 1.136.0533.3627.1547.6933.304.992.1493.288.368.5227.656.704.288.1707.672.256 1.152.256.608 0 1.0933-.1493 1.456-.448.3733-.2987.64-.6987.8-1.2.1707-.5013.256-1.056.256-1.664v-4.048h1.36v8.432c0 .608-.08 1.1467-.24 1.616s-.4.864-.72 1.184-.7093.56-1.168.72c-.448.1707-.9707.256-1.568.256z" fill="#2965ff"/></svg>