<svg fill="none" height="32" viewBox="0 0 81 32" width="81" xmlns="http://www.w3.org/2000/svg"><rect height="31" rx="15.5" stroke="#2965ff" width="80" x=".5" y=".5"/><path d="m15.888 21v-7.232h-1.376v-1.2h1.376v-.896c0-.6293.0853-1.1413.256-1.536.1813-.40533.464-.704.848-.896.3947-.192.912-.288 1.552-.288h.96v1.2h-.816c-.384 0-.6827.064-.896.192-.2027.128-.3467.32-.432.576-.0747.2453-.112.5493-.112.912v.736h2.256v1.2h-2.256v7.232zm5.0434 0v-8.432h1.36v8.432zm.672-9.68c-.2774 0-.5014-.0853-.672-.256-.16-.1707-.24-.3893-.24-.656s.0853-.48.256-.64c.1706-.17067.3893-.256.656-.256.2453 0 .4586.08533.64.256.192.17067.288.384.288.64 0 .2667-.0907.4853-.272.656-.1814.1707-.4.256-.656.256zm2.828 9.68v-8.432h1.312l.064 1.28c.192-.3093.4373-.5653.736-.768.2986-.2027.624-.352.976-.448.3626-.1067.7146-.16 1.056-.16.8213 0 1.4613.1707 1.92.512.4693.3413.8.8053.992 1.392.2026.576.304 1.232.304 1.968v4.656h-1.36v-4.288c0-.3947-.0267-.7733-.08-1.136-.0427-.3627-.1387-.688-.288-.976-.1387-.288-.3414-.512-.608-.672-.2667-.1707-.624-.256-1.072-.256-.5547 0-1.0294.1547-1.424.464-.384.3093-.6774.7253-.88 1.248-.192.5227-.288 1.1093-.288 1.76v3.856zm12.6211.096c-.8853 0-1.5093-.24-1.872-.72-.352-.48-.528-1.1627-.528-2.048v-4.56h-1.376v-1.2h1.376v-2.528h1.36v2.528h2.592v1.2h-2.592v4.384c0 .32.0267.6133.08.88.0533.256.1653.464.336.624.1707.1493.4267.2293.768.24.2453 0 .4587-.0427.64-.128.192-.0853.352-.1867.48-.304l.592.992c-.1813.1493-.3733.272-.576.368-.192.096-.3947.1653-.608.208-.2027.0427-.4267.064-.672.064zm6.8238 0c-.896 0-1.6374-.1813-2.224-.544-.5867-.3733-1.024-.8853-1.312-1.536s-.432-1.392-.432-2.224c0-.8427.1493-1.584.448-2.224.3093-.6507.7573-1.1627 1.344-1.536.5866-.3733 1.3066-.56 2.1599-.56.6614 0 1.2267.128 1.6961.384.48.2453.8746.576 1.184.992.3093.416.5333.8747.672 1.376.1386.4907.1973.9867.176 1.488-.0107.096-.0214.192-.032.288 0 .096-.0054.192-.016.288h-6.256c.0426.4907.1653.9333.368 1.328.2026.3947.4906.7093.864.944.3733.224.8373.336 1.392.336.2773 0 .5546-.032.832-.096.288-.0747.544-.1973.768-.368.2346-.1707.4-.4.496-.688h1.392c-.128.544-.368.992-.72 1.344-.352.3413-.7734.5973-1.264.768-.4907.16-1.0027.24-1.536.24zm-2.56-4.992h4.88c-.0107-.48-.1174-.9013-.32-1.264-.2027-.3627-.48-.6453-.832-.848-.3414-.2027-.752-.304-1.232-.304-.5227 0-.9654.112-1.328.336-.352.224-.624.5173-.816.88s-.3094.7627-.352 1.2zm11.8401 4.992c-.8854 0-1.6214-.1813-2.208-.544-.576-.3733-1.008-.8853-1.296-1.536-.2774-.6507-.416-1.3867-.416-2.208 0-.8.144-1.5253.432-2.176.2986-.6613.7466-1.184 1.344-1.568.608-.3947 1.376-.592 2.304-.592.576 0 1.088.096 1.536.288.4586.192.8373.4747 1.136.848.2986.3627.5066.8213.624 1.376h-1.392c-.16-.4693-.416-.8-.768-.992-.3414-.2027-.7467-.304-1.216-.304-.64 0-1.152.1493-1.536.448s-.6667.688-.848 1.168c-.1707.4693-.256.9707-.256 1.504 0 .5547.0906 1.0667.272 1.536.1813.4693.464.848.848 1.136.384.2773.88.416 1.488.416.448 0 .8693-.096 1.264-.288.4053-.192.672-.5333.8-1.024h1.408c-.1067.576-.336 1.0507-.688 1.424-.3414.3733-.7627.6507-1.264.832-.4907.1707-1.0134.256-1.568.256zm5.2437-.096v-11.312h1.36v4.176c.2027-.2987.448-.5493.736-.752.2987-.2133.624-.3733.976-.48s.7147-.16 1.088-.16c.8214 0 1.4614.1707 1.92.512.4694.3413.8.8053.992 1.392.192.576.288 1.2373.288 1.984v4.64h-1.36v-4.224c0-.3733-.0266-.7413-.08-1.104-.0426-.3733-.1333-.7093-.272-1.008-.1386-.2987-.352-.5387-.64-.72-.2773-.1813-.656-.272-1.136-.272-.4586 0-.8533.1013-1.184.304-.32.2027-.576.4747-.768.816-.192.3307-.336.6987-.432 1.104-.0853.3947-.128.784-.128 1.168v3.936z" fill="#2965ff"/></svg>