<svg fill="none" height="120" viewBox="0 0 476 120" width="476" xmlns="http://www.w3.org/2000/svg"><g fill="#fff"><path clip-rule="evenodd" d="m111.375 52.0707c0-24.1379 17.964-41.0082 38.351-41.0082 19.571 0 38.357 16.1507 38.357 41.0082 0 25.477-19.899 40.808-38.357 40.808-19.223 0-38.351-15.9791-38.351-40.808zm16.514-.0381c0 15.8028 10.904 25.9726 21.837 25.9726 10.51 0 21.838-9.76 21.838-25.9726 0-15.8124-10.695-26.0966-21.838-26.0966-11.608 0-21.837 10.737-21.837 26.0966zm277.211 10.1889v-51.159h-16.519v51.1208c0 10.3986-8.337 15.8219-15.729 15.8219s-15.825-5.6615-15.825-15.8219v-47.6896c0-.91-.36-1.7827-1.002-2.4262s-1.512-1.005-2.42-1.005h-13.11v51.159c0 18.9338 16.637 30.6572 32.357 30.6572s32.248-11.833 32.248-30.6572zm21.443-.1859c-.026-2.2055.387-4.394 1.216-6.4373.828-2.0434 2.055-3.9004 3.608-5.4622 1.554-1.5619 3.403-2.7972 5.438-3.6336 2.036-.8363 4.218-1.2569 6.418-1.2371 8.514 0 16.685 6.6052 16.685 16.7702 0 10.4129-8.656 16.6797-16.685 16.6797-8.361 0-16.68-6.5289-16.68-16.6797zm16.68 29.9186c17.64 0 32.324-12.5574 32.324-29.7375 0-16.103-13.909-30.1854-32.324-30.1854-6.453.0505-12.705 2.2556-17.769 6.2668-.281-1.236-.972-2.34-1.96-3.1319-.987-.7918-2.213-1.225-3.478-1.2287h-8.642v80.0625h15.06v-27.593s6.255 5.5472 16.789 5.5472zm-134.61-45.8119c-5.999 0-11.166 4.8133-11.166 14.2206v30.7621h-15.059v-57.1875h7.467c1.26.0003 2.482.4275 3.468 1.2122.987.7847 1.679 1.8809 1.966 3.1102 3.935-3.9498 9.263-6.1875 14.831-6.2286 16.086 0 24.718 9.9982 24.718 28.3316v30.7621h-11.632c-.908 0-1.778-.3615-2.42-1.005s-1.002-1.5162-1.002-2.4263v-27.3308c0-8.8831-4.298-14.2206-11.171-14.2206zm-61.515 44.9825h12.834l16.69-57.1875h-15.796l-8.87 35.8613-10.363-35.8613h-16.019l-9.74 35.8613-9.127-33.3594c-.2-.7247-.631-1.3637-1.228-1.8191s-1.326-.7019-2.076-.7019h-13.058l16.951 57.1875h15.639l11.019-37.8248 9.845 35.3371c.202.7213.633 1.3566 1.229 1.8091s1.322.6975 2.07.6977z" fill-rule="evenodd"/><path d="m1.48469 33.1126c-.932805.6836-1.48469 1.7756-1.48469 2.9377v23.6433c0 1.4844 1.67134 2.342 2.86277 1.4689l36.79343-26.9619 36.7935 26.9619c1.1915.8731 2.8628.0155 2.8628-1.4689v-23.6433c0-1.1621-.5519-2.2541-1.4847-2.9377l-36.0511-26.41784c-1.2642-.92635-2.9767-.92635-4.2409 0z"/><path d="m52.2741 72.3414v16.3461h-25.2357v-16.3461c0-7.0215 5.6492-12.7136 12.6178-12.7136 6.9687 0 12.6179 5.6921 12.6179 12.7136z"/></g></svg>