<svg fill="none" height="32" viewBox="0 0 98 32" width="98" xmlns="http://www.w3.org/2000/svg"><rect height="31" rx="15.5" stroke="#06038d" width="97" x=".5" y=".5"/><path d="m15.072 21v-8.432h1.312l.064 1.008c.1813-.256.384-.464.608-.624.2347-.16.4907-.2773.768-.352.288-.0853.592-.128.912-.128.5867 0 1.0613.128 1.424.384.3627.2453.6347.5707.816.976.192-.288.4107-.5333.656-.736.256-.2027.5387-.3573.848-.464.32-.1067.672-.16 1.056-.16.6187 0 1.1147.1333 1.488.4.384.2667.6613.6293.832 1.088.1707.448.256.9547.256 1.52v5.52h-1.36v-4.832c0-.2773-.016-.56-.048-.848-.0213-.288-.0853-.5547-.192-.8-.1067-.256-.2667-.4587-.48-.608-.2027-.16-.4907-.24-.864-.24-.352 0-.6507.0853-.896.256-.2347.16-.4267.3787-.576.656s-.256.576-.32.896c-.064.3093-.096.6187-.096.928v4.592h-1.36v-4.848c0-.2667-.016-.544-.048-.832-.0213-.288-.08-.5547-.176-.8-.0853-.256-.2347-.4587-.448-.608-.2027-.16-.4853-.24-.848-.24-.512 0-.912.1493-1.2.448-.288.288-.4907.6453-.608 1.072-.1067.416-.16.8267-.16 1.232v4.576zm13.1094 0v-8.432h1.36v8.432zm.672-9.68c-.2774 0-.5014-.0853-.672-.256-.16-.1707-.24-.3893-.24-.656s.0853-.48.256-.64c.1706-.17067.3893-.256.656-.256.2453 0 .4586.08533.64.256.192.17067.288.384.288.64 0 .2667-.0907.4853-.272.656-.1814.1707-.4.256-.656.256zm6.492 13.456c-.576 0-1.1094-.0907-1.6-.272-.4907-.1707-.9067-.4427-1.248-.816-.3414-.3733-.5707-.848-.688-1.424h1.408c.0853.32.2453.576.48.768.2346.192.5066.3253.816.4.3093.0853.6133.128.912.128.576 0 1.04-.1173 1.392-.352.3626-.224.624-.5387.784-.944.16-.3947.24-.848.24-1.36v-1.168c-.1814.32-.4214.5813-.72.784-.2987.2027-.624.352-.976.448-.352.0853-.7147.128-1.088.128-.8534 0-1.552-.1867-2.096-.56-.544-.384-.9494-.896-1.216-1.536-.256-.6507-.384-1.3813-.384-2.192s.1333-1.5413.4-2.192c.2666-.6613.6773-1.184 1.232-1.568.5546-.384 1.264-.576 2.128-.576.4906 0 .9866.0907 1.488.272.5013.1813.912.4747 1.232.88l.064-1.056h1.296v8.368c0 .7893-.144 1.472-.432 2.048-.2774.576-.704 1.0187-1.28 1.328-.5654.3093-1.28.464-2.144.464zm-.096-4.88c.5653 0 1.04-.144 1.424-.432s.6773-.672.88-1.152c.2026-.48.304-1.0027.304-1.568 0-.5867-.1014-1.1093-.304-1.568-.192-.4587-.48-.8213-.864-1.088s-.8694-.4-1.456-.4c-.608 0-1.0987.1387-1.472.416-.3627.2773-.6294.6507-.8 1.12-.16.4693-.24.992-.24 1.568 0 .5973.0853 1.1307.256 1.6.1706.4693.4426.8373.816 1.104.3733.2667.8586.4 1.456.4zm6.0882 1.104v-8.432h1.312l.064 1.312c.2134-.3307.4587-.5973.736-.8.288-.2027.6027-.352.944-.448.352-.1067.7307-.16 1.136-.16h.208.224v1.28h-.496c-.6613 0-1.2.144-1.616.432-.4053.2773-.6986.656-.88 1.136-.1813.4693-.272.992-.272 1.568v4.112zm8.6728.096c-.384 0-.7574-.048-1.12-.144-.352-.1067-.672-.2613-.96-.464-.2774-.2133-.5014-.4747-.672-.784-.16-.32-.24-.688-.24-1.104 0-.48.0853-.8853.256-1.216.1813-.3307.4213-.592.72-.784.2986-.192.6453-.3307 1.04-.416.3946-.0853.8053-.128 1.232-.128h2.48c0-.48-.0694-.896-.208-1.248-.128-.352-.3414-.624-.64-.816-.2987-.2027-.6934-.304-1.184-.304-.2987 0-.576.032-.832.096s-.4747.1653-.656.304c-.1814.1387-.3147.3253-.4.56h-1.456c.0746-.384.2186-.7093.432-.976.224-.2773.4906-.5013.8-.672.32-.1813.6613-.3147 1.024-.4.3626-.0853.7253-.128 1.088-.128 1.216 0 2.08.3573 2.592 1.072s.768 1.68.768 2.896v4.56h-1.136l-.08-1.072c-.2347.32-.5174.5653-.848.736-.3307.1707-.672.2827-1.024.336-.3414.064-.6667.096-.976.096zm.128-1.2c.5333 0 .992-.0853 1.376-.256.3946-.1813.6986-.4427.912-.784.2133-.3413.32-.7573.32-1.248v-.416h-1.488c-.352 0-.6987.0053-1.04.016-.3414.0107-.6507.0533-.928.128-.2774.0747-.5014.2027-.672.384-.16.1813-.24.4427-.24.784 0 .32.08.5813.24.784.1706.2027.3893.3573.656.464.2773.096.5653.144.864.144zm9.467 1.104c-.64 0-1.1574-.096-1.552-.288-.384-.192-.6667-.4907-.848-.896-.1707-.4053-.256-.9173-.256-1.536v-4.512h-1.376v-1.2h1.376v-2.512h1.36v2.512h2.256v1.2h-2.256v4.368c0 .576.1013 1.0027.304 1.28.2133.2667.64.4 1.28.4h.624v1.184zm2.4979 0v-8.432h1.36v8.432zm.672-9.68c-.2774 0-.5014-.0853-.672-.256-.16-.1707-.24-.3893-.24-.656s.0853-.48.256-.64c.1706-.17067.3893-.256.656-.256.2453 0 .4586.08533.64.256.192.17067.288.384.288.64 0 .2667-.0907.4853-.272.656-.1814.1707-.4.256-.656.256zm6.508 9.776c-.8854 0-1.6267-.1813-2.224-.544-.5974-.3733-1.0454-.8853-1.344-1.536-.288-.6507-.432-1.392-.432-2.224 0-.8427.1493-1.584.448-2.224.2986-.6507.7466-1.1627 1.344-1.536.5973-.3733 1.344-.56 2.24-.56.8853 0 1.6213.1867 2.208.56.5973.3733 1.04.8853 1.328 1.536.2986.64.448 1.3813.448 2.224 0 .832-.1494 1.5733-.448 2.224-.2987.6507-.7467 1.1627-1.344 1.536-.5867.3627-1.328.544-2.224.544zm0-1.2c.6186 0 1.12-.1387 1.504-.416.3946-.2773.6826-.6507.864-1.12.192-.4693.288-.992.288-1.568s-.096-1.0987-.288-1.568c-.1814-.4693-.4694-.8427-.864-1.12-.384-.2773-.8854-.416-1.504-.416-.608 0-1.1094.1387-1.504.416-.384.2773-.672.6507-.864 1.12-.1814.4693-.2721.992-.2721 1.568s.0907 1.0987.2721 1.568c.192.4693.48.8427.864 1.12.3946.2773.896.416 1.504.416zm5.8356 1.104v-8.432h1.312l.064 1.28c.192-.3093.4373-.5653.736-.768.2986-.2027.624-.352.976-.448.3626-.1067.7146-.16 1.056-.16.8213 0 1.4613.1707 1.92.512.4693.3413.8.8053.992 1.392.2026.576.304 1.232.304 1.968v4.656h-1.36v-4.288c0-.3947-.0267-.7733-.08-1.136-.0427-.3627-.1387-.688-.288-.976-.1387-.288-.3414-.512-.608-.672-.2667-.1707-.624-.256-1.072-.256-.5547 0-1.0294.1547-1.424.464-.384.3093-.6774.7253-.88 1.248-.192.5227-.288 1.1093-.288 1.76v3.856z" fill="#06038d"/></svg>