<svg fill="none" height="32" viewBox="0 0 106 32" width="106" xmlns="http://www.w3.org/2000/svg"><rect height="31" rx="15.5" stroke="#7ee100" width="105" x=".5" y=".5"/><path d="m17.776 21.096c-.384 0-.7573-.048-1.12-.144-.352-.1067-.672-.2613-.96-.464-.2773-.2133-.5013-.4747-.672-.784-.16-.32-.24-.688-.24-1.104 0-.48.0853-.8853.256-1.216.1813-.3307.4213-.592.72-.784s.6453-.3307 1.04-.416.8053-.128 1.232-.128h2.48c0-.48-.0693-.896-.208-1.248-.128-.352-.3413-.624-.64-.816-.2987-.2027-.6933-.304-1.184-.304-.2987 0-.576.032-.832.096s-.4747.1653-.656.304-.3147.3253-.4.56h-1.456c.0747-.384.2187-.7093.432-.976.224-.2773.4907-.5013.8-.672.32-.1813.6613-.3147 1.024-.4s.7253-.128 1.088-.128c1.216 0 2.08.3573 2.592 1.072s.768 1.68.768 2.896v4.56h-1.136l-.08-1.072c-.2347.32-.5173.5653-.848.736s-.672.2827-1.024.336c-.3413.064-.6667.096-.976.096zm.128-1.2c.5333 0 .992-.0853 1.376-.256.3947-.1813.6987-.4427.912-.784s.32-.7573.32-1.248v-.416h-1.488c-.352 0-.6987.0053-1.04.016s-.6507.0533-.928.128-.5013.2027-.672.384c-.16.1813-.24.4427-.24.784 0 .32.08.5813.24.784.1707.2027.3893.3573.656.464.2773.096.5653.144.864.144zm10.027 1.2c-.384 0-.7413-.0427-1.072-.128-.32-.096-.6133-.2293-.88-.4-.256-.1707-.48-.368-.672-.592l-.064 1.024h-1.296v-11.312h1.36v4.096c.2773-.4267.672-.752 1.184-.976.5227-.224 1.056-.336 1.6-.336.8533 0 1.552.192 2.096.576.544.3733.944.8853 1.2 1.536.2667.64.4 1.3653.4 2.176 0 .8-.1387 1.5307-.416 2.192-.2773.6507-.6987 1.1733-1.264 1.568-.5653.384-1.2907.576-2.176.576zm-.016-1.2c.6187 0 1.1093-.1387 1.472-.416.3627-.288.624-.6667.784-1.136.1707-.4693.256-.9867.256-1.552 0-.576-.0853-1.0987-.256-1.568-.16-.4693-.4267-.8427-.8-1.12s-.8693-.416-1.488-.416c-.5547 0-1.0293.1547-1.424.464-.384.3093-.6773.704-.88 1.184s-.304.9707-.304 1.472c0 .544.0853 1.0507.256 1.52.1813.4693.464.848.848 1.136.3947.288.9067.432 1.536.432zm5.8003-2.784v-1.248h4.96v1.248zm10.3841 3.984c-.8854 0-1.5094-.24-1.872-.72-.352-.48-.528-1.1627-.528-2.048v-4.56h-1.376v-1.2h1.376v-2.528h1.36v2.528h2.592v1.2h-2.592v4.384c0 .32.0266.6133.08.88.0533.256.1653.464.336.624.1706.1493.4266.2293.768.24.2453 0 .4586-.0427.64-.128.192-.0853.352-.1867.48-.304l.592.992c-.1814.1493-.3734.272-.576.368-.192.096-.3947.1653-.608.208-.2027.0427-.4267.064-.672.064zm6.8237 0c-.896 0-1.6373-.1813-2.224-.544-.5866-.3733-1.024-.8853-1.312-1.536s-.432-1.392-.432-2.224c0-.8427.1494-1.584.448-2.224.3094-.6507.7574-1.1627 1.344-1.536.5867-.3733 1.3067-.56 2.16-.56.6614 0 1.2267.128 1.696.384.48.2453.8747.576 1.184.992.3094.416.5334.8747.672 1.376.1387.4907.1974.9867.176 1.488-.0106.096-.0213.192-.032.288 0 .096-.0053.192-.016.288h-6.256c.0427.4907.1654.9333.368 1.328.2027.3947.4907.7093.864.944.3734.224.8374.336 1.392.336.2774 0 .5547-.032.832-.096.288-.0747.544-.1973.768-.368.2347-.1707.4-.4.496-.688h1.392c-.128.544-.368.992-.72 1.344-.352.3413-.7733.5973-1.264.768-.4906.16-1.0026.24-1.536.24zm-2.56-4.992h4.88c-.0106-.48-.1173-.9013-.32-1.264-.2026-.3627-.48-.6453-.832-.848-.3413-.2027-.752-.304-1.232-.304-.5226 0-.9653.112-1.328.336-.352.224-.624.5173-.816.88s-.3093.7627-.352 1.2zm11.1559 4.992c-.384 0-.7733-.0373-1.168-.112-.384-.0747-.7467-.2027-1.088-.384-.3307-.1813-.608-.4267-.832-.736s-.368-.6933-.432-1.152h1.376c.1067.288.2773.5227.512.704.2453.1707.5173.2933.816.368.3093.0747.6027.112.88.112.1707 0 .368-.0107.592-.032s.4373-.0693.64-.144c.2133-.0853.384-.208.512-.368.1387-.16.208-.384.208-.672 0-.2133-.048-.3893-.144-.528s-.2293-.2507-.4-.336c-.1707-.096-.3787-.1653-.624-.208-.5013-.1067-1.04-.208-1.616-.304-.5653-.096-1.0667-.2773-1.504-.544-.1493-.096-.288-.2027-.416-.32-.1173-.128-.2187-.2667-.304-.416-.0853-.16-.1547-.3307-.208-.512-.0427-.192-.064-.4-.064-.624 0-.416.08-.7733.24-1.072.1707-.3093.4053-.56.704-.752.2987-.2027.64-.352 1.024-.448.3947-.096.816-.144 1.264-.144.5547 0 1.0507.0907 1.488.272.448.1707.816.4267 1.104.768.288.3307.4587.7413.512 1.232h-1.264c-.0747-.3093-.2773-.56-.608-.752-.3307-.2027-.752-.304-1.264-.304-.1707 0-.3627.016-.576.048-.2133.0213-.416.0747-.608.16-.192.0747-.352.192-.48.352-.128.1493-.192.352-.192.608 0 .2347.0587.432.176.592.128.16.304.288.528.384s.48.176.768.24c.3733.0747.784.1547 1.232.24.448.0747.8.1547 1.056.24.3413.1067.624.256.848.448.2347.192.4053.4213.512.688.1173.2667.176.576.176.928 0 .5013-.1013.912-.304 1.232-.192.32-.4533.5707-.784.752s-.6987.3093-1.104.384c-.3947.0747-.7893.112-1.184.112zm8.3364-.096c-.64 0-1.1574-.096-1.552-.288-.384-.192-.6667-.4907-.848-.896-.1707-.4053-.256-.9173-.256-1.536v-4.512h-1.376v-1.2h1.376v-2.512h1.36v2.512h2.256v1.2h-2.256v4.368c0 .576.1013 1.0027.304 1.28.2133.2667.64.4 1.28.4h.624v1.184zm2.4979 0v-8.432h1.36v8.432zm.672-9.68c-.2774 0-.5014-.0853-.672-.256-.16-.1707-.24-.3893-.24-.656s.0853-.48.256-.64c.1706-.17067.3893-.256.656-.256.2453 0 .4586.08533.64.256.192.17067.288.384.288.64 0 .2667-.0907.4853-.272.656-.1814.1707-.4.256-.656.256zm2.828 9.68v-8.432h1.312l.064 1.28c.192-.3093.4373-.5653.736-.768.2986-.2027.624-.352.976-.448.3626-.1067.7146-.16 1.056-.16.8213 0 1.4613.1707 1.92.512.4693.3413.8.8053.992 1.392.2026.576.304 1.232.304 1.968v4.656h-1.36v-4.288c0-.3947-.0267-.7733-.08-1.136-.0427-.3627-.1387-.688-.288-.976-.1387-.288-.3414-.512-.608-.672-.2667-.1707-.624-.256-1.072-.256-.5547 0-1.0294.1547-1.424.464-.384.3093-.6774.7253-.88 1.248-.192.5227-.288 1.1093-.288 1.76v3.856zm13.1171 3.776c-.576 0-1.1094-.0907-1.6-.272-.4907-.1707-.9067-.4427-1.248-.816-.3414-.3733-.5707-.848-.688-1.424h1.408c.0853.32.2453.576.48.768.2346.192.5066.3253.816.4.3093.0853.6133.128.912.128.576 0 1.04-.1173 1.392-.352.3626-.224.624-.5387.784-.944.16-.3947.24-.848.24-1.36v-1.168c-.1814.32-.4214.5813-.72.784-.2987.2027-.624.352-.976.448-.352.0853-.7147.128-1.088.128-.8534 0-1.552-.1867-2.096-.56-.544-.384-.9494-.896-1.216-1.536-.256-.6507-.384-1.3813-.384-2.192s.1333-1.5413.4-2.192c.2666-.6613.6773-1.184 1.232-1.568.5546-.384 1.264-.576 2.128-.576.4906 0 .9866.0907 1.488.272.5013.1813.912.4747 1.232.88l.064-1.056h1.296v8.368c0 .7893-.144 1.472-.432 2.048-.2774.576-.704 1.0187-1.28 1.328-.5654.3093-1.28.464-2.144.464zm-.096-4.88c.5653 0 1.04-.144 1.424-.432s.6773-.672.88-1.152c.2026-.48.304-1.0027.304-1.568 0-.5867-.1014-1.1093-.304-1.568-.192-.4587-.48-.8213-.864-1.088s-.8694-.4-1.456-.4c-.608 0-1.0987.1387-1.472.416-.3627.2773-.6294.6507-.8 1.12-.16.4693-.24.992-.24 1.568 0 .5973.0853 1.1307.256 1.6.1706.4693.4426.8373.816 1.104.3733.2667.8586.4 1.456.4z" fill="#7ee100"/></svg>