<svg fill="none" height="32" viewBox="0 0 105 32" width="105" xmlns="http://www.w3.org/2000/svg"><rect height="31" rx="15.5" stroke="#7ee100" width="104" x=".5" y=".5"/><path d="m18.72 21.096c-.896 0-1.6373-.1813-2.224-.544-.5867-.3733-1.024-.8853-1.312-1.536s-.432-1.392-.432-2.224c0-.8427.1493-1.584.448-2.224.3093-.6507.7573-1.1627 1.344-1.536s1.3067-.56 2.16-.56c.6613 0 1.2267.128 1.696.384.48.2453.8747.576 1.184.992s.5333.8747.672 1.376c.1387.4907.1973.9867.176 1.488-.0107.096-.0213.192-.032.288 0 .096-.0053.192-.016.288h-6.256c.0427.4907.1653.9333.368 1.328s.4907.7093.864.944c.3733.224.8373.336 1.392.336.2773 0 .5547-.032.832-.096.288-.0747.544-.1973.768-.368.2347-.1707.4-.4.496-.688h1.392c-.128.544-.368.992-.72 1.344-.352.3413-.7733.5973-1.264.768-.4907.16-1.0027.24-1.536.24zm-2.56-4.992h4.88c-.0107-.48-.1173-.9013-.32-1.264s-.48-.6453-.832-.848c-.3413-.2027-.752-.304-1.232-.304-.5227 0-.9653.112-1.328.336-.352.224-.624.5173-.816.88s-.3093.7627-.352 1.2zm8.0839 4.896v-8.432h1.312l.064 1.28c.192-.3093.4373-.5653.736-.768.2986-.2027.624-.352.976-.448.3626-.1067.7146-.16 1.056-.16.8213 0 1.4613.1707 1.92.512.4693.3413.8.8053.992 1.392.2026.576.304 1.232.304 1.968v4.656h-1.36v-4.288c0-.3947-.0267-.7733-.08-1.136-.0427-.3627-.1387-.688-.288-.976-.1387-.288-.3414-.512-.608-.672-.2667-.1707-.624-.256-1.072-.256-.5547 0-1.0294.1547-1.424.464-.384.3093-.6774.7253-.88 1.248-.192.5227-.288 1.1093-.288 1.76v3.856zm12.6211.096c-.8853 0-1.5093-.24-1.872-.72-.352-.48-.528-1.1627-.528-2.048v-4.56h-1.376v-1.2h1.376v-2.528h1.36v2.528h2.592v1.2h-2.592v4.384c0 .32.0267.6133.08.88.0533.256.1653.464.336.624.1707.1493.4267.2293.768.24.2453 0 .4587-.0427.64-.128.192-.0853.352-.1867.48-.304l.592.992c-.1813.1493-.3733.272-.576.368-.192.096-.3947.1653-.608.208-.2027.0427-.4267.064-.672.064zm6.8238 0c-.896 0-1.6374-.1813-2.224-.544-.5867-.3733-1.024-.8853-1.312-1.536s-.432-1.392-.432-2.224c0-.8427.1493-1.584.448-2.224.3093-.6507.7573-1.1627 1.344-1.536.5866-.3733 1.3066-.56 2.1599-.56.6614 0 1.2267.128 1.6961.384.48.2453.8746.576 1.184.992.3093.416.5333.8747.672 1.376.1386.4907.1973.9867.176 1.488-.0107.096-.0214.192-.032.288 0 .096-.0054.192-.016.288h-6.256c.0426.4907.1653.9333.368 1.328.2026.3947.4906.7093.864.944.3733.224.8373.336 1.392.336.2773 0 .5546-.032.832-.096.288-.0747.544-.1973.768-.368.2346-.1707.4-.4.496-.688h1.392c-.128.544-.368.992-.72 1.344-.352.3413-.7734.5973-1.264.768-.4907.16-1.0027.24-1.536.24zm-2.56-4.992h4.88c-.0107-.48-.1174-.9013-.32-1.264-.2027-.3627-.48-.6453-.832-.848-.3414-.2027-.752-.304-1.232-.304-.5227 0-.9654.112-1.328.336-.352.224-.624.5173-.816.88s-.3094.7627-.352 1.2zm8.0838 4.896v-8.432h1.312l.064 1.312c.2134-.3307.4587-.5973.736-.8.288-.2027.6027-.352.944-.448.352-.1067.7307-.16 1.136-.16h.208.224v1.28h-.496c-.6613 0-1.2.144-1.616.432-.4053.2773-.6986.656-.88 1.136-.1813.4693-.272.992-.272 1.568v4.112zm5.9688 3.04v-11.472h1.296l.064 1.264c.288-.4373.6773-.7733 1.168-1.008.5013-.2347 1.04-.352 1.616-.352.8533 0 1.552.192 2.096.576.544.3733.944.8853 1.2 1.536.2666.6507.4 1.3867.4 2.208s-.1334 1.5573-.4 2.208c-.2667.6507-.6774 1.1627-1.232 1.536-.5547.3733-1.264.56-2.128.56-.4267 0-.8107-.0427-1.152-.128-.3414-.096-.64-.2293-.896-.4-.256-.1813-.48-.3893-.672-.624v4.096zm3.968-4.144c.6186 0 1.1093-.1387 1.472-.416.3626-.288.624-.6667.784-1.136.1706-.4693.256-.9867.256-1.552 0-.576-.0854-1.0987-.256-1.568-.16-.4693-.4267-.8427-.8-1.12-.3734-.2773-.8694-.416-1.488-.416-.5547 0-1.0294.144-1.424.432-.384.2773-.6774.656-.88 1.136-.2027.4693-.304.9867-.304 1.552 0 .5867.096 1.1147.288 1.584s.4853.8373.88 1.104c.3946.2667.8853.4 1.472.4zm5.6882 1.104v-8.432h1.312l.064 1.312c.2134-.3307.4587-.5973.736-.8.288-.2027.6027-.352.944-.448.352-.1067.7307-.16 1.136-.16h.208.224v1.28h-.496c-.6613 0-1.2.144-1.616.432-.4053.2773-.6986.656-.88 1.136-.1813.4693-.272.992-.272 1.568v4.112zm5.9688 0v-8.432h1.36v8.432zm.672-9.68c-.2774 0-.5014-.0853-.672-.256-.16-.1707-.24-.3893-.24-.656s.0853-.48.256-.64c.1706-.17067.3893-.256.656-.256.2453 0 .4586.08533.64.256.192.17067.288.384.288.64 0 .2667-.0907.4853-.272.656-.1814.1707-.4.256-.656.256zm5.9 9.776c-.384 0-.7734-.0373-1.168-.112-.384-.0747-.7467-.2027-1.088-.384-.3307-.1813-.608-.4267-.832-.736s-.368-.6933-.432-1.152h1.376c.1066.288.2773.5227.512.704.2453.1707.5173.2933.816.368.3093.0747.6026.112.88.112.1706 0 .368-.0107.592-.032s.4373-.0693.64-.144c.2133-.0853.384-.208.512-.368.1386-.16.208-.384.208-.672 0-.2133-.048-.3893-.144-.528s-.2294-.2507-.4-.336c-.1707-.096-.3787-.1653-.624-.208-.5014-.1067-1.04-.208-1.616-.304-.5654-.096-1.0667-.2773-1.504-.544-.1494-.096-.288-.2027-.416-.32-.1174-.128-.2187-.2667-.304-.416-.0854-.16-.1547-.3307-.208-.512-.0427-.192-.064-.4-.064-.624 0-.416.08-.7733.24-1.072.1706-.3093.4053-.56.704-.752.2986-.2027.64-.352 1.024-.448.3946-.096.816-.144 1.264-.144.5546 0 1.0506.0907 1.488.272.448.1707.816.4267 1.104.768.288.3307.4586.7413.512 1.232h-1.264c-.0747-.3093-.2774-.56-.608-.752-.3307-.2027-.752-.304-1.264-.304-.1707 0-.3627.016-.576.048-.2134.0213-.416.0747-.608.16-.192.0747-.352.192-.48.352-.128.1493-.192.352-.192.608 0 .2347.0586.432.176.592.128.16.304.288.528.384s.48.176.768.24c.3733.0747.784.1547 1.232.24.448.0747.8.1547 1.056.24.3413.1067.624.256.848.448.2346.192.4053.4213.512.688.1173.2667.176.576.176.928 0 .5013-.1014.912-.304 1.232-.192.32-.4534.5707-.784.752-.3307.1813-.6987.3093-1.104.384-.3947.0747-.7894.112-1.184.112zm8.7166 0c-.896 0-1.6373-.1813-2.224-.544-.5867-.3733-1.024-.8853-1.312-1.536s-.432-1.392-.432-2.224c0-.8427.1493-1.584.448-2.224.3093-.6507.7573-1.1627 1.344-1.536s1.3067-.56 2.16-.56c.6613 0 1.2267.128 1.696.384.48.2453.8747.576 1.184.992s.5333.8747.672 1.376c.1387.4907.1973.9867.176 1.488-.0107.096-.0213.192-.032.288 0 .096-.0053.192-.016.288h-6.256c.0427.4907.1653.9333.368 1.328s.4907.7093.864.944c.3733.224.8373.336 1.392.336.2773 0 .5547-.032.832-.096.288-.0747.544-.1973.768-.368.2347-.1707.4-.4.496-.688h1.392c-.128.544-.368.992-.72 1.344-.352.3413-.7733.5973-1.264.768-.4907.16-1.0027.24-1.536.24zm-2.56-4.992h4.88c-.0107-.48-.1173-.9013-.32-1.264s-.48-.6453-.832-.848c-.3413-.2027-.752-.304-1.232-.304-.5227 0-.9653.112-1.328.336-.352.224-.624.5173-.816.88s-.3093.7627-.352 1.2z" fill="#7ee100"/></svg>