<svg fill="none" height="120" viewBox="0 0 476 120" width="476" xmlns="http://www.w3.org/2000/svg" xmlns:xlink="http://www.w3.org/1999/xlink"><clipPath id="a"><path d="m0 0h476v120h-476z"/></clipPath><g clip-path="url(#a)" fill="#fff"><path d="m147.937 48.5312h-5.851v26.4628h5.851z"/><path d="m183.699 56.3596c-.749-1.6809-1.778-3.1217-3.042-4.3704-1.124-1.1046-2.481-1.9691-4.073-2.5454-1.544-.6244-3.417-.9126-5.523-.9126h-5.711c-2.106 0-3.979.2882-5.524.9126-1.544.6243-2.902 1.4888-4.072 2.5454-1.311 1.2006-2.341 2.6895-3.043 4.3704-.749 1.6809-1.123 3.4579-1.123 5.379 0 1.729.281 3.4099.889 4.8987.562 1.4889 1.405 2.8816 2.434 4.0343 1.171 1.3447 2.669 2.4013 4.354 3.1697 1.685.7685 3.744 1.1527 6.085 1.1527h5.711c2.34 0 4.353-.3842 6.085-1.1527 1.685-.7684 3.136-1.825 4.353-3.1217 1.03-1.1526 1.873-2.5454 2.434-4.0342.562-1.4889.89-3.1698.89-4.8988 0-1.921-.375-3.7461-1.124-5.427zm-12.638 12.7751h-5.711c-1.404 0-2.575-.1921-3.558-.6243-.983-.4323-1.825-1.0086-2.48-1.729-.609-.6243-1.077-1.3928-1.405-2.2572-.327-.8645-.515-1.777-.515-2.6895 0-1.0566.188-2.0652.609-2.9777s.983-1.729 1.638-2.4013c.656-.6244 1.451-1.1047 2.341-1.4889.889-.3842 2.012-.5283 3.323-.5283h5.758c1.31 0 2.434.1921 3.323.5283.89.3362 1.685.8645 2.341 1.4889.702.6723 1.217 1.4888 1.638 2.4013s.609 1.9211.609 2.9777c0 .9605-.188 1.873-.515 2.6895-.328.8644-.796 1.5848-1.405 2.2572-.655.7204-1.497 1.3448-2.48 1.777-.89.3842-2.107.5763-3.511.5763z"/><path d="m256.441 49.0579c-1.17-.7684-2.622-1.1526-4.353-1.1526-1.826 0-3.277.3842-4.447 1.1526-1.124.7684-2.06 1.9691-2.809 3.554l-9.83 22.3324h6.787l.188-.5283 1.591-3.7941h17.133l1.685 3.8902.187.4802h6.647s-9.83-22.1883-9.924-22.3324c-.749-1.6329-1.685-2.8336-2.855-3.602zm-5.383 4.8027c.327-.1921.702-.2882 1.03-.2882.421 0 .795.0961 1.123.3362s.609.5763.796 1.0086l4.634 11.0941h-13.107l4.588-11.0941c.28-.4803.561-.8645.936-1.0566z"/><path d="m298.24 48.5285h-6.882l-.046.1441c-.047.1441-.094.2881-.141.3842l-8.051 19.3067c-.187.4803-.468.8165-.796 1.0566-.327.1921-.655.2882-1.03.2882-.327 0-.655-.0961-.936-.2882-.281-.2401-.562-.5763-.749-1.0085l-8.238-19.3068c-.047-.096-.188-.4322-.188-.5763h-.093-7.022s9.83 22.1403 9.924 22.3324c1.404 3.1698 3.745 4.6586 7.209 4.6586 1.779 0 3.276-.3842 4.4-1.1526.047-.048.093-.0481.14-.0961.047 0 .094-.048.094-.048 1.123-.7204 2.013-1.9211 2.715-3.4579 0 0 8.519-19.3068 9.783-22.2844z"/><path d="m308.63 54.3856h19.988v-5.8592h-24.06c-.936 0-1.638.1921-2.106.5283-.796.4322-1.124 1.2006-1.124 2.4493v20.3153c0 1.2968.375 2.1612 1.17 2.5935.515.3842 1.171.5283 2.06.5283h24.107v-5.6192h-19.988c-.842 0-1.404-.5763-1.404-1.5368l-.047-3.7941h21.252v-4.9468h-21.252l.047-3.2178c0-.8645.515-1.4408 1.357-1.4408z"/><path d="m328.577 39.9328c0-.0961 0-.2402-.093-.3362-.094-.0961-.188-.1441-.281-.1441h-82.198-5.149c-2.622.0961-4.728 1.9211-5.617 4.1303-.094.2401-8.941 22.4285-9.784 24.4936-.608 1.4889-1.31 2.2093-2.293 2.2093-.656 0-1.311-.2402-1.545-1.8731-.187-1.3928-.843-23.6291-.843-23.8693-.234-1.777-.842-3.0737-1.732-3.9382-.889-.8164-2.34-1.2487-4.306-1.2487-2.013 0-3.604.4323-4.728 1.2487-1.123.8645-2.06 2.2093-2.809 4.0823 0 0-7.536 22.1884-7.91 23.1489-.375 1.0566-1.03 2.3533-2.013 2.3533-.749 0-1.217-.7204-1.311-1.825-.093-1.1046-.608-23.4371-.608-23.4371-.281-2.6894-2.2-5.427-5.243-5.427h-80.419c-.188 0-.422.1921-.468.4323v3.8901c0 .1441.046.2402.093.3362.047.0961.187.1441.281.1441l75.691-.048c3.184 0 4.681 1.825 4.869 5.6191.187 3.2658.187 11.0461.281 18.5383.046 4.2744 2.902 7.204 6.459 7.2521 2.996.048 5.618-1.8731 6.741-4.8988 2.387-6.3395 9.034-24.6377 9.128-24.8298.468-1.3928 1.264-1.3928 1.545-1.3928.28 0 .983 0 1.123 1.3448 0 .1921.421 20.3153.702 23.1008.281 2.7856 2.481 6.6758 6.507 6.6758 3.464 0 6.085-1.8731 7.77-5.6192 1.685-3.65 9.549-22.2363 9.643-22.4285 1.123-2.3533 2.434-3.3138 4.775-3.3618l83.274-.0481c.234 0 .422-.1921.422-.4322z"/><path d="m135.58 61.9293-1.076-.5763.983-.6723c1.404-1.0086 2.387-2.4974 2.434-5.0909 0-1.1046-.187-2.0651-.515-2.8816-.328-.8645-.796-1.5849-1.357-2.2092-1.452-1.5849-3.511-2.4013-6.179-2.4013h-19.52c-.936 0-1.123.3361-1.123 1.0085l.046 24.1094c0 .7685.609 1.4408 1.405 1.4408h19.613c1.498 0 2.762-.2401 3.792-.6723.983-.4323 1.825-1.0566 2.434-1.8251.561-.6723.983-1.3927 1.264-2.2092.28-.8164.468-1.6329.468-2.5454-.047-2.4974-1.217-4.5145-2.669-5.4751zm-20.455-7.4921c0-.8165.515-1.3448 1.263-1.3448h12.171c.609 0 1.123.0961 1.545.2882.374.1921.749.4803 1.03.8165.421.5282.655 1.1526.655 1.825 0 .6723-.234 1.2967-.655 1.825-.281.3842-.656.6243-1.03.8645-.422.1921-.936.2881-1.545.2881h-13.434zm16.102 14.408c-.281.3362-.655.5763-1.076.7684-.422.1921-.937.2882-1.592.2882h-12.124c-.795 0-1.264-.5283-1.264-1.3448v-4.8507h13.435c.655 0 1.17.0961 1.591.2402.422.1921.796.4322 1.077.7684.515.6243.796 1.2967.796 2.0171-.094.7684-.375 1.4889-.843 2.1132z"/><path d="m83.1684 63.9971v23.437c0 6.0994-4.7776 11.0462-10.6685 11.0462h-54.688c-5.8909 0-10.6686-4.9468-10.6686-11.0462v-23.437h-7.1433v23.437c0 10.1817 7.97823 18.4419 17.8119 18.4419h54.6416c9.8336 0 17.8118-8.2602 17.8118-18.4419v-23.437z"/><path d="m7.1433 54.7758v-23.9654c0-6.0994 4.7777-11.0461 10.6686-11.0461h54.6416c5.8909 0 10.6685 4.9467 10.6685 11.0461v23.9654h7.1433v-23.9654c0-10.1816-7.9782-18.4422-17.8118-18.4422h-54.6416c-9.83367.048-17.8119 8.3086-17.8119 18.4903v23.9653h7.1433z"/><path d="m25.5232 81.3806c-1.966 0-2.9959-1.0086-2.9959-2.9296v-38.5655c0-1.9211.9831-2.8816 2.9959-2.8816h31.4562c2.5277 0 4.6809.3842 6.3661 1.2007 1.6851.7684 3.0894 1.921 4.1661 3.3138 1.7319 2.2092 2.6213 4.8507 2.6213 7.9725 0 2.0171-.5617 3.9381-1.6383 5.7632-1.0298 1.7289-2.4341 3.0256-4.1193 3.7941 2.0128.9125 3.5107 2.3053 4.5406 4.1783 1.0298 1.9211 1.5915 4.0823 1.5915 6.4356 0 1.2487-.234 2.4493-.6553 3.554-.4213 1.1526-1.0299 2.2092-1.732 3.2177-1.0766 1.4408-2.4809 2.6415-4.2597 3.506-1.732.9125-4.0724 1.3447-6.881 1.3447h-31.4562zm4.6341-8.3567c0 .7204.3277 1.0566 1.0767 1.0566h24.4815c1.4511 0 2.6213-.1921 3.4639-.6243.8426-.3842 1.4979-.9125 2.0597-1.5849.8425-1.0566 1.217-2.3053 1.217-3.6981 0-1.4408-.4213-2.6894-1.3107-3.698-.5149-.5763-1.217-1.1046-2.0596-1.4888-.8426-.3843-1.966-.6244-3.3703-.6244h-25.5582zm25.6518-17.1455c1.4043 0 2.5746-.2401 3.4171-.6724.8426-.4322 1.4979-1.0085 1.966-1.7289.6554-1.0086.983-2.1132.983-3.2658 0-1.3448-.4212-2.5935-1.2638-3.6501-.4681-.5763-1.1234-1.1046-1.9192-1.4888-.749-.3842-1.8256-.6244-3.2299-.6244h-24.622c-.7489 0-1.0766.3362-1.0766 1.0566v10.3738z"/></g></svg>