<svg fill="none" height="482" viewBox="0 0 763 482" width="763" xmlns="http://www.w3.org/2000/svg" xmlns:xlink="http://www.w3.org/1999/xlink"><linearGradient id="a" gradientUnits="userSpaceOnUse" x1="372.825" x2="372.825" y1="370.234" y2="480.993"><stop offset="0" stop-color="#fff" stop-opacity="0"/><stop offset=".729167" stop-color="#fcfcfc"/><stop offset="1" stop-color="#fff"/></linearGradient><clipPath id="b"><path d="m0 0h763v482h-763z"/></clipPath><clipPath id="c"><path d="m0 0h202.774v202.774h-202.774z" transform="matrix(.83109611 -.55612882 .55612882 .83109611 -11.8223 280.801)"/></clipPath><clipPath id="d"><path d="m0 0h215.241v215.241h-215.241z" transform="matrix(-.42718428 -.90416458 .90416458 -.42718428 170.832 255.468)"/></clipPath><mask id="e" height="243" maskUnits="userSpaceOnUse" width="244" x="240" y="244"><path d="m483.127 288.051-198.686-43.493-43.493 198.685 198.685 43.494z" fill="#fff"/></mask><mask id="f" height="259" maskUnits="userSpaceOnUse" width="258" x="261" y="115"><path d="m454.468 115.867-192.896 64.525 64.525 192.895 192.896-64.525z" fill="#fff"/></mask><mask id="g" height="223" maskUnits="userSpaceOnUse" width="223" x="292" y="-4"><path d="m292.466 16.3652 19.477 202.4668 202.467-19.477-19.477-202.46673z" fill="#fff"/></mask><mask id="h" height="204" maskUnits="userSpaceOnUse" width="205" x="402" y="263"><path d="m606.008 263.389-202.774-.305-.305 202.773 202.774.305z" fill="#fff"/></mask><mask id="i" height="214" maskUnits="userSpaceOnUse" width="215" x="560" y="122"><path d="m774.561 134.08-202.747-11.568-11.512 201.773 202.747 11.569z" fill="#fff"/></mask><mask id="j" height="257" maskUnits="userSpaceOnUse" width="257" x="539" y="-32"><path d="m795.278 161.654-63.245-192.9772-192.051 62.9409 63.245 192.9773z" fill="#fff"/></mask><mask id="k" height="277" maskUnits="userSpaceOnUse" width="278" x="396" y="-65"><path d="m575.202-65.0004-178.325 97.8383 97.838 178.3251 178.325-97.838z" fill="#fff"/></mask><mask id="l" height="256" maskUnits="userSpaceOnUse" width="256" x="402" y="91"><path d="m657.219 135.851-210.668-44.1283-44.128 210.6683 210.668 44.128z" fill="#fff"/></mask><mask id="m" height="277" maskUnits="userSpaceOnUse" width="277" x="518" y="233"><path d="m697.145 233.794-178.325 97.838 97.839 178.325 178.325-97.838z" fill="#fff"/></mask><mask id="n" height="273" maskUnits="userSpaceOnUse" width="273" x="-43" y="273"><path d="m229.724 456.315-89.681-182.551-182.5512 89.68 89.6807 182.552z" fill="#fff"/></mask><mask id="o" height="289" maskUnits="userSpaceOnUse" width="288" x="-61" y="47"><path d="m78.7173 47.8941-139.7173 147.8219 147.8217 139.717 139.7173-147.822z" fill="#fff"/></mask><mask id="p" height="282" maskUnits="userSpaceOnUse" width="282" x="-12" y="168"><path d="m156.702 168.033-168.5243 112.768 112.7683 168.524 168.524-112.768z" fill="#fff"/></mask><mask id="q" height="214" maskUnits="userSpaceOnUse" width="215" x="155" y="129"><path d="m369.991 140.613-202.747-11.568-11.513 201.774 202.747 11.568z" fill="#fff"/></mask><mask id="r" height="288" maskUnits="userSpaceOnUse" width="288" x="78" y="-32"><path d="m78.8847 60.8548 91.9473 194.6132 194.613-91.948-91.947-194.6125z" fill="#fff"/></mask><mask id="s" height="277" maskUnits="userSpaceOnUse" width="277" x="114" y="240"><path d="m292.577 240.328-178.325 97.838 97.838 178.325 178.325-97.838z" fill="#fff"/></mask><g clip-path="url(#b)"><g mask="url(#e)"><path d="m434.138 372.488c-.944 3.992-4.366 6.908-8.448 7.221l-44.494 3.39c-4.724.381-8.933 3.079-11.226 7.193l-21.669 39.009c-1.99 3.578-6.091 5.464-10.091 4.658-4.036-.744-7.123-4.018-7.645-8.1l-11.994-112.331c-.56-5.18 3.196-9.832 8.376-10.392 2.044-.225 4.081.221 5.822 1.275l97.074 57.811c3.5 2.134 5.238 6.273 4.272 10.261z" fill="#e6e6ed"/></g><g mask="url(#f)"><path d="m445.101 237.46-16.227 5.428-1.751-22.594 11.004-3.681c6.555-2.193 10.117-9.335 7.924-15.89s-9.335-10.117-15.89-7.924l-5.072 1.697-1.25-15.881c-.261-3.353-1.805-6.397-4.345-8.559-2.546-2.183-5.794-3.248-9.119-2.972-1.046.087-2.078.289-3.066.62-2.128.711-4.04 1.996-5.522 3.711-2.183 2.546-3.24 5.815-2.979 9.169l1.722 22.151-27.253 9.116-1.249-15.88c-.262-3.354-1.806-6.398-4.345-8.56-2.546-2.183-5.794-3.248-9.119-2.972-1.046.087-2.078.289-3.045.613-2.128.711-4.04 1.996-5.522 3.711-2.183 2.546-3.24 5.815-2.979 9.169l1.722 22.15-22.18 7.42c-6.555 2.193-10.124 9.313-7.924 15.89 2.2 6.576 9.334 10.116 15.89 7.924l16.226-5.428 1.752 22.594-11.005 3.681c-6.555 2.193-10.116 9.335-7.924 15.89 2.193 6.555 9.335 10.117 15.89 7.924l5.072-1.696 1.25 15.88c.261 3.353 1.805 6.398 4.345 8.559 2.546 2.183 5.794 3.248 9.119 2.972 1.025-.08 2.056-.282 3.024-.605 5.48-1.833 8.986-7.141 8.522-12.888l-1.722-22.15 27.252-9.116 1.228 15.887c.262 3.354 1.806 6.398 4.345 8.56 2.547 2.183 5.794 3.247 9.119 2.971 1.025-.08 2.057-.281 3.024-.605 5.481-1.833 8.987-7.14 8.522-12.887l-1.722-22.151 22.18-7.419c6.556-2.193 10.117-9.335 7.924-15.89-2.192-6.555-9.334-10.117-15.889-7.924zm-42.523-8.956 1.751 22.595-27.231 9.109-1.751-22.595 27.253-9.116z" fill="#e6e6ed"/></g><g fill="#e6e6ed" mask="url(#g)"><path d="m365.545 76.1812-.245.2967c-8.793 10.8409-12.921 24.4891-11.598 38.4781 1.345 13.986 7.957 26.624 18.635 35.614 11.417 9.58 26.431 13.942 41.198 11.952 1.685-.231 3.395-.213 5.054-.008 2.997.394 6.007-.51 8.051-2.687-.932 2.138-.412 4.707 1.492 6.277l9.818 8.094c2.275 1.876 5.658 1.55 7.557-.727 1.876-2.275 5.259-2.601 7.557-.727l2.003 1.652c1.039.856 2.358 1.321 3.714 1.213 23.981-1.829 28.006-25.075 15.392-35.495l-.693-.571 3.405-4.13c1.876-2.275 1.55-5.659-.727-7.557l-9.817-8.095c-1.929-1.59-4.615-1.582-6.53-.191 1.379-2.227 1.547-4.976.668-7.487-1.06-2.971-1.352-6.245-.71-9.517.239-1.298.111-2.6286-.283-3.8884-15.028-48.0515-68.457-53.4304-93.943-22.519z"/><path d="m343.397 113.625c-.391-4.061-4.001-7.038-8.062-6.647l-7.986.768c-4.06.391-7.037 4.001-6.646 8.062.39 4.06 4.001 7.037 8.061 6.647l7.986-.769c4.061-.39 7.038-4.001 6.647-8.061z"/><path d="m388.843 33.1628.768 7.9859c.391 4.0606 4.001 7.0374 8.062 6.6468 4.06-.3907 7.037-4.0011 6.646-8.0617l-.768-7.9859c-.39-4.0606-4.001-7.0374-8.062-6.6468-4.06.3907-7.037 4.0011-6.646 8.0617z"/><path d="m366.081 164.811c1.264-1.533 1.832-3.432 1.644-5.395-.189-1.963-1.134-3.739-2.643-4.982-1.533-1.265-3.434-1.856-5.419-1.665s-3.739 1.134-5.003 2.667l-5.097 6.182c-1.264 1.534-1.833 3.433-1.644 5.395.189 1.963 1.134 3.739 2.644 5.005 3.141 2.59 7.811 2.14 10.4-1l5.097-6.183z"/><path d="m440.841 50.8829c-1.264 1.5332-1.833 3.4321-1.644 5.3947s1.134 3.7387 2.644 5.005c1.511 1.2662 3.432 1.8327 5.418 1.6418 1.985-.191 3.738-1.1338 4.982-2.6423l5.097-6.1822c1.264-1.5332 1.855-3.4343 1.665-5.4195-.191-1.9852-1.134-3.7387-2.665-4.9802-3.141-2.5894-7.811-2.1402-10.4 1.0004z"/><path d="m358.551 64.0589c-.189-1.9627-1.134-3.7387-2.642-4.9824l-6.182-5.0972c-3.141-2.5894-7.811-2.1402-10.4 1.0004-1.264 1.5332-1.833 3.4321-1.644 5.3947s1.134 3.7387 2.644 5.005l6.183 5.0972c3.14 2.5894 7.81 2.1402 10.399-1.0004 1.265-1.5333 1.833-3.4321 1.642-5.4173z"/></g><g mask="url(#h)"><path d="m504.589 292.608c-39.448-.059-71.782 32.178-71.841 71.625-.06 39.448 32.177 71.782 71.625 71.841 39.447.06 71.782-32.177 71.841-71.625s-32.178-71.782-71.625-71.841zm-.195 129.142c-5.738-.008-13.607-10.775-18.618-28.721l36.578.055c-4.342 17.932-12.244 28.675-17.982 28.666zm-20.743-43.071c-.717-4.316-.709-9.332-.702-14.348.008-5.015.016-10.054.745-14.345l41.617.062c.716 4.317.709 9.332.701 14.348s-.015 10.054-.745 14.346zm-36.557-14.402c.008-5.015.738-10.052 2.168-14.343l20.085.03c-.729 4.314-.737 9.33-.744 14.346-.008 5.015-.015 10.054.701 14.347l-20.085-.03c-1.44-4.317-2.132-9.334-2.125-14.35zm57.473-57.3c5.739.009 13.608 10.775 18.619 28.722l-37.301-.057c5.042-17.931 12.966-28.673 18.705-28.665zm35.09 43.093 20.086.03c1.439 4.318 2.132 9.334 2.124 14.35-.007 5.016-.738 10.053-2.168 14.343l-20.085-.03c.73-4.314.737-9.33.745-14.345.007-5.016.015-10.054-.702-14.348zm14.368-14.325-16.493-.025c-1.433-8.61-4.29-16.499-7.85-22.966 10.747 5.031 18.642 12.951 24.366 22.991zm-75.291-23.068c-2.879 6.457-5.76 14.338-7.219 22.944l-16.493-.025c5.754-10.045 13.651-17.918 23.712-22.919zm-23.798 80.306 16.493.024c1.433 8.61 4.29 16.5 7.85 22.967-10.746-5.032-18.642-12.952-24.366-22.992zm75.291 23.067c2.879-6.457 5.76-14.338 7.92-22.942l16.492.024c-6.476 10.045-14.373 17.918-24.435 22.918z" fill="#e6e6ed"/></g><g mask="url(#i)"><path d="m728.838 249.839-30.538-18.884 32.488-15.288c4.518-2.133 6.456-7.503 4.311-12.002l-4.918-10.34c-2.145-4.498-7.542-6.43-12.061-4.297l-34.491 16.234 2.163-37.904c.283-4.968-3.531-9.223-8.523-9.508l-11.476-.655c-4.993-.285-9.266 3.509-9.549 8.477l-2.164 37.927-32.421-20.052c-4.247-2.633-9.828-1.328-12.472 2.897l-6.061 9.714c-2.644 4.225-1.329 9.781 2.918 12.414l30.538 18.884-32.488 15.288c-4.519 2.133-6.457 7.503-4.311 12.001l4.917 10.34c2.146 4.499 7.543 6.43 12.061 4.297l34.492-16.233-2.164 37.926c-.284 4.969 3.53 9.224 8.523 9.509l11.475.654c4.993.285 9.266-3.508 9.55-8.477l2.164-37.926 32.42 20.051c4.247 2.633 9.829 1.328 12.472-2.897l6.062-9.714c2.643-4.224 1.328-9.78-2.918-12.413z" fill="#e6e6ed"/></g><g fill="#e6e6ed" mask="url(#j)"><path d="m641.611 65.2198c-9.025-.5665-18.57-3.0101-28.393-7.2435-3.095-1.3432-6.653-.4866-8.785 2.1171-1.675 2.0489-2.104 4.6423-1.308 7.072.225.688.487 1.3405.947 1.9514 8.788 12.8591 34.383 41.2832 81.763 26.779 18.258-5.603 29.482-24.0679 25.564-42.0233-2.194-9.9483-8.454-18.4927-17.142-23.5269-8.73-5.0202-19.221-6.0825-28.743-2.9617-15.878 5.2036-26.101 21.0789-23.903 37.8359z"/><path d="m730.721 112.83c-2.173-9.883-8.44-18.4492-17.128-23.4834-8.73-5.0202-19.221-6.0825-28.743-2.9617-15.878 5.2036-26.101 21.0791-23.903 37.8361-9.032-.588-18.57-3.01-28.393-7.244-3.095-1.343-6.653-.486-8.778 2.139-1.675 2.049-2.104 4.642-1.308 7.072.218.666.487 1.34.94 1.93 8.788 12.859 34.383 41.283 81.763 26.779l.663-.218c17.868-5.855 28.755-24.044 24.887-41.849z"/></g><g mask="url(#k)"><path d="m583.541 21.6745c-7.24-1.2754-14.267 3.5368-15.646 10.7298l-5.164 26.5376c1.399-7.2039-3.346-14.0618-10.597-15.3571-7.239-1.2754-14.267 3.5368-15.646 10.7299 1.399-7.204-3.346-14.0618-10.597-15.3571-7.24-1.2754-14.267 3.5368-15.646 10.7298l4.544-23.3798c1.398-7.204-3.347-14.0618-10.597-15.3571-7.24-1.27543-14.268 3.5368-15.646 10.7298l-7.688 39.6064-5.678 29.2754c-5.265 27.0589 12.578 52.8909 39.822 57.6929l6.321 1.107c8.526 1.5 16.987.761 24.71-1.795 1.553-.232 3.096-.717 4.566-1.523l46.136-25.313c6.498-3.565 8.929-11.62 5.418-18.017-3.499-6.3784-11.609-8.6754-18.107-5.1107l-1.847 1.0138 2.652-13.6822 1.009-5.1809 8.307-42.7641c1.399-7.2039-3.346-14.0618-10.597-15.3571z" fill="#e6e6ed"/></g><g mask="url(#l)"><path d="m605.53 206.912-62.39-13.069 9.012-43.026c.964-4.6-4.143-7.826-7.721-4.9l-92.106 75.802c-3.227 2.656-2.062 7.972 1.952 8.813l62.391 13.069-9.013 43.025c-.963 4.601 4.144 7.827 7.721 4.901l92.13-75.797c3.227-2.656 2.062-7.973-1.952-8.813z" fill="#e6e6ed"/></g><g mask="url(#m)"><path d="m691.769 435.168c-2.801 1.537-5.761 2.928-8.769 4.088-30.273 11.491-64.83 1.37-84.08-24.621-11.452-15.457-16.214-34.455-13.402-53.498 2.813-19.044 12.882-35.839 28.359-47.303 2.643-1.967 5.454-3.768 8.335-5.349 31.374-17.213 71.111-8.486 92.465 20.305 6.851 9.141 11.491 19.907 13.413 31.184 1.749 11.009-3.614 21.965-13.35 27.306l-.219.12c-7.581 4.134-16.776 4.241-24.434.507-3.297 6.901-8.668 12.614-15.443 16.331s-14.981 5.298-22.937 4.131c-20.012-2.927-33.939-21.575-31.012-41.587 1.681-11.495 8.478-21.299 18.671-26.891 5.603-3.074 11.752-4.587 18.043-4.523.216-3.375 2.104-6.531 5.243-8.253 4.908-2.693 11.113-.901 13.816 4.026l19.699 35.904c1.679 3.06 5.545 4.17 8.605 2.491 2.384-1.308 3.619-3.769 3.24-6.25-.564-3.336-1.494-6.728-2.743-9.947-10.296-26.586-40.306-39.822-66.892-29.527-2.109.821-4.192 1.783-6.179 2.873-8.206 4.502-15.052 11.153-19.783 19.256-14.366 24.606-6.035 56.329 18.583 70.715 15.82 9.234 34.888 9.5 50.971.65 8.186-4.491 15.001-11.151 19.733-19.253.933-1.598 2.282-2.907 3.892-3.79 3.119-1.712 6.945-1.665 10.015.114 4.854 2.817 6.492 9.053 3.675 13.908-6.538 11.264-16.002 20.541-27.426 26.809l-.1.055zm-42.574-77.456c-7.908 4.338-10.805 14.277-6.466 22.185s14.278 10.805 22.185 6.466c7.888-4.328 10.794-14.298 6.466-22.186s-14.277-10.804-22.185-6.465z" fill="#e6e6ed"/></g><g mask="url(#n)"><path d="m163.956 434.995c2.649-7.765 2.113-16.566-1.443-23.959-3.656-7.596-10.355-13.471-18.302-16.232l-20.1-6.841c1.265 1.753 2.387 3.625 3.346 5.578 1.888 3.844 3.117 7.937 3.675 12.157 0 0 0 0 .01.02.279 2.111 1.655 3.884 3.667 4.587l3.7 1.262c3.307 1.128 6.138 3.55 7.788 6.602 1.811 3.378 2.167 7.495.916 11.114-2.484 7.28-10.437 11.187-17.737 8.714l-14.499-4.946-23.5678-8.041c-4.5802-1.562-8.1598-5.611-9.1502-10.351-.863-4.121.2531-8.633 2.9818-11.867.3169-.383.6641-.756 1.0313-1.087l-12.9522-4.368c-2.8209-.963-5.9122.506-6.9556 3.316-.1445.374-.2687.738-.4032 1.132-1.5429 4.672-2.0444 9.715-1.3388 14.595.1256.873.2816 1.755.4782 2.618 2.3516 10.081 9.9527 18.769 19.6565 22.435.3133.124 39.017 13.327 39.017 13.327 16.531 5.64 34.553-3.213 40.192-19.744zm-106.5627-18.22s0 0-.01-.02c-.2791-2.11-1.6552-3.883-3.6671-4.586-1.8199-.621-3.7005-1.263-3.7005-1.263-3.3062-1.128-6.1675-3.56-7.808-6.642-1.8107-3.378-2.157-7.475-.9053-11.094 2.4835-7.28 10.4364-11.187 17.7365-8.714l39.6528 13.748c.8393.269 1.5963.731 2.2913 1.273 3.206 2.414 5.277 6.27 5.553 10.275.138 2.079-.232 4.204-1.006 6.175l3.222 7.431 10.949 3.736c.476.145 2.644-5.566 2.841-6.142.745-2.235 1.248-4.552 1.508-6.902.499-4.689-.025-9.506-1.605-13.957-3.181-8.941-10.588-16.361-19.617-19.373l-38.0672-12.987c-16.5311-5.639-34.5523 3.214-40.1918 19.745-2.6697 7.826-2.1135 16.667 1.5034 24.081 3.6568 7.495 10.355 13.42 18.2413 16.111l20.08 6.85c-1.2647-1.752-2.3867-3.625-3.346-5.577-1.8885-3.845-3.1165-7.938-3.6747-12.158z" fill="#e6e6ed"/></g><g fill="#e6e6ed" mask="url(#o)"><path d="m71.8927 120.244c-4.502.672-7.7723 4.66-7.6441 9.209l.3197 11.342c.1553 5.51 5.1296 9.65 10.5525 8.664 12.9514-2.353 26.8252 1.28 37.1192 11.01 10.294 9.729 14.703 23.408 13.068 36.488-.68 5.47 3.751 10.218 9.245 10.048l11.341-.32c4.549-.128 8.347-3.618 8.781-8.135 2.042-21.396-5.443-43.501-22.276-59.411-16.832-15.909-39.2753-22.122-60.5228-18.91z"/><path d="m45.7278 177.093-25.3437 26.813c-5.6354 5.963-5.3699 15.382.5923 21.017 5.9623 5.636 15.3814 5.37 21.0168-.592l25.3437-26.814c5.6354-5.962 5.3699-15.381-.5923-21.017-5.9623-5.635-15.3814-5.37-21.0168.593z"/><path d="m77.8118 207.418-25.3437 26.814c-5.6354 5.962-5.37 15.381.5923 21.016 5.9623 5.636 15.3814 5.37 21.0168-.592l25.3437-26.814c5.6351-5.962 5.3701-15.381-.5924-21.017-5.9622-5.635-15.3813-5.369-21.0167.593z"/></g><g clip-path="url(#c)"><g mask="url(#p)"><path d="m118.203 237.127c-9.952 6.578-16.174 17.674-16.98 30.283-11.9629-4.147-24.6244-2.634-34.4695 4.144-18.6081 12.452-22.6102 39.134-8.9147 59.601 23.4583 35.057 102.0502 32.052 105.1832 31.859 1.354.073 2.555-.732 3.004-2.011 1.374-2.822 34.469-73.819 10.672-109.382-13.696-20.467-39.887-26.946-58.495-14.494z" fill="#e6e6ed"/></g></g><g mask="url(#q)"><path d="m324.268 256.372-30.539-18.884 32.488-15.288c4.519-2.133 6.457-7.503 4.311-12.001l-4.917-10.34c-2.146-4.498-7.543-6.43-12.061-4.297l-34.491 16.233 2.162-37.904c.284-4.968-3.53-9.223-8.523-9.508l-11.475-.655c-4.993-.285-9.266 3.509-9.55 8.477l-2.164 37.927-32.42-20.052c-4.247-2.633-9.829-1.327-12.472 2.898l-6.062 9.713c-2.643 4.225-1.328 9.781 2.918 12.414l30.539 18.884-32.489 15.288c-4.518 2.133-6.456 7.504-4.31 12.002l4.917 10.34c2.146 4.498 7.543 6.43 12.061 4.297l34.491-16.234-2.164 37.926c-.283 4.969 3.531 9.224 8.523 9.509l11.476.655c4.992.284 9.266-3.509 9.549-8.478l2.164-37.926 32.421 20.051c4.247 2.634 9.828 1.328 12.472-2.897l6.061-9.713c2.644-4.225 1.329-9.781-2.918-12.414z" fill="#e6e6ed"/></g><g clip-path="url(#d)"><g mask="url(#r)"><path d="m320.896 142.155c1.691 3.578.158 7.857-3.42 9.547-24.654 11.649-45.249.451-46.118-.04-3.062-1.71-4.45-5.377-3.25-8.676l9.117-25.448c1.178-3.288 4.569-5.262 8.02-4.638.983.172 24.003 4.601 35.651 29.255zm-197.451-59.968 14.251 30.162c7.407 15.678 20.897 27.5 36.819 33.186l5.727 12.122c5.02 10.625 14.958 18.13 26.555 20.051l22.446 3.719c2.618.434 5.281-.612 6.895-2.754s1.891-4.978.754-7.385l-10.234-21.663 13.621.143c7.121.084 13.507-4.366 15.909-11.071l9.094-25.383c1.533-4.279 1.227-8.855-.637-12.802-1.056-2.2333-2.62-4.2528-4.633-5.8747l-10.612-8.5397 21.662-10.2346c2.407-1.1372 3.983-3.5266 4.107-6.1843.048-1.1897-.195-2.3216-.687-3.3624-.615-1.301-1.609-2.396-2.891-3.1433l-19.7-11.3812c-10.179-5.8803-22.6-6.4037-33.247-1.3735l-12.122 5.7268c-15.91-5.7183-33.838-5.1522-49.516 2.2548l-30.14 14.2404c-3.578 1.6904-5.111 5.9688-3.421 9.5467zm77.853 8.1494c4.498 9.5192.402 20.9496-9.117 25.4476-9.519 4.497-20.95.402-25.447-9.117-4.498-9.5196-.402-20.9501 9.117-25.4475 9.519-4.4975 20.95-.4023 25.447 9.1169z" fill="#e6e6ed"/></g></g><g mask="url(#s)"><path d="m287.201 441.703c-2.802 1.537-5.761 2.928-8.77 4.087-30.273 11.491-64.83 1.37-84.079-24.621-11.453-15.457-16.215-34.454-13.402-53.498s12.882-35.839 28.358-47.303c2.643-1.967 5.455-3.768 8.336-5.349 31.373-17.213 71.111-8.486 92.465 20.305 6.85 9.141 11.491 19.908 13.412 31.184 1.749 11.009-3.614 21.965-13.35 27.306l-.218.12c-7.581 4.134-16.777 4.241-24.435.507-3.296 6.901-8.667 12.614-15.442 16.331-6.776 3.717-14.982 5.299-22.937 4.132-20.012-2.928-33.94-21.576-31.012-41.588 1.681-11.495 8.478-21.299 18.67-26.891 5.604-3.074 11.753-4.587 18.044-4.523.216-3.375 2.104-6.531 5.243-8.253 4.908-2.693 11.112-.901 13.816 4.027l19.698 35.903c1.679 3.06 5.545 4.17 8.605 2.491 2.384-1.308 3.619-3.769 3.241-6.25-.564-3.335-1.495-6.728-2.743-9.946-10.296-26.587-40.306-39.823-66.893-29.528-2.108.821-4.191 1.783-6.178 2.873-8.206 4.502-15.052 11.154-19.784 19.256-14.366 24.607-6.034 56.329 18.583 70.715 15.82 9.234 34.889 9.5 50.972.65 8.186-4.491 15.001-11.151 19.732-19.253.933-1.598 2.283-2.907 3.892-3.79 3.12-1.712 6.946-1.665 10.016.115 4.854 2.816 6.492 9.052 3.675 13.907-6.538 11.264-16.002 20.541-27.427 26.809l-.099.055zm-42.574-77.457c-7.908 4.338-10.805 14.277-6.466 22.185 4.338 7.908 14.277 10.805 22.185 6.466 7.888-4.328 10.794-14.297 6.466-22.185s-14.278-10.805-22.185-6.466z" fill="#e6e6ed"/></g><path d="m-28.8887 370.234h803.426v110.759h-803.426z" fill="url(#a)" transform="matrix(.99999887 .00150438 -.00150438 .99999887 .556941 .043879)"/></g></svg>