<svg fill="none" height="61" viewBox="0 0 165 61" width="165" xmlns="http://www.w3.org/2000/svg"><rect height="59" rx="29.5" stroke="#fff" width="163" x="1.29443" y="1.4707"/><path d="m53.6144 37.9707v-12.56h-4.54v-1.58h10.82v1.58h-4.54v12.56zm10.0868 0-3.28-10.54h1.92l2.52 8.9 2.6-8.9h2.3l2.62 8.9 2.48-8.9h1.94l-3.28 10.54h-2.32l-2.6-8.54-2.6 8.54zm14.6754 0v-10.54h1.7v10.54zm.84-12.1c-.3466 0-.6266-.1067-.84-.32-.2-.2133-.3-.4867-.3-.82s.1067-.6.32-.8c.2134-.2133.4867-.32.82-.32.3067 0 .5734.1067.8.32.24.2133.36.48.36.8 0 .3333-.1133.6067-.34.82-.2266.2133-.5.32-.82.32zm7.495 12.22c-1.1066 0-1.8866-.3-2.34-.9-.44-.6-.66-1.4533-.66-2.56v-5.7h-1.72v-1.5h1.72v-3.16h1.7v3.16h3.24v1.5h-3.24v5.48c0 .4.0334.7667.1 1.1.0667.32.2067.58.42.78.2134.1867.5334.2867.96.3.3067 0 .5734-.0533.8-.16.24-.1067.44-.2333.6-.38l.74 1.24c-.2266.1867-.4666.34-.72.46-.24.12-.4933.2067-.76.26-.2533.0533-.5333.08-.84.08zm7.9297 0c-1.1067 0-1.8867-.3-2.34-.9-.44-.6-.66-1.4533-.66-2.56v-5.7h-1.72v-1.5h1.72v-3.16h1.7v3.16h3.24v1.5h-3.24v5.48c0 .4.0333.7667.1 1.1.0667.32.2067.58.42.78.2133.1867.5333.2867.96.3.3067 0 .5733-.0533.8-.16.24-.1067.44-.2333.6-.38l.74 1.24c-.2267.1867-.4667.34-.72.46-.24.12-.4933.2067-.76.26-.2533.0533-.5333.08-.84.08zm8.5297 0c-1.12 0-2.047-.2267-2.78-.68-.7333-.4667-1.28-1.1067-1.64-1.92s-.54-1.74-.54-2.78c0-1.0533.1867-1.98.56-2.78.3867-.8133.9467-1.4533 1.68-1.92.733-.4667 1.633-.7 2.7-.7.827 0 1.533.16 2.12.48.6.3067 1.093.72 1.48 1.24s.667 1.0933.84 1.72c.173.6133.247 1.2333.22 1.86-.013.12-.027.24-.04.36 0 .12-.007.24-.02.36h-7.82c.0533.6133.207 1.1667.46 1.66s.613.8867 1.08 1.18c.467.28 1.047.42 1.74.42.347 0 .693-.04 1.04-.12.36-.0933.68-.2467.96-.46.293-.2133.5-.5.62-.86h1.74c-.16.68-.46 1.24-.9 1.68-.44.4267-.967.7467-1.58.96-.613.2-1.253.3-1.92.3zm-3.2-6.24h6.1c-.013-.6-.147-1.1267-.4-1.58s-.6-.8067-1.04-1.06c-.427-.2533-.94-.38-1.54-.38-.653 0-1.207.14-1.66.42-.44.28-.78.6467-1.02 1.1s-.387.9533-.44 1.5zm10.105 6.12v-10.54h1.64l.08 1.64c.267-.4133.573-.7467.92-1 .36-.2533.753-.44 1.18-.56.44-.1333.913-.2 1.42-.2h.26.28v1.6h-.62c-.827 0-1.5.18-2.02.54-.507.3467-.873.82-1.1 1.42-.227.5867-.34 1.24-.34 1.96v5.14z" fill="#fff"/></svg>