<svg width="54" height="54" viewBox="0 0 54 54" fill="none" xmlns="http://www.w3.org/2000/svg">
<g clip-path="url(#clip0_2305_2957)">
<rect width="54" height="54" rx="27" fill="#FC4C02"/>
<mask id="mask0_2305_2957" style="mask-type:luminance" maskUnits="userSpaceOnUse" x="0" y="0" width="54" height="54">
<path d="M54 0L0 0L0 54H54V0Z" fill="white"/>
</mask>
<g mask="url(#mask0_2305_2957)">
<path d="M33.4055 7.82031L20.5959 7.82031C13.5383 7.82031 7.81641 13.5422 7.81641 20.5998L7.81641 33.4094C7.81641 40.467 13.5383 46.1889 20.5959 46.1889H33.4055C40.4631 46.1889 46.185 40.467 46.185 33.4094V20.5998C46.185 13.5422 40.4631 7.82031 33.4055 7.82031ZM21.1916 36.8088H16.8355V23.0065H21.1916V36.8088ZM19.0135 20.8284C17.7079 20.8284 16.8355 20.0102 16.8355 18.9933C16.8355 17.9765 17.7079 17.2004 19.0135 17.2004C20.3191 17.2004 21.1434 17.9765 21.1916 18.9933C21.1916 20.0102 20.3793 20.8284 19.0135 20.8284ZM37.1719 36.8088H32.8158V29.5467C32.8158 28.0966 32.0878 26.6406 30.2708 26.6105H30.2106C28.4537 26.6105 27.7257 28.1087 27.7257 29.5467V36.8088H23.3696V23.0065H27.7257V24.8657C27.7257 24.8657 29.1276 23.0065 31.9494 23.0065C34.7713 23.0065 37.1719 24.992 37.1719 29.0052V36.8088Z" fill="white"/>
</g>
</g>
<defs>
<clipPath id="clip0_2305_2957">
<rect width="54" height="54" rx="27" fill="white"/>
</clipPath>
</defs>
</svg>
