<svg fill="none" height="32" viewBox="0 0 95 32" width="95" xmlns="http://www.w3.org/2000/svg"><rect height="31" rx="15.5" stroke="#2965ff" width="94" x=".5" y=".5"/><path d="m15.072 21v-8.432h1.312l.064 1.008c.1813-.256.384-.464.608-.624.2347-.16.4907-.2773.768-.352.288-.0853.592-.128.912-.128.5867 0 1.0613.128 1.424.384.3627.2453.6347.5707.816.976.192-.288.4107-.5333.656-.736.256-.2027.5387-.3573.848-.464.32-.1067.672-.16 1.056-.16.6187 0 1.1147.1333 1.488.4.384.2667.6613.6293.832 1.088.1707.448.256.9547.256 1.52v5.52h-1.36v-4.832c0-.2773-.016-.56-.048-.848-.0213-.288-.0853-.5547-.192-.8-.1067-.256-.2667-.4587-.48-.608-.2027-.16-.4907-.24-.864-.24-.352 0-.6507.0853-.896.256-.2347.16-.4267.3787-.576.656s-.256.576-.32.896c-.064.3093-.096.6187-.096.928v4.592h-1.36v-4.848c0-.2667-.016-.544-.048-.832-.0213-.288-.08-.5547-.176-.8-.0853-.256-.2347-.4587-.448-.608-.2027-.16-.4853-.24-.848-.24-.512 0-.912.1493-1.2.448-.288.288-.4907.6453-.608 1.072-.1067.416-.16.8267-.16 1.232v4.576zm16.7574.096c-.896 0-1.6374-.1813-2.224-.544-.5867-.3733-1.024-.8853-1.312-1.536s-.432-1.392-.432-2.224c0-.8427.1493-1.584.448-2.224.3093-.6507.7573-1.1627 1.344-1.536.5866-.3733 1.3066-.56 2.16-.56.6613 0 1.2266.128 1.696.384.48.2453.8746.576 1.184.992.3093.416.5333.8747.672 1.376.1386.4907.1973.9867.176 1.488-.0107.096-.0214.192-.032.288 0 .096-.0054.192-.016.288h-6.256c.0426.4907.1653.9333.368 1.328.2026.3947.4906.7093.864.944.3733.224.8373.336 1.392.336.2773 0 .5546-.032.832-.096.288-.0747.544-.1973.768-.368.2346-.1707.4-.4.496-.688h1.392c-.128.544-.368.992-.72 1.344-.352.3413-.7734.5973-1.264.768-.4907.16-1.0027.24-1.536.24zm-2.56-4.992h4.88c-.0107-.48-.1174-.9013-.32-1.264-.2027-.3627-.48-.6453-.832-.848-.3414-.2027-.752-.304-1.232-.304-.5227 0-.9654.112-1.328.336-.352.224-.624.5173-.816.88s-.3094.7627-.352 1.2zm11.4599 4.992c-.8427 0-1.536-.1867-2.08-.56-.544-.384-.9494-.896-1.216-1.536-.2667-.6507-.4-1.3813-.4-2.192s.1333-1.5413.4-2.192c.2666-.6613.6773-1.184 1.232-1.568.5546-.384 1.264-.576 2.128-.576.3306 0 .6613.0427.992.128.3413.0747.6613.1973.96.368.2986.16.5546.3787.768.656v-3.936h1.36v11.312h-1.296l-.064-1.264c-.192.32-.4374.5813-.736.784-.288.192-.608.336-.96.432s-.7147.144-1.088.144zm.192-1.2c.5653 0 1.04-.144 1.424-.432s.6773-.672.88-1.152c.2026-.48.304-1.0027.304-1.568 0-.5867-.1014-1.1093-.304-1.568-.192-.4587-.48-.8213-.864-1.088s-.8694-.4-1.456-.4c-.608 0-1.0987.1387-1.472.416-.3627.2773-.6294.656-.8001 1.136-.16.4693-.24.9973-.24 1.584 0 .4267.0427.8267.1281 1.2.096.3627.24.688.432.976.2026.2773.464.496.784.656s.7146.24 1.184.24zm6.0882 1.104v-8.432h1.36v8.432zm.672-9.68c-.2773 0-.5013-.0853-.672-.256-.16-.1707-.24-.3893-.24-.656s.0853-.48.256-.64c.1707-.17067.3893-.256.656-.256.2453 0 .4587.08533.64.256.192.17067.288.384.288.64 0 .2667-.0907.4853-.272.656s-.4.256-.656.256zm6.428 9.776c-.8853 0-1.6213-.1813-2.208-.544-.576-.3733-1.008-.8853-1.296-1.536-.2773-.6507-.416-1.3867-.416-2.208 0-.8.144-1.5253.432-2.176.2987-.6613.7467-1.184 1.344-1.568.608-.3947 1.376-.592 2.304-.592.576 0 1.088.096 1.536.288.4587.192.8373.4747 1.136.848.2987.3627.5067.8213.624 1.376h-1.392c-.16-.4693-.416-.8-.768-.992-.3413-.2027-.7467-.304-1.216-.304-.64 0-1.152.1493-1.536.448s-.6667.688-.848 1.168c-.1707.4693-.256.9707-.256 1.504 0 .5547.0907 1.0667.272 1.536s.464.848.848 1.136c.384.2773.88.416 1.488.416.448 0 .8693-.096 1.264-.288.4053-.192.672-.5333.8-1.024h1.408c-.1067.576-.336 1.0507-.688 1.424-.3413.3733-.7627.6507-1.264.832-.4907.1707-1.0133.256-1.568.256zm5.2438-.096v-8.432h1.36v8.432zm.672-9.68c-.2774 0-.5014-.0853-.672-.256-.16-.1707-.24-.3893-.24-.656s.0853-.48.256-.64c.1706-.17067.3893-.256.656-.256.2453 0 .4586.08533.64.256.192.17067.288.384.288.64 0 .2667-.0907.4853-.272.656-.1814.1707-.4.256-.656.256zm2.828 9.68v-8.432h1.312l.064 1.28c.192-.3093.4373-.5653.736-.768.2986-.2027.624-.352.976-.448.3626-.1067.7146-.16 1.056-.16.8213 0 1.4613.1707 1.92.512.4693.3413.8.8053.992 1.392.2026.576.304 1.232.304 1.968v4.656h-1.36v-4.288c0-.3947-.0267-.7733-.08-1.136-.0427-.3627-.1387-.688-.288-.976-.1387-.288-.3414-.512-.608-.672-.2667-.1707-.624-.256-1.072-.256-.5547 0-1.0294.1547-1.424.464-.384.3093-.6774.7253-.88 1.248-.192.5227-.288 1.1093-.288 1.76v3.856zm13.1011.096c-.896 0-1.6374-.1813-2.224-.544-.5867-.3733-1.024-.8853-1.312-1.536s-.432-1.392-.432-2.224c0-.8427.1493-1.584.448-2.224.3093-.6507.7573-1.1627 1.344-1.536.5866-.3733 1.3066-.56 2.16-.56.6613 0 1.2266.128 1.696.384.48.2453.8746.576 1.184.992.3093.416.5333.8747.672 1.376.1386.4907.1973.9867.176 1.488-.0107.096-.0214.192-.032.288 0 .096-.0054.192-.016.288h-6.256c.0426.4907.1653.9333.368 1.328.2026.3947.4906.7093.864.944.3733.224.8373.336 1.392.336.2773 0 .5546-.032.832-.096.288-.0747.544-.1973.768-.368.2346-.1707.4-.4.496-.688h1.392c-.128.544-.368.992-.72 1.344-.352.3413-.7734.5973-1.264.768-.4907.16-1.0027.24-1.536.24zm-2.56-4.992h4.88c-.0107-.48-.1174-.9013-.32-1.264-.2027-.3627-.48-.6453-.832-.848-.3414-.2027-.752-.304-1.232-.304-.5227 0-.9654.112-1.328.336-.352.224-.624.5173-.816.88s-.3094.7627-.352 1.2z" fill="#2965ff"/></svg>