<svg fill="none" height="60" viewBox="0 0 199 60" width="199" xmlns="http://www.w3.org/2000/svg"><rect height="58.5" rx="29.25" stroke="#fff" stroke-width="1.5" width="197.5" x=".75" y=".75"/><path d="m33.74 37v-14.14h1.74v6.4h7.58v-6.4h1.74v14.14h-1.74v-6.14h-7.58v6.14zm18.6913.12c-1.12 0-2.0467-.2267-2.78-.68-.7334-.4667-1.28-1.1067-1.64-1.92s-.54-1.74-.54-2.78c0-1.0533.1866-1.98.56-2.78.3866-.8133.9466-1.4533 1.68-1.92.7333-.4667 1.6333-.7 2.6999-.7.8267 0 1.5334.16 2.1201.48.6.3067 1.0933.72 1.48 1.24.3866.52.6666 1.0933.84 1.72.1733.6133.2466 1.2333.22 1.86-.0134.12-.0267.24-.04.36 0 .12-.0067.24-.02.36h-7.82c.0533.6133.2066 1.1667.46 1.66.2533.4933.6133.8867 1.08 1.18.4666.28 1.0466.42 1.74.42.3466 0 .6933-.04 1.04-.12.36-.0933.68-.2467.96-.46.2933-.2133.5-.5.62-.86h1.74c-.16.68-.46 1.24-.9 1.68-.44.4267-.9667.7467-1.58.96-.6134.2-1.2534.3-1.92.3zm-3.2-6.24h6.1c-.0134-.6-.1467-1.1267-.4-1.58-.2534-.4533-.6-.8067-1.04-1.06-.4267-.2533-.94-.38-1.54-.38-.6534 0-1.2067.14-1.66.42-.44.28-.78.6467-1.02 1.1s-.3867.9533-.44 1.5zm10.1048 6.12v-10.54h1.64l.08 1.64c.2667-.4133.5733-.7467.92-1 .36-.2533.7533-.44 1.18-.56.44-.1333.9133-.2 1.42-.2h.26.28v1.6h-.62c-.8267 0-1.5.18-2.02.54-.5067.3467-.8733.82-1.1 1.42-.2267.5867-.34 1.24-.34 1.96v5.14zm11.8256.12c-1.12 0-2.0466-.2267-2.78-.68-.7333-.4667-1.28-1.1067-1.64-1.92s-.54-1.74-.54-2.78c0-1.0533.1867-1.98.56-2.78.3867-.8133.9467-1.4533 1.68-1.92.7334-.4667 1.6334-.7 2.7-.7.8267 0 1.5334.16 2.12.48.6.3067 1.0934.72 1.48 1.24.3867.52.6667 1.0933.84 1.72.1734.6133.2467 1.2333.22 1.86-.0133.12-.0266.24-.04.36 0 .12-.0066.24-.02.36h-7.82c.0534.6133.2067 1.1667.46 1.66.2534.4933.6134.8867 1.08 1.18.4667.28 1.0467.42 1.74.42.3467 0 .6934-.04 1.04-.12.36-.0933.68-.2467.96-.46.2934-.2133.5-.5.62-.86h1.74c-.16.68-.46 1.24-.9 1.68-.44.4267-.9666.7467-1.58.96-.6133.2-1.2533.3-1.92.3zm-3.2-6.24h6.1c-.0133-.6-.1466-1.1267-.4-1.58-.2533-.4533-.6-.8067-1.04-1.06-.4266-.2533-.94-.38-1.54-.38-.6533 0-1.2066.14-1.66.42-.44.28-.78.6467-1.02 1.1s-.3866.9533-.44 1.5zm18.8755 6.24c-.48 0-.9467-.06-1.4-.18-.44-.1333-.84-.3267-1.2-.58-.3467-.2667-.6267-.5933-.84-.98-.2-.4-.3-.86-.3-1.38 0-.6.1067-1.1067.32-1.52.2267-.4133.5267-.74.9-.98s.8067-.4133 1.3-.52 1.0067-.16 1.54-.16h3.1c0-.6-.0867-1.12-.26-1.56-.16-.44-.4267-.78-.8-1.02-.3733-.2533-.8667-.38-1.48-.38-.3733 0-.72.04-1.04.12s-.5933.2067-.82.38-.3933.4067-.5.7h-1.82c.0933-.48.2733-.8867.54-1.22.28-.3467.6133-.6267 1-.84.4-.2267.8267-.3933 1.28-.5s.9067-.16 1.36-.16c1.52 0 2.6.4467 3.24 1.34s.96 2.1.96 3.62v5.7h-1.42l-.1-1.34c-.2933.4-.6467.7067-1.06.92s-.84.3533-1.28.42c-.4267.08-.8333.12-1.22.12zm.16-1.5c.6667 0 1.24-.1067 1.72-.32.4933-.2267.8733-.5533 1.14-.98s.4-.9467.4-1.56v-.52h-1.86c-.44 0-.8733.0067-1.3.02s-.8133.0667-1.16.16-.6267.2533-.84.48c-.2.2267-.3.5533-.3.98 0 .4.1.7267.3.98.2133.2533.4867.4467.82.58.3467.12.7067.18 1.08.18zm7.5537 1.38v-10.54h1.64l.08 1.6c.24-.3867.5467-.7067.92-.96.3734-.2533.78-.44 1.22-.56.4534-.1333.8934-.2 1.32-.2 1.0271 0 1.8271.2133 2.4001.64.587.4267 1 1.0067 1.24 1.74.253.72.38 1.54.38 2.46v5.82h-1.7v-5.36c0-.4933-.033-.9667-.1-1.42-.053-.4533-.173-.86-.36-1.22-.173-.36-.427-.64-.76-.84-.333-.2133-.78-.32-1.3401-.32-.6933 0-1.2866.1933-1.78.58-.48.3867-.8466.9067-1.1 1.56-.24.6533-.36 1.3867-.36 2.2v4.82zm16.0361.12c-1.053 0-1.92-.2333-2.6-.7-.68-.48-1.186-1.12-1.52-1.92-.333-.8133-.5-1.7267-.5-2.74s.167-1.9267.5-2.74c.334-.8267.847-1.48 1.54-1.96.694-.48 1.58-.72 2.66-.72.414 0 .827.0533 1.24.16.427.0933.827.2467 1.2.46.374.2.694.4733.96.82v-4.92h1.7v14.14h-1.62l-.08-1.58c-.24.4-.546.7267-.92.98-.36.24-.76.42-1.2.54s-.893.18-1.36.18zm.24-1.5c.707 0 1.3-.18 1.78-.54s.847-.84 1.1-1.44c.254-.6.38-1.2533.38-1.96 0-.7333-.126-1.3867-.38-1.96-.24-.5733-.6-1.0267-1.08-1.36s-1.086-.5-1.82-.5c-.76 0-1.373.1733-1.84.52-.453.3467-.786.82-1 1.42-.2.5867-.3 1.2467-.3 1.98 0 .5333.054 1.0333.16 1.5.12.4533.3.86.54 1.22.254.3467.58.62.98.82s.894.3 1.48.3zm13.401 1.38v-14.14h2.22l7.38 11.78v-11.78h1.74v14.14h-2.18l-7.42-11.74v11.74zm19.025.12c-1.107 0-2.034-.2267-2.78-.68-.747-.4667-1.307-1.1067-1.68-1.92-.36-.8133-.54-1.74-.54-2.78 0-1.0533.186-1.98.56-2.78.373-.8133.933-1.4533 1.68-1.92.746-.4667 1.68-.7 2.8-.7 1.106 0 2.026.2333 2.76.7.746.4667 1.3 1.1067 1.66 1.92.373.8.56 1.7267.56 2.78 0 1.04-.187 1.9667-.56 2.78-.374.8133-.934 1.4533-1.68 1.92-.734.4533-1.66.68-2.78.68zm0-1.5c.773 0 1.4-.1733 1.88-.52.493-.3467.853-.8133 1.08-1.4.24-.5867.36-1.24.36-1.96s-.12-1.3733-.36-1.96c-.227-.5867-.587-1.0533-1.08-1.4-.48-.3467-1.107-.52-1.88-.52-.76 0-1.387.1733-1.88.52-.48.3467-.84.8133-1.08 1.4-.227.5867-.341 1.24-.341 1.96s.114 1.3733.341 1.96c.24.5867.6 1.0533 1.08 1.4.493.3467 1.12.52 1.88.52zm9.474 1.38-3.28-10.54h1.92l2.52 8.9 2.6-8.9h2.3l2.62 8.9 2.48-8.9h1.94l-3.28 10.54h-2.32l-2.6-8.54-2.6 8.54z" fill="#fff"/></svg>