<svg fill="none" height="541" viewBox="0 0 370 541" width="370" xmlns="http://www.w3.org/2000/svg" xmlns:xlink="http://www.w3.org/1999/xlink"><clipPath id="a"><path d="m0 0h370v541h-370z"/></clipPath><g clip-path="url(#a)"><circle cx="80" cy="357.998" fill="#fff" r="77.5" stroke="#2965ff" stroke-width="5"/><ellipse cx="127.5" cy="357.998" fill="#2965ff" rx="13.5" ry="22"/><path d="m312.703 565.297c31.644-7.567 51.162-39.355 43.594-71-7.568-31.644-39.356-51.162-71-43.594s-51.162 39.356-43.594 71c7.568 31.645 39.356 51.162 71 43.594z" fill="#2965ff" stroke="#2965ff" stroke-linejoin="round" stroke-width="5"/><path d="m296.578 491.863c0-4.25 1.701-5.851 4.662-5.851s4.676 1.615 4.676 5.851v.466c0 1.104.895 2 2 2h4.956c1.033 0 1.871-.838 1.871-1.871 0-7.395-2.85-12.298-8.439-14.108-.903-.293-1.579-1.096-1.579-2.046v-.775c0-1.104-.895-2-2-2h-3.636c-1.105 0-2 .896-2 2v.793c0 .942-.665 1.74-1.557 2.04-5.523 1.857-8.361 6.778-8.361 14.096 0 17.003 18.263 17.584 18.263 29.754 0 4.251-1.87 5.781-4.846 5.781-2.975 0-4.831-1.53-4.831-5.781v-2.675c0-1.105-.896-2-2-2h-4.771c-1.104 0-2 .895-2 2v2.08c0 7.415 2.854 12.381 8.519 14.198.906.29 1.584 1.094 1.584 2.046v.7c0 1.104.895 2 2 2h3.636c1.105 0 2-.896 2-2v-.718c0-.944.667-1.743 1.563-2.039 5.613-1.852 8.54-6.771 8.54-14.187 0-16.931-18.25-17.526-18.25-29.754z" fill="#fff"/><path d="m312.703 415.295c31.644-7.567 51.162-39.355 43.594-71-7.568-31.644-39.356-51.162-71-43.594s-51.162 39.356-43.594 71c7.568 31.645 39.356 51.162 71 43.594z" fill="#7ee100" stroke="#7ee100" stroke-linejoin="round" stroke-width="5"/><path d="m296.578 341.861c0-4.25 1.701-5.851 4.662-5.851s4.676 1.615 4.676 5.851v.466c0 1.104.895 2 2 2h4.956c1.033 0 1.871-.838 1.871-1.87 0-7.396-2.85-12.299-8.439-14.109-.903-.293-1.579-1.096-1.579-2.046v-.775c0-1.104-.895-2-2-2h-3.636c-1.105 0-2 .896-2 2v.793c0 .942-.665 1.74-1.557 2.04-5.523 1.857-8.361 6.778-8.361 14.097 0 17.002 18.263 17.583 18.263 29.754 0 4.25-1.87 5.78-4.846 5.78-2.975 0-4.831-1.53-4.831-5.78v-2.676c0-1.105-.896-2-2-2h-4.771c-1.104 0-2 .895-2 2v2.08c0 7.415 2.854 12.381 8.519 14.198.906.29 1.584 1.094 1.584 2.046v.7c0 1.104.895 2 2 2h3.636c1.105 0 2-.896 2-2v-.718c0-.944.667-1.743 1.563-2.039 5.613-1.852 8.54-6.771 8.54-14.187 0-16.931-18.25-17.526-18.25-29.754z" fill="#fff"/><path d="m312.703 265.297c31.644-7.567 51.162-39.355 43.594-71-7.568-31.644-39.356-51.162-71-43.594s-51.162 39.356-43.594 71c7.568 31.645 39.356 51.162 71 43.594z" fill="#fc4c02" stroke="#fc4c02" stroke-linejoin="round" stroke-width="5"/><path d="m296.578 191.863c0-4.25 1.701-5.851 4.662-5.851s4.676 1.615 4.676 5.851v.466c0 1.104.895 2 2 2h4.956c1.033 0 1.871-.838 1.871-1.871 0-7.395-2.85-12.298-8.439-14.108-.903-.293-1.579-1.096-1.579-2.046v-.775c0-1.104-.895-2-2-2h-3.636c-1.105 0-2 .896-2 2v.793c0 .942-.665 1.74-1.557 2.04-5.523 1.857-8.361 6.778-8.361 14.096 0 17.003 18.263 17.584 18.263 29.754 0 4.251-1.87 5.781-4.846 5.781-2.975 0-4.831-1.53-4.831-5.781v-2.675c0-1.105-.896-2-2-2h-4.771c-1.104 0-2 .895-2 2v2.08c0 7.415 2.854 12.381 8.519 14.198.906.29 1.584 1.094 1.584 2.046v.7c0 1.104.895 2 2 2h3.636c1.105 0 2-.896 2-2v-.718c0-.944.667-1.743 1.563-2.039 5.613-1.852 8.54-6.771 8.54-14.187 0-16.931-18.25-17.526-18.25-29.754z" fill="#fff"/><path d="m312.703 115.297c31.644-7.567 51.162-39.3553 43.594-70.9996-7.568-31.6442-39.356-51.16201-71-43.594086-31.644 7.567926-51.162 39.355686-43.594 70.999986 7.568 31.6447 39.356 51.1617 71 43.5937z" fill="#2965ff" stroke="#2965ff" stroke-linejoin="round" stroke-width="5"/><path d="m296.578 41.8634c0-4.2506 1.701-5.8516 4.662-5.8516s4.676 1.6152 4.676 5.8516v.4653c0 1.1046.895 2 2 2h4.956c1.033 0 1.871-.8373 1.871-1.8702 0-7.3951-2.85-12.2986-8.439-14.109-.903-.2926-1.579-1.0955-1.579-2.0452v-.775c0-1.1046-.895-2-2-2h-3.636c-1.105 0-2 .8954-2 2v.793c0 .9415-.665 1.7398-1.557 2.0399-5.523 1.8569-8.361 6.7781-8.361 14.0963 0 17.0023 18.263 17.5832 18.263 29.754 0 4.2505-1.87 5.7807-4.846 5.7807-2.975 0-4.831-1.5302-4.831-5.7807v-2.6757c0-1.1045-.896-2-2-2h-4.771c-1.104 0-2 .8955-2 2v2.0806c0 7.4143 2.854 12.3805 8.519 14.1971.906.2906 1.584 1.0947 1.584 2.0462v.7c0 1.1046.895 2 2 2h3.636c1.105 0 2-.8954 2-2v-.7177c0-.9436.667-1.7434 1.563-2.0391 5.613-1.8516 8.54-6.7706 8.54-14.1865 0-16.9314-18.25-17.5265-18.25-29.754z" fill="#fff"/></g></svg>