<svg fill="none" height="60" viewBox="0 0 267 60" width="267" xmlns="http://www.w3.org/2000/svg"><rect height="58.5" rx="29.25" stroke="#fc4c02" stroke-width="1.5" width="265.5" x=".75" y=".75"/><path d="m44.6 39.52-2.12-2.9c-.4133.1733-.86.3067-1.34.4-.4667.0933-.9733.14-1.52.14-1.4667 0-2.6933-.3133-3.68-.94s-1.7333-1.4867-2.24-2.58c-.4933-1.0933-.74-2.3267-.74-3.7 0-1.3867.2467-2.6267.74-3.72.5067-1.0933 1.2533-1.9533 2.24-2.58s2.2133-.94 3.68-.94 2.6867.3133 3.66.94c.9867.6267 1.7267 1.4867 2.22 2.58.5067 1.0933.76 2.3333.76 3.72 0 1.2133-.2 2.3133-.6 3.3-.3867.9733-.96 1.7867-1.72 2.44l2.02 2.8zm-4.98-3.94c1.12 0 2.04-.2533 2.76-.76.72-.52 1.2467-1.2067 1.58-2.06.3467-.8533.52-1.7933.52-2.82 0-1.04-.1733-1.9867-.52-2.84s-.88-1.5333-1.6-2.04c-.72-.52-1.6333-.78-2.74-.78s-2.0267.26-2.76.78c-.72.52-1.26 1.2067-1.62 2.06-.3467.8533-.52 1.7933-.52 2.82 0 1.0133.1733 1.9467.52 2.8s.88 1.54 1.6 2.06c.7333.52 1.66.78 2.78.78zm13.3348 1.54c-1.4533 0-2.56-.3867-3.32-1.16-.7466-.7733-1.12-1.96-1.12-3.56v-5.94h1.7v5.86c0 .6933.1 1.2867.3 1.78s.5.8733.9 1.14c.4134.2533.9267.38 1.54.38.64 0 1.1667-.1267 1.58-.38.4134-.2667.7134-.6467.9-1.14.2-.4933.3-1.0867.3-1.78v-5.86h1.7v5.94c0 1.6-.3866 2.7867-1.16 3.56-.76.7733-1.8666 1.16-3.32 1.16zm10.5035 0c-.48 0-.9467-.06-1.4-.18-.44-.1333-.84-.3267-1.2-.58-.3467-.2667-.6267-.5933-.84-.98-.2-.4-.3-.86-.3-1.38 0-.6.1066-1.1067.32-1.52.2266-.4133.5266-.74.9-.98.3733-.24.8066-.4133 1.3-.52.4933-.1067 1.0066-.16 1.54-.16h3.1c0-.6-.0867-1.12-.26-1.56-.16-.44-.4267-.78-.8-1.02-.3734-.2533-.8667-.38-1.48-.38-.3734 0-.72.04-1.04.12s-.5934.2067-.82.38c-.2267.1733-.3934.4067-.5.7h-1.82c.0933-.48.2733-.8867.54-1.22.28-.3467.6133-.6267 1-.84.4-.2267.8266-.3933 1.28-.5.4533-.1067.9066-.16 1.36-.16 1.52 0 2.6.4467 3.24 1.34s.96 2.1.96 3.62v5.7h-1.42l-.1-1.34c-.2934.4-.6467.7067-1.06.92-.4134.2133-.84.3533-1.28.42-.4267.08-.8334.12-1.22.12zm.16-1.5c.6666 0 1.24-.1067 1.72-.32.4933-.2267.8733-.5533 1.14-.98.2666-.4267.4-.9467.4-1.56v-.52h-1.86c-.44 0-.8734.0067-1.3.02-.4267.0133-.8134.0667-1.16.16-.3467.0933-.6267.2533-.84.48-.2.2267-.3.5533-.3.98 0 .4.1.7267.3.98.2133.2533.4866.4467.82.58.3466.12.7066.18 1.08.18zm7.5537 1.38v-14.14h1.7v14.14zm4.375 0v-10.54h1.7v10.54zm.84-12.1c-.3466 0-.6266-.1067-.84-.32-.2-.2133-.3-.4867-.3-.82s.1067-.6.32-.8c.2134-.2133.4867-.32.82-.32.3067 0 .5734.1067.8.32.24.2133.36.48.36.8 0 .3333-.1133.6067-.34.82-.2266.2133-.5.32-.82.32zm7.495 12.22c-1.1066 0-1.8866-.3-2.34-.9-.44-.6-.66-1.4533-.66-2.56v-5.7h-1.72v-1.5h1.72v-3.16h1.7v3.16h3.24v1.5h-3.24v5.48c0 .4.0334.7667.1 1.1.0667.32.2067.58.42.78.2134.1867.5334.2867.96.3.3067 0 .5734-.0533.8-.16.24-.1067.44-.2333.6-.38l.74 1.24c-.2266.1867-.4666.34-.72.46-.24.12-.4933.2067-.76.26-.2533.0533-.5333.08-.84.08zm8.6097 4.6c-.8133 0-1.6-.1133-2.36-.34-.7466-.2267-1.42-.62-2.02-1.18l.74-1.34c.52.4133 1.0734.74 1.66.98.6.24 1.2267.36 1.88.36 1.0934 0 1.8734-.32 2.34-.96.48-.6267.72-1.4267.72-2.4v-1.26c-.24.36-.5466.66-.92.9-.36.2267-.76.4-1.2.52-.44.1067-.8933.16-1.36.16-1.04 0-1.86-.2067-2.46-.62s-1.0266-.9867-1.28-1.72c-.2533-.7333-.38-1.58-.38-2.54v-5.82h1.7v5.34c0 .48.0267.9533.08 1.42.0667.4533.1934.8667.38 1.24.1867.36.46.6533.82.88.36.2133.84.32 1.44.32.76 0 1.3667-.1867 1.82-.56.4667-.3733.8-.8733 1-1.5.2134-.6267.32-1.32.32-2.08v-5.06h1.7v10.54c0 .76-.1 1.4333-.3 2.02s-.5 1.08-.9 1.48-.8866.7-1.46.9c-.56.2133-1.2133.32-1.96.32zm16.0643-4.6c-.48 0-.947-.06-1.4-.18-.44-.1333-.84-.3267-1.2-.58-.347-.2667-.627-.5933-.84-.98-.2-.4-.3-.86-.3-1.38 0-.6.107-1.1067.32-1.52.227-.4133.527-.74.9-.98s.807-.4133 1.3-.52 1.007-.16 1.54-.16h3.1c0-.6-.087-1.12-.26-1.56-.16-.44-.427-.78-.8-1.02-.373-.2533-.867-.38-1.48-.38-.373 0-.72.04-1.04.12s-.593.2067-.82.38-.393.4067-.5.7h-1.82c.093-.48.273-.8867.54-1.22.28-.3467.613-.6267 1-.84.4-.2267.827-.3933 1.28-.5s.907-.16 1.36-.16c1.52 0 2.6.4467 3.24 1.34s.96 2.1.96 3.62v5.7h-1.42l-.1-1.34c-.293.4-.647.7067-1.06.92s-.84.3533-1.28.42c-.427.08-.833.12-1.22.12zm.16-1.5c.667 0 1.24-.1067 1.72-.32.493-.2267.873-.5533 1.14-.98s.4-.9467.4-1.56v-.52h-1.86c-.44 0-.873.0067-1.3.02s-.813.0667-1.16.16-.627.2533-.84.48c-.2.2267-.3.5533-.3.98 0 .4.1.7267.3.98.213.2533.487.4467.82.58.347.12.707.18 1.08.18zm7.554 1.38v-10.54h1.64l.08 1.6c.24-.3867.546-.7067.92-.96.373-.2533.78-.44 1.22-.56.453-.1333.893-.2 1.32-.2 1.026 0 1.826.2133 2.4.64.586.4267 1 1.0067 1.24 1.74.253.72.38 1.54.38 2.46v5.82h-1.7v-5.36c0-.4933-.034-.9667-.1-1.42-.054-.4533-.174-.86-.36-1.22-.174-.36-.427-.64-.76-.84-.334-.2133-.78-.32-1.34-.32-.694 0-1.287.1933-1.78.58-.48.3867-.847.9067-1.1 1.56-.24.6533-.36 1.3867-.36 2.2v4.82zm16.036.12c-1.053 0-1.92-.2333-2.6-.7-.68-.48-1.187-1.12-1.52-1.92-.333-.8133-.5-1.7267-.5-2.74s.167-1.9267.5-2.74c.333-.8267.847-1.48 1.54-1.96s1.58-.72 2.66-.72c.413 0 .827.0533 1.24.16.427.0933.827.2467 1.2.46.373.2.693.4733.96.82v-4.92h1.7v14.14h-1.62l-.08-1.58c-.24.4-.547.7267-.92.98-.36.24-.76.42-1.2.54s-.893.18-1.36.18zm.24-1.5c.707 0 1.3-.18 1.78-.54s.847-.84 1.1-1.44.38-1.2533.38-1.96c0-.7333-.127-1.3867-.38-1.96-.24-.5733-.6-1.0267-1.08-1.36s-1.087-.5-1.82-.5c-.76 0-1.373.1733-1.84.52-.453.3467-.787.82-1 1.42-.2.5867-.3 1.2467-.3 1.98 0 .5333.053 1.0333.16 1.5.12.4533.3.86.54 1.22.253.3467.58.62.98.82s.893.3 1.48.3zm19.121 1.54c-1.453 0-2.667-.3067-3.64-.92-.96-.6267-1.68-1.48-2.16-2.56-.467-1.0933-.7-2.34-.7-3.74 0-1.3867.24-2.62.72-3.7.48-1.0933 1.2-1.9533 2.16-2.58.973-.64 2.193-.96 3.66-.96 1.04 0 1.933.1667 2.68.5.76.32 1.373.7667 1.84 1.34s.787 1.2467.96 2.02h-1.76c-.2-.6933-.633-1.2467-1.3-1.66-.653-.4133-1.48-.62-2.48-.62-1.12 0-2.027.2667-2.72.8-.68.52-1.18 1.2067-1.5 2.06-.32.84-.48 1.7533-.48 2.74 0 1.04.167 1.9933.5 2.86s.853 1.56 1.56 2.08c.707.5067 1.607.76 2.7.76.667 0 1.26-.0933 1.78-.28.533-.1867.973-.4533 1.32-.8.36-.3467.607-.7467.74-1.2h1.9c-.2.7733-.56 1.4533-1.08 2.04-.507.5733-1.153 1.02-1.94 1.34s-1.707.48-2.76.48zm7.962-.16v-10.54h1.64l.08 1.64c.267-.4133.573-.7467.92-1 .36-.2533.753-.44 1.18-.56.44-.1333.913-.2 1.42-.2h.26.28v1.6h-.62c-.827 0-1.5.18-2.02.54-.507.3467-.873.82-1.1 1.42-.227.5867-.34 1.24-.34 1.96v5.14zm11.826.12c-1.12 0-2.047-.2267-2.78-.68-.734-.4667-1.28-1.1067-1.64-1.92s-.54-1.74-.54-2.78c0-1.0533.186-1.98.56-2.78.386-.8133.946-1.4533 1.68-1.92.733-.4667 1.633-.7 2.7-.7.826 0 1.533.16 2.12.48.6.3067 1.093.72 1.48 1.24.386.52.666 1.0933.84 1.72.173.6133.246 1.2333.22 1.86-.014.12-.027.24-.04.36 0 .12-.007.24-.02.36h-7.82c.053.6133.206 1.1667.46 1.66.253.4933.613.8867 1.08 1.18.466.28 1.046.42 1.74.42.346 0 .693-.04 1.04-.12.36-.0933.68-.2467.96-.46.293-.2133.5-.5.62-.86h1.74c-.16.68-.46 1.24-.9 1.68-.44.4267-.967.7467-1.58.96-.614.2-1.254.3-1.92.3zm-3.2-6.24h6.1c-.014-.6-.147-1.1267-.4-1.58-.254-.4533-.6-.8067-1.04-1.06-.427-.2533-.94-.38-1.54-.38-.654 0-1.207.14-1.66.42-.44.28-.78.6467-1.02 1.1s-.387.9533-.44 1.5zm13.485 6.24c-.48 0-.947-.06-1.4-.18-.44-.1333-.84-.3267-1.2-.58-.347-.2667-.627-.5933-.84-.98-.2-.4-.3-.86-.3-1.38 0-.6.106-1.1067.32-1.52.226-.4133.526-.74.9-.98.373-.24.806-.4133 1.3-.52.493-.1067 1.006-.16 1.54-.16h3.1c0-.6-.087-1.12-.26-1.56-.16-.44-.427-.78-.8-1.02-.374-.2533-.867-.38-1.48-.38-.374 0-.72.04-1.04.12s-.594.2067-.82.38c-.227.1733-.394.4067-.5.7h-1.82c.093-.48.273-.8867.54-1.22.28-.3467.613-.6267 1-.84.4-.2267.826-.3933 1.28-.5.453-.1067.906-.16 1.36-.16 1.52 0 2.6.4467 3.24 1.34s.96 2.1.96 3.62v5.7h-1.42l-.1-1.34c-.294.4-.647.7067-1.06.92-.414.2133-.84.3533-1.28.42-.427.08-.834.12-1.22.12zm.16-1.5c.666 0 1.24-.1067 1.72-.32.493-.2267.873-.5533 1.14-.98.266-.4267.4-.9467.4-1.56v-.52h-1.86c-.44 0-.874.0067-1.3.02-.427.0133-.814.0667-1.16.16-.347.0933-.627.2533-.84.48-.2.2267-.3.5533-.3.98 0 .4.1.7267.3.98.213.2533.486.4467.82.58.346.12.706.18 1.08.18zm11.833 1.38c-.8 0-1.446-.12-1.94-.36-.48-.24-.833-.6133-1.06-1.12-.213-.5067-.32-1.1467-.32-1.92v-5.64h-1.72v-1.5h1.72v-3.14h1.7v3.14h2.82v1.5h-2.82v5.46c0 .72.127 1.2533.38 1.6.267.3333.8.5 1.6.5h.78v1.48zm3.123 0v-10.54h1.7v10.54zm.84-12.1c-.347 0-.627-.1067-.84-.32-.2-.2133-.3-.4867-.3-.82s.106-.6.32-.8c.213-.2133.486-.32.82-.32.306 0 .573.1067.8.32.24.2133.36.48.36.8 0 .3333-.114.6067-.34.82-.227.2133-.5.32-.82.32zm6.395 12.1-4.06-10.54h1.92l3.32 8.9 3.26-8.9h1.94l-4.06 10.54zm7.862 0v-10.54h1.7v10.54zm.84-12.1c-.346 0-.626-.1067-.84-.32-.2-.2133-.3-.4867-.3-.82s.107-.6.32-.8c.214-.2133.487-.32.82-.32.307 0 .574.1067.8.32.24.2133.36.48.36.8 0 .3333-.113.6067-.34.82-.226.2133-.5.32-.82.32zm7.495 12.22c-1.106 0-1.886-.3-2.34-.9-.44-.6-.66-1.4533-.66-2.56v-5.7h-1.72v-1.5h1.72v-3.16h1.7v3.16h3.24v1.5h-3.24v5.48c0 .4.034.7667.1 1.1.067.32.207.58.42.78.214.1867.534.2867.96.3.307 0 .574-.0533.8-.16.24-.1067.44-.2333.6-.38l.74 1.24c-.226.1867-.466.34-.72.46-.24.12-.493.2067-.76.26-.253.0533-.533.08-.84.08zm8.61 4.6c-.813 0-1.6-.1133-2.36-.34-.747-.2267-1.42-.62-2.02-1.18l.74-1.34c.52.4133 1.073.74 1.66.98.6.24 1.227.36 1.88.36 1.093 0 1.873-.32 2.34-.96.48-.6267.72-1.4267.72-2.4v-1.26c-.24.36-.547.66-.92.9-.36.2267-.76.4-1.2.52-.44.1067-.893.16-1.36.16-1.04 0-1.86-.2067-2.46-.62s-1.027-.9867-1.28-1.72-.38-1.58-.38-2.54v-5.82h1.7v5.34c0 .48.027.9533.08 1.42.067.4533.193.8667.38 1.24.187.36.46.6533.82.88.36.2133.84.32 1.44.32.76 0 1.367-.1867 1.82-.56.467-.3733.8-.8733 1-1.5.213-.6267.32-1.32.32-2.08v-5.06h1.7v10.54c0 .76-.1 1.4333-.3 2.02s-.5 1.08-.9 1.48-.887.7-1.46.9c-.56.2133-1.213.32-1.96.32z" fill="#fc4c02"/></svg>