<svg fill="none" height="72" viewBox="0 0 72 72" width="72" xmlns="http://www.w3.org/2000/svg" xmlns:xlink="http://www.w3.org/1999/xlink"><clipPath id="a"><rect height="72" rx="36" width="72"/></clipPath><mask id="b" height="72" maskUnits="userSpaceOnUse" width="72" x="0" y="0"><path d="m72 0h-72v72h72z" fill="#fff"/></mask><g clip-path="url(#a)"><rect fill="#7ee100" height="72" rx="36" width="72"/><g mask="url(#b)"><path d="m58.3863 30.7412h-17.1356v-17.1436c0-1.7729-1.4359-3.2089-3.2089-3.2089h-4.0753c-1.7729 0-3.2089 1.436-3.2089 3.2089v17.1356h-17.1356c-1.7729 0-3.2089 1.436-3.2089 3.2089v4.0753c0 1.7729 1.436 3.2089 3.2089 3.2089h17.1356v17.1356c0 1.773 1.436 3.2089 3.2089 3.2089h4.0753c1.773 0 3.2089-1.4359 3.2089-3.2089v-17.1356h17.1356c1.773 0 3.209-1.436 3.209-3.2089v-4.0753c0-1.7729-1.436-3.2089-3.209-3.2089z" fill="#fff"/></g></g></svg>