<svg fill="none" height="206" viewBox="0 0 309 206" width="309" xmlns="http://www.w3.org/2000/svg" xmlns:xlink="http://www.w3.org/1999/xlink"><clipPath id="a"><path d="m0 0h309v206h-309z"/></clipPath><clipPath id="b"><path d="m0 0h57v57h-57z"/></clipPath><clipPath id="c"><path d="m252 0h57v57h-57z"/></clipPath><clipPath id="d"><path d="m188 74h57v58h-57z"/></clipPath><clipPath id="e"><path d="m67.6729 149h57v57h-57z"/></clipPath><mask id="f" height="57" maskUnits="userSpaceOnUse" width="57" x="0" y="0"><path d="m57 0h-57v57h57z" fill="#fff"/></mask><mask id="g" height="57" maskUnits="userSpaceOnUse" width="57" x="252" y="0"><path d="m309 0h-57v57h57z" fill="#fff"/></mask><mask id="h" height="58" maskUnits="userSpaceOnUse" width="57" x="188" y="74"><path d="m245 74h-57v58h57z" fill="#fff"/></mask><mask id="i" height="57" maskUnits="userSpaceOnUse" width="58" x="67" y="149"><path d="m124.673 149h-57.0001v57h57.0001z" fill="#fff"/></mask><g clip-path="url(#a)"><g fill="#2965ff"><path d="m118.252 20.0144c-2.271-1.8219-5.627-1.4898-7.476.745l-6.848 8.2302c1.857-2.2348 1.516-5.5197-.754-7.3506-2.271-1.822-5.6278-1.4899-7.4767.7449 1.8579-2.2348 1.5168-5.5197-.7539-7.3507-2.2707-1.8219-5.6274-1.4899-7.4763.745l6.0313-7.25198c1.8579-2.23481 1.5168-5.51973-.7539-7.35066-2.2707-1.821965-5.6274-1.489883-7.4763.74494l-10.2138 12.287-7.5481 9.0829c-6.9827 8.3918-5.7082 20.7596 2.8362 27.6166l1.9835 1.5886c2.6746 2.1451 5.7531 3.5003 8.9213 4.0837.5834.2154 1.2116.3411 1.8758.3411h20.8399c2.935 0 5.314-2.3336 5.314-5.2236 0-2.881-2.379-5.2235-5.314-5.2235h-.834l3.527-4.2453 1.337-1.6065 11.031-13.2654c1.858-2.2348 1.517-5.5197-.754-7.3506z"/><path d="m59.7021 94.4031c-2.2707-1.8219-5.6274-1.4899-7.4763.745l-6.848 8.2299c1.8578-2.235 1.5168-5.5194-.754-7.3504-2.2707-1.8219-5.6274-1.4899-7.4763.745 1.8579-2.2349 1.5168-5.5198-.7539-7.3507-2.2707-1.822-5.6274-1.4899-7.4763.7449l6.0313-7.2519c1.8579-2.2348 1.5168-5.5197-.7539-7.3507-2.2707-1.8219-5.6274-1.4899-7.4763.745l-10.2138 12.287-7.5481 9.0829c-6.98269 8.3919-5.70821 20.7599 2.8362 27.6169l1.9835 1.588c2.6746 2.145 5.7531 3.501 8.9213 4.084.5834.215 1.2116.341 1.8758.341h20.8404c2.9348 0 5.3133-2.334 5.3133-5.224 0-2.881-2.3785-5.223-5.3133-5.223h-.8347l3.5272-4.245 1.3373-1.607 11.0305-13.265c1.8579-2.235 1.5168-5.5199-.7539-7.3509z"/><path d="m181.252 20.0144c-2.271-1.8219-5.627-1.4898-7.476.745l-6.848 8.2302c1.857-2.2348 1.516-5.5197-.754-7.3506-2.271-1.822-5.628-1.4899-7.477.7449 1.858-2.2348 1.517-5.5197-.754-7.3507-2.27-1.8219-5.627-1.4899-7.476.745l6.031-7.25198c1.858-2.23481 1.517-5.51973-.754-7.35066-2.27-1.821965-5.627-1.489883-7.476.74494l-10.214 12.287-7.548 9.0829c-6.982 8.3918-5.708 20.7596 2.836 27.6166l1.984 1.5886c2.675 2.1451 5.753 3.5003 8.921 4.0837.584.2154 1.212.3411 1.876.3411h20.84c2.935 0 5.314-2.3336 5.314-5.2236 0-2.881-2.379-5.2235-5.314-5.2235h-.834l3.527-4.2453 1.337-1.6065 11.031-13.2654c1.858-2.2348 1.517-5.5197-.754-7.3506z"/><path d="m123.283 94.4031c-2.271-1.8219-5.627-1.4899-7.476.745l-6.848 8.2299c1.858-2.235 1.517-5.5194-.754-7.3504-2.271-1.8219-5.628-1.4899-7.476.745 1.857-2.2349 1.516-5.5198-.7543-7.3507-2.2708-1.822-5.6275-1.4899-7.4764.7449l6.0314-7.2519c1.8583-2.2348 1.5163-5.5197-.754-7.3507-2.2707-1.8219-5.6274-1.4899-7.4763.745l-10.2137 12.287-7.5481 9.0829c-6.9827 8.3919-5.7083 20.7599 2.8361 27.6169l1.9835 1.588c2.6746 2.145 5.7531 3.501 8.9213 4.084.5834.215 1.2117.341 1.8759.341h20.8406c2.935 0 5.313-2.334 5.313-5.224 0-2.881-2.378-5.223-5.313-5.223h-.835l3.527-4.245 1.338-1.607 11.03-13.265c1.858-2.235 1.517-5.5199-.754-7.3509z"/><path d="m306.252 94.4031c-2.271-1.8219-5.627-1.4899-7.476.745l-6.848 8.2299c1.857-2.235 1.516-5.5194-.754-7.3504-2.271-1.8219-5.628-1.4899-7.477.745 1.858-2.2349 1.517-5.5198-.754-7.3507-2.27-1.822-5.627-1.4899-7.476.7449l6.031-7.2519c1.858-2.2348 1.517-5.5197-.754-7.3507-2.27-1.8219-5.627-1.4899-7.476.745l-10.214 12.287-7.548 9.0829c-6.982 8.3919-5.708 20.7599 2.836 27.6169l1.984 1.588c2.675 2.145 5.753 3.501 8.921 4.084.584.215 1.212.341 1.876.341h20.84c2.935 0 5.314-2.334 5.314-5.224 0-2.881-2.379-5.223-5.314-5.223h-.834l3.527-4.245 1.337-1.607 11.031-13.265c1.858-2.235 1.517-5.5199-.754-7.3509z"/><path d="m59.7021 168.792c-2.2707-1.822-5.6274-1.49-7.4763.745l-6.848 8.23c1.8578-2.235 1.5168-5.52-.754-7.351-2.2707-1.822-5.6274-1.49-7.4763.745 1.8579-2.235 1.5168-5.519-.7539-7.35-2.2707-1.822-5.6274-1.49-7.4763.745l6.0313-7.252c1.8579-2.235 1.5168-5.52-.7539-7.351-2.2707-1.822-5.6274-1.49-7.4763.745l-10.2138 12.287-7.5481 9.083c-6.98269 8.392-5.70821 20.759 2.8362 27.616l1.9835 1.589c2.6746 2.145 5.7531 3.5 8.9213 4.084.5834.215 1.2116.341 1.8758.341h20.8404c2.9348 0 5.3133-2.334 5.3133-5.224 0-2.881-2.3785-5.223-5.3133-5.223h-.8347l3.5272-4.246 1.3373-1.606 11.0305-13.266c1.8579-2.234 1.5168-5.519-.7539-7.35z"/><path d="m244.252 20.0144c-2.271-1.8219-5.627-1.4898-7.476.745l-6.848 8.2302c1.857-2.2348 1.516-5.5197-.754-7.3506-2.271-1.822-5.628-1.4899-7.477.7449 1.858-2.2348 1.517-5.5197-.754-7.3507-2.27-1.8219-5.627-1.4899-7.476.745l6.031-7.25198c1.858-2.23481 1.517-5.51973-.754-7.35066-2.27-1.821965-5.627-1.489883-7.476.74494l-10.214 12.287-7.548 9.0829c-6.982 8.3918-5.708 20.7596 2.836 27.6166l1.984 1.5886c2.675 2.1451 5.753 3.5003 8.921 4.0837.584.2154 1.212.3411 1.876.3411h20.84c2.935 0 5.314-2.3336 5.314-5.2236 0-2.881-2.379-5.2235-5.314-5.2235h-.834l3.527-4.2453 1.337-1.6065 11.031-13.2654c1.858-2.2348 1.517-5.5197-.754-7.3506z"/></g><g clip-path="url(#b)"><g fill="#7ee100" mask="url(#f)"><path d="m21.5995 19.2311-1.3083-1.3083c-.5716-.5716-1.4925-.5716-2.0577 0l-7.2147 7.2147-2.33718 2.3372c-.57159.5716-.57159 1.4925 0 2.0577l2.33718 2.3372 7.2147 7.2147c.5716.5716 1.4925.5716 2.0577 0l1.3083-1.3083c.5716-.5716.5716-1.4925 0-2.0577l-7.2147-7.2147 7.2147-7.2148c.5716-.5715.5716-1.4924 0-2.0577z"/><path d="m33.3872 12.5566h-2.6039c-.5843 0-1.0924.4002-1.2321.9717l-7.1702 29.3479c-.1969.8002.4128 1.5687 1.232 1.5687h2.6039c.5843 0 1.0924-.4001 1.2321-.9717l7.1703-29.3479c.1969-.8002-.4128-1.5687-1.2321-1.5687z"/></g></g><g clip-path="url(#c)"><g fill="#7ee100" mask="url(#g)"><path d="m300.325 27.4688-2.337-2.3371-7.215-7.2147c-.571-.5716-1.492-.5716-2.057 0l-1.309 1.3083c-.571.5716-.571 1.4925 0 2.0577l7.215 7.2147-7.215 7.2147c-.571.5716-.571 1.4925 0 2.0577l1.309 1.3083c.571.5716 1.492.5716 2.057 0l7.215-7.2147 2.337-2.3371c.572-.5716.572-1.4925 0-2.0578z"/><path d="m285.387 12.5566h-2.604c-.584 0-1.092.4002-1.232.9717l-7.17 29.3479c-.197.8002.413 1.5687 1.232 1.5687h2.604c.584 0 1.092-.4001 1.232-.9717l7.17-29.3479c.197-.8002-.413-1.5687-1.232-1.5687z"/></g></g><g clip-path="url(#d)"><g fill="#7ee100" mask="url(#h)"><path d="m236.324 101.949-2.337-2.3785-7.215-7.3413c-.571-.5816-1.492-.5816-2.057 0l-1.309 1.3312c-.571.5817-.571 1.5187 0 2.0938l7.215 7.3418-7.215 7.341c-.571.581-.571 1.518 0 2.094l1.309 1.331c.571.581 1.492.581 2.057 0l7.215-7.341 2.337-2.379c.572-.581.572-1.518 0-2.093z"/><path d="m209.6 93.5682-1.309-1.3312c-.571-.5816-1.492-.5816-2.058 0l-7.214 7.3413-2.337 2.3777c-.572.582-.572 1.519 0 2.094l2.337 2.378 7.214 7.342c.572.581 1.493.581 2.058 0l1.309-1.332c.571-.581.571-1.518 0-2.093l-7.215-7.342 7.215-7.3409c.571-.5817.571-1.5187 0-2.0939z"/><path d="m221.387 86.7754h-2.604c-.584 0-1.092.4071-1.232.9887l-7.17 29.8629c-.197.814.413 1.596 1.232 1.596h2.604c.584 0 1.092-.407 1.232-.989l7.17-29.8624c.197-.8143-.413-1.5962-1.232-1.5962z"/></g></g><g clip-path="url(#e)"><g fill="#7ee100" mask="url(#i)"><path d="m115.998 176.469-2.337-2.337-7.215-7.215c-.572-.572-1.492-.572-2.058 0l-1.308 1.308c-.572.572-.572 1.493 0 2.058l7.215 7.215-7.215 7.214c-.572.572-.572 1.493 0 2.058l1.308 1.308c.572.572 1.493.572 2.058 0l7.215-7.214 2.337-2.337c.572-.572.572-1.493 0-2.058z"/><path d="m101.06 161.557h-2.6038c-.5843 0-1.0924.4-1.2321.971l-7.1703 29.348c-.1969.8.4128 1.569 1.2321 1.569h2.6039c.5843 0 1.0924-.4 1.2321-.972l7.1701-29.348c.197-.8-.413-1.568-1.232-1.568z"/></g></g><circle cx="137.5" cy="127.5" fill="#7ee100" r="4.5"/><circle cx="154.5" cy="127.5" fill="#7ee100" r="4.5"/><circle cx="171.5" cy="127.5" fill="#7ee100" r="4.5"/></g></svg>