<svg width="54" height="54" viewBox="0 0 54 54" fill="none" xmlns="http://www.w3.org/2000/svg">
<g clip-path="url(#clip0_2305_2942)">
<rect width="54" height="54" rx="27" fill="#FC4C02"/>
<mask id="mask0_2305_2942" style="mask-type:luminance" maskUnits="userSpaceOnUse" x="0" y="0" width="54" height="54">
<path d="M54 0L0 0L0 54H54V0Z" fill="white"/>
</mask>
<g mask="url(#mask0_2305_2942)">
<path d="M27.2507 24.8715L20.6083 15.3711H17.0645L25.2953 27.1398L26.3302 28.6199L33.3758 38.6979H36.9196L28.2856 26.3516L27.2507 24.8715Z" fill="white"/>
<path d="M37.2921 7.82812L16.709 7.82812C11.7993 7.82812 7.82227 11.8052 7.82227 16.7148L7.82227 37.298C7.82227 42.2076 11.7993 46.1847 16.709 46.1847H37.2921C42.2018 46.1847 46.1788 42.2076 46.1788 37.298V16.7148C46.1788 11.8052 42.2018 7.82812 37.2921 7.82812ZM32.2862 40.3605L25.1564 29.9877L16.2336 40.3605H13.9292L24.1396 28.4955L13.9292 13.6343H21.7149L28.4656 23.4595L36.9191 13.6343H39.2235L29.4884 24.9517L40.0779 40.3605H32.2922H32.2862Z" fill="white"/>
</g>
</g>
<defs>
<clipPath id="clip0_2305_2942">
<rect width="54" height="54" rx="27" fill="white"/>
</clipPath>
</defs>
</svg>
