<svg fill="none" height="32" viewBox="0 0 113 32" width="113" xmlns="http://www.w3.org/2000/svg"><rect height="31" rx="15.5" stroke="#2965ff" width="112" x=".5" y=".5"/><path d="m18.672 21.096c-.8853 0-1.6213-.1813-2.208-.544-.576-.3733-1.008-.8853-1.296-1.536-.2773-.6507-.416-1.3867-.416-2.208 0-.8.144-1.5253.432-2.176.2987-.6613.7467-1.184 1.344-1.568.608-.3947 1.376-.592 2.304-.592.576 0 1.088.096 1.536.288.4587.192.8373.4747 1.136.848.2987.3627.5067.8213.624 1.376h-1.392c-.16-.4693-.416-.8-.768-.992-.3413-.2027-.7467-.304-1.216-.304-.64 0-1.152.1493-1.536.448s-.6667.688-.848 1.168c-.1707.4693-.256.9707-.256 1.504 0 .5547.0907 1.0667.272 1.536s.464.848.848 1.136c.384.2773.88.416 1.488.416.448 0 .8693-.096 1.264-.288.4053-.192.672-.5333.8-1.024h1.408c-.1067.576-.336 1.0507-.688 1.424-.3413.3733-.7627.6507-1.264.832-.4907.1707-1.0133.256-1.568.256zm8.9238 0c-.8854 0-1.6267-.1813-2.224-.544-.5974-.3733-1.0454-.8853-1.344-1.536-.288-.6507-.432-1.392-.432-2.224 0-.8427.1493-1.584.448-2.224.2986-.6507.7466-1.1627 1.344-1.536.5973-.3733 1.344-.56 2.24-.56.8853 0 1.6213.1867 2.208.56.5973.3733 1.04.8853 1.328 1.536.2986.64.448 1.3813.448 2.224 0 .832-.1494 1.5733-.448 2.224-.2987.6507-.7467 1.1627-1.344 1.536-.5867.3627-1.328.544-2.224.544zm0-1.2c.6186 0 1.12-.1387 1.504-.416.3946-.2773.6826-.6507.864-1.12.192-.4693.288-.992.288-1.568s-.096-1.0987-.288-1.568c-.1814-.4693-.4694-.8427-.864-1.12-.384-.2773-.8854-.416-1.504-.416-.608 0-1.1094.1387-1.504.416-.384.2773-.672.6507-.864 1.12-.1814.4693-.2721.992-.2721 1.568s.0907 1.0987.2721 1.568c.192.4693.48.8427.864 1.12.3946.2773.896.416 1.504.416zm5.8356 1.104v-8.432h1.312l.064 1.008c.1813-.256.384-.464.608-.624.2346-.16.4906-.2773.768-.352.288-.0853.592-.128.912-.128.5866 0 1.0613.128 1.424.384.3626.2453.6346.5707.816.976.192-.288.4106-.5333.656-.736.256-.2027.5386-.3573.848-.464.32-.1067.672-.16 1.056-.16.6186 0 1.1146.1333 1.488.4.384.2667.6613.6293.832 1.088.1706.448.256.9547.256 1.52v5.52h-1.36v-4.832c0-.2773-.016-.56-.048-.848-.0214-.288-.0854-.5547-.192-.8-.1067-.256-.2667-.4587-.48-.608-.2027-.16-.4907-.24-.864-.24-.352 0-.6507.0853-.896.256-.2347.16-.4267.3787-.576.656-.1494.2773-.256.576-.32.896-.064.3093-.096.6187-.096.928v4.592h-1.36v-4.848c0-.2667-.016-.544-.048-.832-.0214-.288-.08-.5547-.176-.8-.0854-.256-.2347-.4587-.448-.608-.2027-.16-.4854-.24-.848-.24-.512 0-.912.1493-1.2.448-.288.288-.4907.6453-.608 1.072-.1067.416-.16.8267-.16 1.232v4.576zm13.1094 3.04v-11.472h1.296l.064 1.264c.288-.4373.6773-.7733 1.168-1.008.5013-.2347 1.04-.352 1.616-.352.8533 0 1.552.192 2.096.576.544.3733.944.8853 1.2 1.536.2666.6507.4 1.3867.4 2.208s-.1334 1.5573-.4 2.208c-.2667.6507-.6774 1.1627-1.232 1.536-.5547.3733-1.264.56-2.128.56-.4267 0-.8107-.0427-1.152-.128-.3414-.096-.64-.2293-.896-.4-.256-.1813-.48-.3893-.672-.624v4.096zm3.968-4.144c.6186 0 1.1093-.1387 1.472-.416.3626-.288.624-.6667.784-1.136.1706-.4693.256-.9867.256-1.552 0-.576-.0854-1.0987-.256-1.568-.16-.4693-.4267-.8427-.8-1.12-.3734-.2773-.8694-.416-1.488-.416-.5547 0-1.0294.144-1.424.432-.384.2773-.6774.656-.88 1.136-.2027.4693-.304.9867-.304 1.552 0 .5867.096 1.1147.288 1.584s.4853.8373.88 1.104c.3946.2667.8853.4 1.472.4zm5.6882 1.104v-11.312h1.36v11.312zm3.5 0v-8.432h1.36v8.432zm.672-9.68c-.2773 0-.5013-.0853-.672-.256-.16-.1707-.24-.3893-.24-.656s.0853-.48.256-.64c.1707-.17067.3893-.256.656-.256.2453 0 .4587.08533.64.256.192.17067.288.384.288.64 0 .2667-.0907.4853-.272.656s-.4.256-.656.256zm5.532 9.776c-.384 0-.7573-.048-1.12-.144-.352-.1067-.672-.2613-.96-.464-.2773-.2133-.5013-.4747-.672-.784-.16-.32-.24-.688-.24-1.104 0-.48.0853-.8853.256-1.216.1813-.3307.4213-.592.72-.784s.6453-.3307 1.04-.416.8053-.128 1.232-.128h2.48c0-.48-.0693-.896-.208-1.248-.128-.352-.3413-.624-.64-.816-.2987-.2027-.6933-.304-1.184-.304-.2987 0-.576.032-.832.096s-.4747.1653-.656.304-.3147.3253-.4.56h-1.456c.0747-.384.2187-.7093.432-.976.224-.2773.4907-.5013.8-.672.32-.1813.6613-.3147 1.024-.4s.7253-.128 1.088-.128c1.216 0 2.08.3573 2.592 1.072s.768 1.68.768 2.896v4.56h-1.136l-.08-1.072c-.2347.32-.5173.5653-.848.736s-.672.2827-1.024.336c-.3413.064-.6667.096-.976.096zm.128-1.2c.5333 0 .992-.0853 1.376-.256.3947-.1813.6987-.4427.912-.784s.32-.7573.32-1.248v-.416h-1.488c-.352 0-.6987.0053-1.04.016s-.6507.0533-.928.128-.5013.2027-.672.384c-.16.1813-.24.4427-.24.784 0 .32.08.5813.24.784.1707.2027.3893.3573.656.464.2773.096.5653.144.864.144zm6.043 1.104v-8.432h1.312l.064 1.28c.192-.3093.4373-.5653.736-.768s.624-.352.976-.448c.3627-.1067.7147-.16 1.056-.16.8213 0 1.4613.1707 1.92.512.4693.3413.8.8053.992 1.392.2027.576.304 1.232.304 1.968v4.656h-1.36v-4.288c0-.3947-.0267-.7733-.08-1.136-.0427-.3627-.1387-.688-.288-.976-.1387-.288-.3413-.512-.608-.672-.2667-.1707-.624-.256-1.072-.256-.5547 0-1.0293.1547-1.424.464-.384.3093-.6773.7253-.88 1.248-.192.5227-.288 1.1093-.288 1.76v3.856zm13.0531.096c-.8853 0-1.6213-.1813-2.208-.544-.576-.3733-1.008-.8853-1.296-1.536-.2773-.6507-.416-1.3867-.416-2.208 0-.8.144-1.5253.432-2.176.2987-.6613.7467-1.184 1.344-1.568.608-.3947 1.376-.592 2.304-.592.576 0 1.088.096 1.536.288.4587.192.8374.4747 1.136.848.2987.3627.5067.8213.624 1.376h-1.392c-.16-.4693-.416-.8-.768-.992-.3413-.2027-.7466-.304-1.216-.304-.64 0-1.152.1493-1.536.448s-.6666.688-.848 1.168c-.1706.4693-.256.9707-.256 1.504 0 .5547.0907 1.0667.272 1.536.1814.4693.464.848.848 1.136.384.2773.88.416 1.488.416.448 0 .8694-.096 1.264-.288.4054-.192.672-.5333.8-1.024h1.408c-.1066.576-.336 1.0507-.688 1.424-.3413.3733-.7626.6507-1.264.832-.4906.1707-1.0133.256-1.568.256zm8.8918 0c-.896 0-1.6374-.1813-2.224-.544-.5867-.3733-1.024-.8853-1.312-1.536s-.432-1.392-.432-2.224c0-.8427.1493-1.584.448-2.224.3093-.6507.7573-1.1627 1.344-1.536.5866-.3733 1.3066-.56 2.16-.56.6613 0 1.2266.128 1.696.384.48.2453.8746.576 1.184.992.3093.416.5333.8747.672 1.376.1386.4907.1973.9867.176 1.488-.0107.096-.0214.192-.032.288 0 .096-.0054.192-.016.288h-6.256c.0426.4907.1653.9333.368 1.328.2026.3947.4906.7093.864.944.3733.224.8373.336 1.392.336.2773 0 .5546-.032.832-.096.288-.0747.544-.1973.768-.368.2346-.1707.4-.4.496-.688h1.392c-.128.544-.368.992-.72 1.344-.352.3413-.7734.5973-1.264.768-.4907.16-1.0027.24-1.536.24zm-2.56-4.992h4.88c-.0107-.48-.1174-.9013-.32-1.264-.2027-.3627-.48-.6453-.832-.848-.3414-.2027-.752-.304-1.232-.304-.5227 0-.9654.112-1.328.336-.352.224-.624.5173-.816.88s-.3094.7627-.352 1.2z" fill="#2965ff"/></svg>