<svg fill="none" height="72" viewBox="0 0 72 72" width="72" xmlns="http://www.w3.org/2000/svg" xmlns:xlink="http://www.w3.org/1999/xlink"><clipPath id="a"><rect height="72" rx="36" width="72"/></clipPath><mask id="b" height="72" maskUnits="userSpaceOnUse" width="72" x="0" y="0"><path d="m72 0h-72v72h72z" fill="#fff"/></mask><g clip-path="url(#a)"><rect fill="#fc4c02" height="72" rx="36" width="72"/><g fill="#fff" mask="url(#b)"><path d="m36.3332 33.1574-8.8566-12.6672h-4.7251l10.9744 15.6916 1.3799 1.9735 9.3941 13.4373h4.7251l-11.512-16.4617z"/><path d="m49.7223 10.4297h-27.4442c-6.5462 0-11.8489 5.3027-11.8489 11.8489v27.4442c0 6.5462 5.3027 11.849 11.8489 11.849h27.4442c6.5462 0 11.849-5.3028 11.849-11.849v-27.4442c0-6.5462-5.3028-11.8489-11.849-11.8489zm-6.6745 43.3765-9.5064-13.8304-11.897 13.8304h-3.0726l13.6138-15.82-13.6138-19.815h10.3809l9.001 13.1004 11.2713-13.1004h3.0725l-12.9801 15.0899 14.1193 20.5451h-10.3809z"/></g></g></svg>