<svg fill="none" height="72" viewBox="0 0 72 72" width="72" xmlns="http://www.w3.org/2000/svg" xmlns:xlink="http://www.w3.org/1999/xlink"><clipPath id="a"><rect height="72" rx="36" width="72"/></clipPath><mask id="b" height="72" maskUnits="userSpaceOnUse" width="72" x="0" y="0"><path d="m72 0h-72v72h72z" fill="#fff"/></mask><g clip-path="url(#a)"><rect fill="#fc4c02" height="72" rx="36" width="72"/><g mask="url(#b)"><path d="m44.5397 10.4297h-17.0795c-9.4101 0-17.0393 7.6292-17.0393 17.0393v17.0795c0 9.4101 7.6292 17.0393 17.0393 17.0393h17.0795c9.4101 0 17.0393-7.6292 17.0393-17.0393v-17.0795c0-9.4101-7.6292-17.0393-17.0393-17.0393zm-16.2853 38.6514h-5.8081v-18.4032h5.8081zm-2.904-21.3072c-1.7409 0-2.9041-1.0911-2.9041-2.4468 0-1.3558 1.1632-2.3907 2.9041-2.3907 1.7408 0 2.8399 1.0349 2.904 2.3907 0 1.3557-1.083 2.4468-2.904 2.4468zm24.2112 21.3072h-5.8081v-9.6829c0-1.9334-.9707-3.8748-3.3934-3.9149h-.0803c-2.3425 0-3.3132 1.9975-3.3132 3.9149v9.6829h-5.8081v-18.4032h5.8081v2.4789s1.8692-2.4789 5.6317-2.4789c3.7624 0 6.9633 2.6474 6.9633 7.9982z" fill="#fff"/></g></g></svg>