<svg fill="none" height="61" viewBox="0 0 143 61" width="143" xmlns="http://www.w3.org/2000/svg"><rect height="59" rx="29.5" stroke="#fc4c02" width="141" x=".810547" y="1.47656"/><path d="m34.0505 37.9766v-14.14h1.74v12.56h7.76v1.58zm11.0844 0v-10.54h1.7v10.54zm.84-12.1c-.3466 0-.6266-.1067-.84-.32-.2-.2134-.3-.4867-.3-.82 0-.3334.1067-.6.32-.8.2134-.2134.4867-.32.82-.32.3067 0 .5734.1066.8.32.24.2133.36.48.36.8 0 .3333-.1133.6066-.34.82-.2266.2133-.5.32-.82.32zm3.535 12.1v-10.54h1.64l.08 1.6c.24-.3867.5467-.7067.92-.96.3734-.2534.78-.44 1.22-.56.4534-.1334.8934-.2 1.32-.2 1.0267 0 1.8267.2133 2.4.64.5867.4266 1 1.0066 1.24 1.74.2534.72.38 1.54.38 2.46v5.82h-1.7v-5.36c0-.4934-.0333-.9667-.1-1.42-.0533-.4534-.1733-.86-.36-1.22-.1733-.36-.4266-.64-.76-.84-.3333-.2134-.78-.32-1.34-.32-.6933 0-1.2866.1933-1.78.58-.48.3866-.8466.9066-1.1 1.56-.24.6533-.36 1.3866-.36 2.2v4.82zm11.8164 0v-14.14h1.7v8.14h1.84l3.16-4.54h1.92l-3.52 5.02 3.82 5.52h-2l-3.18-4.52h-2.04v4.52zm14.9507.12c-1.12 0-2.0467-.2267-2.78-.68-.7334-.4667-1.28-1.1067-1.64-1.92-.36-.8134-.54-1.74-.54-2.78 0-1.0534.1866-1.98.56-2.78.3866-.8134.9466-1.4534 1.68-1.92.7333-.4667 1.6333-.7 2.7-.7.8266 0 1.5333.16 2.12.48.6.3066 1.0933.72 1.48 1.24.3866.52.6666 1.0933.84 1.72.1733.6133.2466 1.2333.22 1.86-.0134.12-.0267.24-.04.36 0 .12-.0067.24-.02.36h-7.82c.0533.6133.2066 1.1666.46 1.66.2533.4933.6133.8866 1.08 1.18.4666.28 1.0466.42 1.74.42.3466 0 .6933-.04 1.04-.12.36-.0934.68-.2467.96-.46.2933-.2134.5-.5.62-.86h1.74c-.16.68-.46 1.24-.9 1.68-.44.4266-.9667.7466-1.58.96-.6134.2-1.2534.3-1.92.3zm-3.2-6.24h6.1c-.0134-.6-.1467-1.1267-.4-1.58-.2534-.4534-.6-.8067-1.04-1.06-.4267-.2534-.94-.38-1.54-.38-.6534 0-1.2067.14-1.66.42-.44.28-.78.6466-1.02 1.1-.24.4533-.3867.9533-.44 1.5zm14.3248 6.24c-1.0533 0-1.92-.2334-2.6-.7-.68-.48-1.1867-1.12-1.52-1.92-.3333-.8134-.5-1.7267-.5-2.74 0-1.0134.1667-1.9267.5-2.74.3333-.8267.8467-1.48 1.54-1.96s1.58-.72 2.66-.72c.4133 0 .8267.0533 1.24.16.4267.0933.8267.2466 1.2.46.3733.2.6933.4733.96.82v-4.92h1.7v14.14h-1.62l-.08-1.58c-.24.4-.5467.7266-.92.98-.36.24-.76.42-1.2.54s-.8933.18-1.36.18zm.24-1.5c.7067 0 1.3-.18 1.78-.54s.8467-.84 1.1-1.44.38-1.2534.38-1.96c0-.7334-.1267-1.3867-.38-1.96-.24-.5734-.6-1.0267-1.08-1.36-.48-.3334-1.0867-.5-1.82-.5-.76 0-1.3733.1733-1.84.52-.4533.3466-.7867.82-1 1.42-.2.5866-.3 1.2466-.3 1.98 0 .5333.0533 1.0333.16 1.5.12.4533.3.86.54 1.22.2533.3466.58.62.98.82s.8933.3 1.48.3zm7.6103 1.38v-10.54h1.7v10.54zm.84-12.1c-.3467 0-.6267-.1067-.84-.32-.2-.2134-.3-.4867-.3-.82 0-.3334.1067-.6.32-.8.2133-.2134.4867-.32.82-.32.3067 0 .5733.1066.8.32.24.2133.36.48.36.8 0 .3333-.1133.6066-.34.82-.2267.2133-.5.32-.82.32zm3.535 12.1v-10.54h1.6399l.08 1.6c.24-.3867.547-.7067.92-.96.373-.2534.78-.44 1.22-.56.453-.1334.893-.2 1.32-.2 1.027 0 1.827.2133 2.4.64.587.4266 1 1.0066 1.24 1.74.253.72.38 1.54.38 2.46v5.82h-1.7v-5.36c0-.4934-.033-.9667-.1-1.42-.053-.4534-.173-.86-.36-1.22-.173-.36-.427-.64-.76-.84-.333-.2134-.78-.32-1.34-.32-.693 0-1.287.1933-1.78.58-.48.3866-.847.9066-1.1 1.56-.24.6533-.36 1.3866-.36 2.2v4.82z" fill="#fc4c02"/></svg>