<svg fill="none" height="60" viewBox="0 0 256 60" width="256" xmlns="http://www.w3.org/2000/svg"><rect height="58.5" rx="29.25" stroke="#fc4c02" stroke-width="1.5" width="254.5" x=".75" y=".75"/><path d="m37.28 37v-5.3l-5-8.84h2.02l3.88 7.08 3.84-7.08h1.98l-4.98 8.82v5.32zm11.5389.12c-1.1067 0-2.0333-.2267-2.78-.68-.7467-.4667-1.3067-1.1067-1.68-1.92-.36-.8133-.54-1.74-.54-2.78 0-1.0533.1867-1.98.56-2.78.3733-.8133.9333-1.4533 1.68-1.92s1.68-.7 2.8-.7c1.1067 0 2.0267.2333 2.76.7.7467.4667 1.3 1.1067 1.66 1.92.3733.8.56 1.7267.56 2.78 0 1.04-.1867 1.9667-.56 2.78s-.9333 1.4533-1.68 1.92c-.7333.4533-1.66.68-2.78.68zm0-1.5c.7733 0 1.4-.1733 1.88-.52.4933-.3467.8533-.8133 1.08-1.4.24-.5867.36-1.24.36-1.96s-.12-1.3733-.36-1.96c-.2267-.5867-.5867-1.0533-1.08-1.4-.48-.3467-1.1067-.52-1.88-.52-.76 0-1.3867.1733-1.88.52-.48.3467-.84.8133-1.08 1.4-.2267.5867-.34 1.24-.34 1.96s.1133 1.3733.34 1.96c.24.5867.6 1.0533 1.08 1.4.4933.3467 1.12.52 1.88.52zm11.6945 1.5c-1.4533 0-2.56-.3867-3.32-1.16-.7466-.7733-1.12-1.96-1.12-3.56v-5.94h1.7v5.86c0 .6933.1 1.2867.3 1.78s.5.8733.9 1.14c.4134.2533.9267.38 1.54.38.64 0 1.1667-.1267 1.58-.38.4134-.2667.7134-.6467.9-1.14.2-.4933.3-1.0867.3-1.78v-5.86h1.7v5.94c0 1.6-.3866 2.7867-1.16 3.56-.76.7733-1.8666 1.16-3.32 1.16zm7.1235-.12v-10.54h1.64l.08 1.64c.2666-.4133.5733-.7467.92-1 .36-.2533.7533-.44 1.18-.56.44-.1333.9133-.2 1.42-.2h.26.28v1.6h-.62c-.8267 0-1.5.18-2.02.54-.5067.3467-.8734.82-1.1 1.42-.2267.5867-.34 1.24-.34 1.96v5.14zm18.9915.16c-1.4666 0-2.6866-.3067-3.66-.92-.96-.6267-1.68-1.48-2.16-2.56-.4666-1.08-.7-2.3133-.7-3.7 0-1.04.1267-2 .38-2.88.2667-.88.6667-1.6467 1.2-2.3.5334-.6667 1.2-1.18 2-1.54.8134-.3733 1.7667-.56 2.86-.56 1.04 0 1.9467.16 2.72.48.7734.32 1.4067.7667 1.9 1.34.5067.5733.86 1.2533 1.06 2.04h-1.9c-.1333-.4667-.3733-.8667-.72-1.2-.3466-.3467-.78-.6133-1.3-.8s-1.1133-.28-1.78-.28c-.8266 0-1.5333.1467-2.12.44-.5866.2933-1.0666.7-1.44 1.22-.3733.5067-.6466 1.1067-.82 1.8-.1733.68-.26 1.4133-.26 2.2 0 1.04.1667 1.9867.5 2.84.3334.8533.8467 1.5333 1.54 2.04.6934.5067 1.5867.76 2.68.76.9067 0 1.68-.16 2.32-.48.64-.3333 1.1334-.8067 1.48-1.42.3467-.6267.52-1.3733.52-2.24h-4.64v-1.58h6.3v1.18c0 1.2267-.24 2.3-.72 3.22s-1.1666 1.6333-2.06 2.14c-.88.5067-1.94.76-3.18.76zm8.2546-.16v-10.54h1.64l.08 1.64c.2666-.4133.5733-.7467.92-1 .36-.2533.7533-.44 1.18-.56.44-.1333.9133-.2 1.42-.2h.26.28v1.6h-.62c-.8267 0-1.5.18-2.02.54-.5067.3467-.8734.82-1.1 1.42-.2267.5867-.34 1.24-.34 1.96v5.14zm11.866.12c-1.107 0-2.034-.2267-2.78-.68-.747-.4667-1.307-1.1067-1.68-1.92-.36-.8133-.54-1.74-.54-2.78 0-1.0533.186-1.98.56-2.78.373-.8133.933-1.4533 1.68-1.92.746-.4667 1.68-.7 2.8-.7 1.106 0 2.026.2333 2.76.7.746.4667 1.3 1.1067 1.66 1.92.373.8.56 1.7267.56 2.78 0 1.04-.187 1.9667-.56 2.78-.374.8133-.934 1.4533-1.68 1.92-.734.4533-1.66.68-2.78.68zm0-1.5c.773 0 1.4-.1733 1.88-.52.493-.3467.853-.8133 1.08-1.4.24-.5867.36-1.24.36-1.96s-.12-1.3733-.36-1.96c-.227-.5867-.587-1.0533-1.08-1.4-.48-.3467-1.107-.52-1.88-.52-.76 0-1.387.1733-1.88.52-.48.3467-.84.8133-1.08 1.4-.227.5867-.34 1.24-.34 1.96s.113 1.3733.34 1.96c.24.5867.6 1.0533 1.08 1.4.493.3467 1.12.52 1.88.52zm9.474 1.38-3.28-10.54h1.92l2.52 8.9 2.6-8.9h2.3l2.62 8.9 2.48-8.9h1.94l-3.28 10.54h-2.32l-2.6-8.54-2.6 8.54zm18.956 0c-.8 0-1.447-.12-1.94-.36-.48-.24-.834-.6133-1.06-1.12-.214-.5067-.32-1.1467-.32-1.92v-5.64h-1.72v-1.5h1.72v-3.14h1.7v3.14h2.82v1.5h-2.82v5.46c0 .72.126 1.2533.38 1.6.266.3333.8.5 1.6.5h.78v1.48zm3.122 0v-14.14h1.7v5.22c.253-.3733.56-.6867.92-.94.373-.2667.78-.4667 1.22-.6s.893-.2 1.36-.2c1.027 0 1.827.2133 2.4.64.587.4267 1 1.0067 1.24 1.74.24.72.36 1.5467.36 2.48v5.8h-1.7v-5.28c0-.4667-.033-.9267-.1-1.38-.053-.4667-.167-.8867-.34-1.26s-.44-.6733-.8-.9c-.347-.2267-.82-.34-1.42-.34-.573 0-1.067.1267-1.48.38-.4.2533-.72.5933-.96 1.02-.24.4133-.42.8733-.54 1.38-.107.4933-.16.98-.16 1.46v4.92zm17.607 0v-14.14h4.9c1.04 0 1.933.1733 2.68.52.747.3333 1.313.8467 1.7 1.54.4.6933.6 1.5733.6 2.64 0 1.04-.233 1.92-.7 2.64-.453.7067-1.08 1.24-1.88 1.6s-1.72.54-2.76.54h-2.8v4.66zm1.74-6.24h2.72c1.08 0 1.953-.2533 2.62-.76.68-.52 1.02-1.36 1.02-2.52 0-1.0133-.273-1.7733-.82-2.28s-1.367-.76-2.46-.76h-3.08zm13.447 6.36c-.48 0-.947-.06-1.4-.18-.44-.1333-.84-.3267-1.2-.58-.347-.2667-.627-.5933-.84-.98-.2-.4-.3-.86-.3-1.38 0-.6.107-1.1067.32-1.52.227-.4133.527-.74.9-.98s.807-.4133 1.3-.52 1.007-.16 1.54-.16h3.1c0-.6-.087-1.12-.26-1.56-.16-.44-.427-.78-.8-1.02-.373-.2533-.867-.38-1.48-.38-.373 0-.72.04-1.04.12s-.593.2067-.82.38-.393.4067-.5.7h-1.82c.093-.48.273-.8867.54-1.22.28-.3467.613-.6267 1-.84.4-.2267.827-.3933 1.28-.5s.907-.16 1.36-.16c1.52 0 2.6.4467 3.24 1.34s.96 2.1.96 3.62v5.7h-1.42l-.1-1.34c-.293.4-.647.7067-1.06.92s-.84.3533-1.28.42c-.427.08-.833.12-1.22.12zm.16-1.5c.667 0 1.24-.1067 1.72-.32.493-.2267.873-.5533 1.14-.98s.4-.9467.4-1.56v-.52h-1.86c-.44 0-.873.0067-1.3.02s-.813.0667-1.16.16-.627.2533-.84.48c-.2.2267-.3.5533-.3.98 0 .4.1.7267.3.98.213.2533.487.4467.82.58.347.12.707.18 1.08.18zm7.554 1.38v-10.54h1.64l.08 1.64c.266-.4133.573-.7467.92-1 .36-.2533.753-.44 1.18-.56.44-.1333.913-.2 1.42-.2h.26.28v1.6h-.62c-.827 0-1.5.18-2.02.54-.507.3467-.874.82-1.1 1.42-.227.5867-.34 1.24-.34 1.96v5.14zm12.346 0c-.8 0-1.447-.12-1.94-.36-.48-.24-.833-.6133-1.06-1.12-.213-.5067-.32-1.1467-.32-1.92v-5.64h-1.72v-1.5h1.72v-3.14h1.7v3.14h2.82v1.5h-2.82v5.46c0 .72.127 1.2533.38 1.6.267.3333.8.5 1.6.5h.78v1.48zm3.122 0v-10.54h1.64l.08 1.6c.24-.3867.547-.7067.92-.96.374-.2533.78-.44 1.22-.56.454-.1333.894-.2 1.32-.2 1.027 0 1.827.2133 2.4.64.587.4267 1 1.0067 1.24 1.74.254.72.38 1.54.38 2.46v5.82h-1.7v-5.36c0-.4933-.033-.9667-.1-1.42-.053-.4533-.173-.86-.36-1.22-.173-.36-.426-.64-.76-.84-.333-.2133-.78-.32-1.34-.32-.693 0-1.286.1933-1.78.58-.48.3867-.846.9067-1.1 1.56-.24.6533-.36 1.3867-.36 2.2v4.82zm16.377.12c-1.12 0-2.047-.2267-2.78-.68-.733-.4667-1.28-1.1067-1.64-1.92s-.54-1.74-.54-2.78c0-1.0533.187-1.98.56-2.78.387-.8133.947-1.4533 1.68-1.92s1.633-.7 2.7-.7c.827 0 1.533.16 2.12.48.6.3067 1.093.72 1.48 1.24s.667 1.0933.84 1.72c.173.6133.247 1.2333.22 1.86-.013.12-.027.24-.04.36 0 .12-.007.24-.02.36h-7.82c.053.6133.207 1.1667.46 1.66s.613.8867 1.08 1.18c.467.28 1.047.42 1.74.42.347 0 .693-.04 1.04-.12.36-.0933.68-.2467.96-.46.293-.2133.5-.5.62-.86h1.74c-.16.68-.46 1.24-.9 1.68-.44.4267-.967.7467-1.58.96-.613.2-1.253.3-1.92.3zm-3.2-6.24h6.1c-.013-.6-.147-1.1267-.4-1.58s-.6-.8067-1.04-1.06c-.427-.2533-.94-.38-1.54-.38-.653 0-1.207.14-1.66.42-.44.28-.78.6467-1.02 1.1s-.387.9533-.44 1.5zm10.105 6.12v-10.54h1.64l.08 1.64c.266-.4133.573-.7467.92-1 .36-.2533.753-.44 1.18-.56.44-.1333.913-.2 1.42-.2h.26.28v1.6h-.62c-.827 0-1.5.18-2.02.54-.507.3467-.874.82-1.1 1.42-.227.5867-.34 1.24-.34 1.96v5.14z" fill="#fc4c02"/></svg>