<svg fill="none" height="72" viewBox="0 0 72 72" width="72" xmlns="http://www.w3.org/2000/svg" xmlns:xlink="http://www.w3.org/1999/xlink"><clipPath id="a"><rect height="72" rx="36" width="72"/></clipPath><mask id="b" height="72" maskUnits="userSpaceOnUse" width="72" x="0" y="0"><path d="m72 0h-72v72h72z" fill="#fff"/></mask><g clip-path="url(#a)"><rect fill="#7ee100" height="72" rx="36" width="72"/><g mask="url(#b)"><path d="m55.2018 39.7663h-6.0568l1.9494-7.7816h4.1074c2.4468 0 4.4444-1.9976 4.4444-4.4444s-1.9976-4.4443-4.4444-4.4443h-1.8933l1.3638-5.4712c.2888-1.1552.1123-2.3505-.4973-3.3613-.6097-1.0189-1.5804-1.7409-2.7276-2.0217-.361-.0882-.7301-.1363-1.0991-.1363-.7942 0-1.5804.2166-2.2703.6257-1.0188.6097-1.7408 1.5884-2.0296 2.7436l-1.9093 7.6292h-10.1723l1.3638-5.4712c.2888-1.1552.1123-2.3505-.4974-3.3613-.6097-1.0188-1.5804-1.7408-2.7275-2.0216-.3611-.0883-.7301-.1364-1.0911-.1364-.7942 0-1.5804.2166-2.2703.6257-1.0188.6097-1.7408 1.5884-2.0296 2.7437l-1.9093 7.6291h-8.279c-2.4468 0-4.4444 1.9896-4.4444 4.4444s1.9976 4.4443 4.4444 4.4443h6.0568l-1.9494 7.7817h-4.1074c-2.4468 0-4.4444 1.9975-4.4444 4.4443s1.9976 4.4443 4.4444 4.4443h1.8932l-1.3638 5.4712c-.2888 1.1552-.1123 2.3506.4974 3.3614.6097 1.0188 1.5804 1.7408 2.7276 2.0216.353.0882.722.1364 1.083.1364 2.0457 0 3.8186-1.3879 4.308-3.3694l1.9093-7.6292h10.1722l-1.3718 5.4712c-.2888 1.1552-.1123 2.3505.4974 3.3614.6097 1.0188 1.5804 1.7408 2.7276 2.0216.353.0882.722.1364 1.083.1364 2.0457 0 3.8186-1.3879 4.308-3.3694l1.9093-7.6292h8.279c2.4468 0 4.4443-1.9975 4.4443-4.4443s-1.9975-4.4444-4.4443-4.4444zm-13.2689-7.7816-1.9494 7.7816h-10.1642l1.9494-7.7816h10.1723z" fill="#fff"/></g></g></svg>