<svg fill="none" height="72" viewBox="0 0 72 72" width="72" xmlns="http://www.w3.org/2000/svg" xmlns:xlink="http://www.w3.org/1999/xlink"><clipPath id="a"><rect height="72" rx="36" width="72"/></clipPath><mask id="b" height="72" maskUnits="userSpaceOnUse" width="72" x="0" y="0"><path d="m72 0h-72v72h72z" fill="#fff"/></mask><g clip-path="url(#a)"><rect fill="#fc4c02" height="72" rx="36" width="72"/><g mask="url(#b)"><path d="m59.8302 28.3192c-2.0296-1.6285-5.03-1.3317-6.6826.6659l-6.121 7.3564c1.6606-1.9976 1.3558-4.9337-.6738-6.5703-2.0297-1.6285-5.03-1.3317-6.6826.6659 1.6606-1.9976 1.3558-4.9337-.6739-6.5703-2.0296-1.6285-5.0299-1.3317-6.6825.6659l5.3909-6.482c1.6607-1.9976 1.3558-4.9337-.6738-6.5703-2.0297-1.62849-5.03-1.3317-6.6826.6659l-9.1294 10.9825-6.7467 8.1185c-6.24133 7.5009-5.10216 18.5556 2.5351 24.6846l1.7729 1.42c2.3906 1.9173 5.1423 3.1286 7.9741 3.6501.5215.1925 1.083.3048 1.6767.3048h18.6277c2.6233 0 4.7492-2.0858 4.7492-4.6689 0-2.5752-2.1259-4.669-4.7492-4.669h-.746l3.1527-3.7945 1.1953-1.436 9.8594-11.857c1.6606-1.9975 1.3558-4.9337-.6739-6.5702z" fill="#fff"/></g></g></svg>