<svg fill="none" height="72" viewBox="0 0 72 72" width="72" xmlns="http://www.w3.org/2000/svg" xmlns:xlink="http://www.w3.org/1999/xlink"><clipPath id="a"><rect height="72" rx="36" width="72"/></clipPath><mask id="b" height="72" maskUnits="userSpaceOnUse" width="72" x="0" y="0"><path d="m72 0h-72v72h72z" fill="#fff"/></mask><g clip-path="url(#a)"><rect fill="#2965ff" height="72" rx="36" width="72"/><g fill="#fff" mask="url(#b)"><path d="m51.7279 15.8369c-1.2675-.9947-3.0886-.8664-4.2278.2728l-2.8399 2.8399c-1.3798 1.3798-1.2354 3.6661.337 4.8214 3.7544 2.7596 6.1932 7.212 6.1932 12.2259s-2.4468 9.4743-6.2093 12.234c-1.5723 1.1552-1.7167 3.4496-.3369 4.8214l2.8399 2.8399c1.1392 1.1391 2.9602 1.2675 4.2277.2808 6.0007-4.677 9.8674-11.9773 9.8674-20.1761s-3.8587-15.483-9.8513-20.168z"/><path d="m30.7418 22.9277h-13.0602c-2.9041 0-5.2627 2.3586-5.2627 5.2627 0 2.904 2.3586 5.2626 5.2627 5.2626h13.0602c2.9041 0 5.2627-2.3586 5.2627-5.2626 0-2.9041-2.3586-5.2627-5.2627-5.2627z"/><path d="m30.7418 38.5566h-13.0602c-2.9041 0-5.2627 2.3586-5.2627 5.2627 0 2.904 2.3586 5.2626 5.2627 5.2626h13.0602c2.9041 0 5.2627-2.3586 5.2627-5.2626 0-2.9041-2.3586-5.2627-5.2627-5.2627z"/></g></g></svg>