<svg fill="none" height="72" viewBox="0 0 72 72" width="72" xmlns="http://www.w3.org/2000/svg" xmlns:xlink="http://www.w3.org/1999/xlink"><clipPath id="a"><rect height="72" rx="36" width="72"/></clipPath><mask id="b" height="72" maskUnits="userSpaceOnUse" width="72" x="0" y="0"><path d="m72 0h-72v72h72z" fill="#fff"/></mask><g clip-path="url(#a)"><rect fill="#2965ff" height="72" rx="36" width="72"/><g mask="url(#b)"><path d="m36.0038 61.5798c-14.1032 0-25.5751-11.4719-25.5751-25.5751 0-14.1031 11.4719-25.575 25.5751-25.575 14.0871.016 25.559 11.4879 25.575 25.575 0 14.1032-11.4719 25.5751-25.575 25.5751zm-20.3446-30.0515c-.3289 1.4681-.4973 2.9602-.4973 4.4764.016 10.5574 7.7976 19.3337 18.2025 20.6654.0241-1.0028-.1925-1.9895-.6418-2.896-.6417-.9226-1.7568-1.5082-2.8479-2.0778-1.6205-.8503-3.4656-1.805-3.5699-4.0352.1043-1.8852.0562-3.7384-.1524-5.5514-.1444-.2327-1.0028-.6739-1.7007-1.0269-2.5511-1.2996-7.0436-3.5779-8.7925-9.5545zm19.8071 4.3721c1.6044 0 2.7516.5375 4.0833 1.9254.8183.8504 1.2435 1.821 1.6205 2.6794.6017 1.3718.9707 2.0938 2.2061 2.2382 1.1873.1444 4.0834.6499 5.3509 2.3426.4894.6498.6658 1.3878.5295 2.182-.2567 1.5082-1.428 2.6313-2.7918 3.939-1.2595 1.2113-2.6714 2.5591-3.5699 4.4523 7.2923-2.5511 12.5148-8.8245 13.7021-16.4537-.1284.1043-.2568.2246-.3691.353-.4572.5134-.9867.7782-1.5563.7782-1.3798 0-2.8078-1.5082-4.6369-4.8856-2.0136-3.7063-.9787-5.9285-.0722-7.8939.2567-.5536.4974-1.075.6819-1.6286.2246-1.8371-.0321-3.7063-.7461-5.407-2.5671-2.3104-5.6717-3.955-9.025-4.7652-.6659 1.075-1.6687 1.8852-2.88 2.3024-3.1929 1.0429-3.225 3.7865-3.2571 6.4419-.024 2.3024-.0561 4.677-2.5109 5.1824-.1284.024-.2487.0401-.3771.0401-.8504 0-1.797-.5134-2.7115-1.0108-.7702-.4172-1.5563-.8424-2.0698-.8424-.0481 0-.0962 0-.1364.0161-.3048.0642-.5535.2005-.754.4091-.2568.2728-.3931.6177-.3851.9948.008.369.1604.722.4252.9787 1.4199 1.4681 1.5082 2.4468 1.5884 3.3052.0401.4653.0802.8584.3128 1.3718.4012.8744 1.4521 1.2996 3.217 1.2996.5455 0 1.1712-.0401 1.8612-.1284.9225-.1123 1.6205-.2005 2.2783-.2005z" fill="#fff"/></g></g></svg>