<svg fill="none" height="72" viewBox="0 0 72 72" width="72" xmlns="http://www.w3.org/2000/svg" xmlns:xlink="http://www.w3.org/1999/xlink"><mask id="a" height="72" maskUnits="userSpaceOnUse" width="72" x="0" y="0"><path d="m72 0h-72v72h72z" fill="#fff"/></mask><rect fill="#7ee100" height="72" rx="36" width="72"/><g mask="url(#a)"><path d="m61.042 34.6809-7.6132-7.6131c-.722-.722-.4974-1.5002.4974-1.7248 0 0 .8263-.1845 1.8451-1.2033 2.1821-2.1821 2.1821-5.7279 0-7.902-2.182-2.182-5.7199-2.182-7.9019 0-1.0189 1.0188-1.2034 1.8451-1.2034 1.8451-.2246 1.0028-1.0028 1.2275-1.7248.4974l-7.6131-7.6051c-.722-.722-1.9093-.722-2.6313 0l-7.6132 7.6131c-.722.7301-.4973 1.5002.4974 1.7248 0 0 .8263.1845 1.8451 1.2034 2.1821 2.182 2.1821 5.7199 0 7.91-2.182 2.182-5.7279 2.182-7.9019 0-1.0188-1.0189-1.2033-1.8452-1.2033-1.8452-.2247-1.0028-1.0028-1.2274-1.7248-.4974l-7.6132 7.6132c-.722.722-.722 1.9093 0 2.6313l7.6132 7.6132c.722.722.4973 1.5001-.4974 1.7247 0 0-.8263.1846-1.8451 1.2034-2.1821 2.182-2.1821 5.7199 0 7.9019 2.182 2.1821 5.7198 2.1821 7.9019 0 1.0188-1.0188 1.2033-1.8451 1.2033-1.8451.2247-1.0028 1.0028-1.2274 1.7248-.4974l7.6132 7.6052c.722.722 1.9093.722 2.6313 0l7.6131-7.6132c.722-.722.4974-1.5002-.4973-1.7248 0 0-.8263-.1845-1.8452-1.2033-2.182-2.1821-2.182-5.7199 0-7.91 2.1821-2.1821 5.7199-2.1821 7.902 0 1.0188 1.0188 1.2033 1.8451 1.2033 1.8451.2246 1.0028 1.0028 1.2274 1.7248.5054l7.6132-7.6131c.722-.73.722-1.9093 0-2.6394z" fill="#fff"/></g></svg>