<svg fill="none" height="32" viewBox="0 0 108 32" width="108" xmlns="http://www.w3.org/2000/svg"><rect height="31" rx="15.5" stroke="#7ee100" width="107" x=".5" y=".5"/><path d="m16.816 21-2.624-8.432h1.536l2.016 7.12 2.08-7.12h1.84l2.096 7.12 1.984-7.12h1.552l-2.624 8.432h-1.856l-2.08-6.832-2.08 6.832zm15.4204.096c-.8854 0-1.6267-.1813-2.224-.544-.5974-.3733-1.0454-.8853-1.344-1.536-.288-.6507-.432-1.392-.432-2.224 0-.8427.1493-1.584.448-2.224.2986-.6507.7466-1.1627 1.344-1.536.5973-.3733 1.344-.56 2.24-.56.8853 0 1.6213.1867 2.208.56.5973.3733 1.04.8853 1.328 1.536.2986.64.448 1.3813.448 2.224 0 .832-.1494 1.5733-.448 2.224-.2987.6507-.7467 1.1627-1.344 1.536-.5867.3627-1.328.544-2.224.544zm0-1.2c.6186 0 1.12-.1387 1.504-.416.3946-.2773.6826-.6507.864-1.12.192-.4693.288-.992.288-1.568s-.096-1.0987-.288-1.568c-.1814-.4693-.4694-.8427-.864-1.12-.384-.2773-.8854-.416-1.504-.416-.608 0-1.1094.1387-1.504.416-.384.2773-.672.6507-.864 1.12-.1814.4693-.272.992-.272 1.568s.0906 1.0987.272 1.568c.192.4693.48.8427.864 1.12.3946.2773.896.416 1.504.416zm5.8356 1.104v-8.432h1.312l.064 1.312c.2133-.3307.4587-.5973.736-.8.288-.2027.6027-.352.944-.448.352-.1067.7307-.16 1.136-.16h.208.224v1.28h-.496c-.6613 0-1.2.144-1.616.432-.4053.2773-.6987.656-.88 1.136-.1813.4693-.272.992-.272 1.568v4.112zm9.1885.096c-.8427 0-1.536-.1867-2.08-.56-.544-.384-.9493-.896-1.216-1.536-.2667-.6507-.4-1.3813-.4-2.192s.1333-1.5413.4-2.192c.2667-.6613.6773-1.184 1.232-1.568s1.264-.576 2.128-.576c.3307 0 .6613.0427.992.128.3413.0747.6613.1973.96.368.2987.16.5547.3787.768.656v-3.936h1.36v11.312h-1.296l-.064-1.264c-.192.32-.4373.5813-.736.784-.288.192-.608.336-.96.432s-.7147.144-1.088.144zm.192-1.2c.5653 0 1.04-.144 1.424-.432s.6773-.672.88-1.152.304-1.0027.304-1.568c0-.5867-.1013-1.1093-.304-1.568-.192-.4587-.48-.8213-.864-1.088s-.8693-.4-1.456-.4c-.608 0-1.0987.1387-1.472.416-.3627.2773-.6293.656-.8 1.136-.16.4693-.24.9973-.24 1.584 0 .4267.0427.8267.128 1.2.096.3627.24.688.432.976.2027.2773.464.496.784.656s.7147.24 1.184.24zm6.0883 4.144v-11.472h1.296l.064 1.264c.288-.4373.6773-.7733 1.168-1.008.5013-.2347 1.04-.352 1.616-.352.8533 0 1.552.192 2.096.576.544.3733.944.8853 1.2 1.536.2666.6507.4 1.3867.4 2.208s-.1334 1.5573-.4 2.208c-.2667.6507-.6774 1.1627-1.232 1.536-.5547.3733-1.264.56-2.128.56-.4267 0-.8107-.0427-1.152-.128-.3414-.096-.64-.2293-.896-.4-.256-.1813-.48-.3893-.672-.624v4.096zm3.968-4.144c.6186 0 1.1093-.1387 1.472-.416.3626-.288.624-.6667.784-1.136.1706-.4693.256-.9867.256-1.552 0-.576-.0854-1.0987-.256-1.568-.16-.4693-.4267-.8427-.8-1.12-.3734-.2773-.8694-.416-1.488-.416-.5547 0-1.0294.144-1.424.432-.384.2773-.6774.656-.88 1.136-.2027.4693-.304.9867-.304 1.552 0 .5867.096 1.1147.288 1.584s.4853.8373.88 1.104c.3946.2667.8853.4 1.472.4zm5.6882 1.104v-8.432h1.312l.064 1.312c.2133-.3307.4587-.5973.736-.8.288-.2027.6027-.352.944-.448.352-.1067.7307-.16 1.136-.16h.208.224v1.28h-.496c-.6613 0-1.2.144-1.616.432-.4053.2773-.6987.656-.88 1.136-.1813.4693-.272.992-.272 1.568v4.112zm9.4605.096c-.896 0-1.6373-.1813-2.224-.544-.5867-.3733-1.024-.8853-1.312-1.536s-.432-1.392-.432-2.224c0-.8427.1493-1.584.448-2.224.3093-.6507.7573-1.1627 1.344-1.536s1.3067-.56 2.16-.56c.6613 0 1.2267.128 1.696.384.48.2453.8747.576 1.184.992s.5333.8747.672 1.376c.1387.4907.1973.9867.176 1.488-.0107.096-.0213.192-.032.288 0 .096-.0053.192-.016.288h-6.256c.0427.4907.1653.9333.368 1.328s.4907.7093.864.944c.3733.224.8373.336 1.392.336.2773 0 .5547-.032.832-.096.288-.0747.544-.1973.768-.368.2347-.1707.4-.4.496-.688h1.392c-.128.544-.368.992-.72 1.344-.352.3413-.7733.5973-1.264.768-.4907.16-1.0027.24-1.536.24zm-2.56-4.992h4.88c-.0107-.48-.1173-.9013-.32-1.264s-.48-.6453-.832-.848c-.3413-.2027-.752-.304-1.232-.304-.5227 0-.9653.112-1.328.336-.352.224-.624.5173-.816.88s-.3093.7627-.352 1.2zm11.1559 4.992c-.384 0-.7734-.0373-1.168-.112-.384-.0747-.7467-.2027-1.088-.384-.3307-.1813-.608-.4267-.832-.736s-.368-.6933-.432-1.152h1.376c.1066.288.2773.5227.512.704.2453.1707.5173.2933.816.368.3093.0747.6026.112.88.112.1706 0 .368-.0107.592-.032s.4373-.0693.64-.144c.2133-.0853.384-.208.512-.368.1386-.16.208-.384.208-.672 0-.2133-.048-.3893-.144-.528s-.2294-.2507-.4-.336c-.1707-.096-.3787-.1653-.624-.208-.5014-.1067-1.04-.208-1.616-.304-.5654-.096-1.0667-.2773-1.504-.544-.1494-.096-.288-.2027-.416-.32-.1174-.128-.2187-.2667-.304-.416-.0854-.16-.1547-.3307-.208-.512-.0427-.192-.064-.4-.064-.624 0-.416.08-.7733.24-1.072.1706-.3093.4053-.56.704-.752.2986-.2027.64-.352 1.024-.448.3946-.096.816-.144 1.264-.144.5546 0 1.0506.0907 1.488.272.448.1707.816.4267 1.104.768.288.3307.4586.7413.512 1.232h-1.264c-.0747-.3093-.2774-.56-.608-.752-.3307-.2027-.752-.304-1.264-.304-.1707 0-.3627.016-.576.048-.2134.0213-.416.0747-.608.16-.192.0747-.352.192-.48.352-.128.1493-.192.352-.192.608 0 .2347.0586.432.176.592.128.16.304.288.528.384s.48.176.768.24c.3733.0747.784.1547 1.232.24.448.0747.8.1547 1.056.24.3413.1067.624.256.848.448.2346.192.4053.4213.512.688.1173.2667.176.576.176.928 0 .5013-.1014.912-.304 1.232-.192.32-.4534.5707-.784.752-.3307.1813-.6987.3093-1.104.384-.3947.0747-.7894.112-1.184.112zm8.1406 0c-.384 0-.7733-.0373-1.168-.112-.384-.0747-.7467-.2027-1.088-.384-.3307-.1813-.608-.4267-.832-.736s-.368-.6933-.432-1.152h1.376c.1067.288.2773.5227.512.704.2453.1707.5173.2933.816.368.3093.0747.6027.112.88.112.1707 0 .368-.0107.592-.032s.4373-.0693.64-.144c.2133-.0853.384-.208.512-.368.1387-.16.208-.384.208-.672 0-.2133-.048-.3893-.144-.528s-.2293-.2507-.4-.336c-.1707-.096-.3787-.1653-.624-.208-.5013-.1067-1.04-.208-1.616-.304-.5653-.096-1.0667-.2773-1.504-.544-.1493-.096-.288-.2027-.416-.32-.1173-.128-.2187-.2667-.304-.416-.0853-.16-.1547-.3307-.208-.512-.0427-.192-.064-.4-.064-.624 0-.416.08-.7733.24-1.072.1707-.3093.4053-.56.704-.752.2987-.2027.64-.352 1.024-.448.3947-.096.816-.144 1.264-.144.5547 0 1.0507.0907 1.488.272.448.1707.816.4267 1.104.768.288.3307.4587.7413.512 1.232h-1.264c-.0747-.3093-.2773-.56-.608-.752-.3307-.2027-.752-.304-1.264-.304-.1707 0-.3627.016-.576.048-.2133.0213-.416.0747-.608.16-.192.0747-.352.192-.48.352-.128.1493-.192.352-.192.608 0 .2347.0587.432.176.592.128.16.304.288.528.384s.48.176.768.24c.3733.0747.784.1547 1.232.24.448.0747.8.1547 1.056.24.3413.1067.624.256.848.448.2347.192.4053.4213.512.688.1173.2667.176.576.176.928 0 .5013-.1013.912-.304 1.232-.192.32-.4533.5707-.784.752s-.6987.3093-1.104.384c-.3947.0747-.7893.112-1.184.112z" fill="#7ee100"/></svg>