<svg fill="none" height="60" viewBox="0 0 234 60" width="234" xmlns="http://www.w3.org/2000/svg"><rect height="58.5" rx="29.25" stroke="#2965ff" stroke-width="1.5" width="232.5" x=".75" y=".75"/><path d="m39.46 37.16c-1.4533 0-2.6667-.3067-3.64-.92-.96-.6267-1.68-1.48-2.16-2.56-.4667-1.0933-.7-2.34-.7-3.74 0-1.3867.24-2.62.72-3.7.48-1.0933 1.2-1.9533 2.16-2.58.9733-.64 2.1933-.96 3.66-.96 1.04 0 1.9333.1667 2.68.5.76.32 1.3733.7667 1.84 1.34s.7867 1.2467.96 2.02h-1.76c-.2-.6933-.6333-1.2467-1.3-1.66-.6533-.4133-1.48-.62-2.48-.62-1.12 0-2.0267.2667-2.72.8-.68.52-1.18 1.2067-1.5 2.06-.32.84-.48 1.7533-.48 2.74 0 1.04.1667 1.9933.5 2.86s.8533 1.56 1.56 2.08c.7067.5067 1.6067.76 2.7.76.6667 0 1.26-.0933 1.78-.28.5333-.1867.9733-.4533 1.32-.8.36-.3467.6067-.7467.74-1.2h1.9c-.2.7733-.56 1.4533-1.08 2.04-.5067.5733-1.1533 1.02-1.94 1.34s-1.7067.48-2.76.48zm7.962-.16v-10.54h1.64l.08 1.64c.2667-.4133.5734-.7467.92-1 .36-.2533.7534-.44 1.18-.56.44-.1333.9134-.2 1.42-.2h.26.28v1.6h-.62c-.8266 0-1.5.18-2.02.54-.5066.3467-.8733.82-1.1 1.42-.2266.5867-.34 1.24-.34 1.96v5.14zm11.8257.12c-1.12 0-2.0467-.2267-2.78-.68-.7334-.4667-1.28-1.1067-1.64-1.92s-.54-1.74-.54-2.78c0-1.0533.1866-1.98.56-2.78.3866-.8133.9466-1.4533 1.68-1.92.7333-.4667 1.6333-.7 2.7-.7.8266 0 1.5333.16 2.12.48.6.3067 1.0933.72 1.48 1.24.3866.52.6666 1.0933.84 1.72.1733.6133.2466 1.2333.22 1.86-.0134.12-.0267.24-.04.36 0 .12-.0067.24-.02.36h-7.82c.0533.6133.2066 1.1667.46 1.66.2533.4933.6133.8867 1.08 1.18.4666.28 1.0466.42 1.74.42.3466 0 .6933-.04 1.04-.12.36-.0933.68-.2467.96-.46.2933-.2133.5-.5.62-.86h1.74c-.16.68-.46 1.24-.9 1.68-.44.4267-.9667.7467-1.58.96-.6134.2-1.2534.3-1.92.3zm-3.2-6.24h6.1c-.0134-.6-.1467-1.1267-.4-1.58-.2534-.4533-.6-.8067-1.04-1.06-.4267-.2533-.94-.38-1.54-.38-.6534 0-1.2067.14-1.66.42-.44.28-.78.6467-1.02 1.1s-.3867.9533-.44 1.5zm13.4848 6.24c-.48 0-.9467-.06-1.4-.18-.44-.1333-.84-.3267-1.2-.58-.3467-.2667-.6267-.5933-.84-.98-.2-.4-.3-.86-.3-1.38 0-.6.1067-1.1067.32-1.52.2267-.4133.5267-.74.9-.98s.8067-.4133 1.3-.52 1.0067-.16 1.54-.16h3.1c0-.6-.0867-1.12-.26-1.56-.16-.44-.4267-.78-.8-1.02-.3733-.2533-.8667-.38-1.48-.38-.3733 0-.72.04-1.04.12s-.5933.2067-.82.38-.3933.4067-.5.7h-1.82c.0933-.48.2733-.8867.54-1.22.28-.3467.6133-.6267 1-.84.4-.2267.8267-.3933 1.28-.5s.9067-.16 1.36-.16c1.52 0 2.6.4467 3.24 1.34s.96 2.1.96 3.62v5.7h-1.42l-.1-1.34c-.2933.4-.6467.7067-1.06.92s-.84.3533-1.28.42c-.4267.08-.8333.12-1.22.12zm.16-1.5c.6667 0 1.24-.1067 1.72-.32.4933-.2267.8733-.5533 1.14-.98s.4-.9467.4-1.56v-.52h-1.86c-.44 0-.8733.0067-1.3.02s-.8133.0667-1.16.16-.6267.2533-.84.48c-.2.2267-.3.5533-.3.98 0 .4.1.7267.3.98.2133.2533.4867.4467.82.58.3467.12.7067.18 1.08.18zm11.8337 1.38c-.8 0-1.4466-.12-1.94-.36-.48-.24-.8333-.6133-1.06-1.12-.2133-.5067-.32-1.1467-.32-1.92v-5.64h-1.72v-1.5h1.72v-3.14h1.7v3.14h2.82v1.5h-2.82v5.46c0 .72.1267 1.2533.38 1.6.2667.3333.8.5 1.6.5h.78v1.48zm3.1224 0v-10.54h1.7v10.54zm.84-12.1c-.3467 0-.6267-.1067-.84-.32-.2-.2133-.3-.4867-.3-.82s.1067-.6.32-.8c.2133-.2133.4867-.32.82-.32.3067 0 .5733.1067.8.32.24.2133.36.48.36.8 0 .3333-.1133.6067-.34.82s-.5.32-.82.32zm6.395 12.1-4.06-10.54h1.92l3.32 8.9 3.26-8.9h1.94l-4.06 10.54zm12.4224.12c-1.12 0-2.046-.2267-2.78-.68-.733-.4667-1.28-1.1067-1.6398-1.92-.36-.8133-.54-1.74-.54-2.78 0-1.0533.1867-1.98.56-2.78.3868-.8133.9468-1.4533 1.6798-1.92.734-.4667 1.634-.7 2.7-.7.827 0 1.534.16 2.12.48.6.3067 1.094.72 1.48 1.24.387.52.667 1.0933.84 1.72.174.6133.247 1.2333.22 1.86-.013.12-.026.24-.04.36 0 .12-.006.24-.02.36h-7.82c.054.6133.207 1.1667.46 1.66.254.4933.614.8867 1.08 1.18.467.28 1.047.42 1.74.42.347 0 .694-.04 1.04-.12.36-.0933.68-.2467.96-.46.294-.2133.5-.5.62-.86h1.74c-.16.68-.46 1.24-.9 1.68-.44.4267-.966.7467-1.58.96-.613.2-1.253.3-1.92.3zm-3.2-6.24h6.1c-.013-.6-.146-1.1267-.4-1.58-.253-.4533-.6-.8067-1.04-1.06-.426-.2533-.94-.38-1.54-.38-.653 0-1.206.14-1.66.42-.44.28-.78.6467-1.02 1.1s-.386.9533-.44 1.5zm20.996 6.28c-.894 0-1.74-.12-2.54-.36-.787-.2533-1.46-.66-2.02-1.22-.56-.5733-.94-1.3333-1.14-2.28h1.82c.186.6.486 1.0667.9 1.4.426.3333.913.5667 1.46.7.546.12 1.093.18 1.64.18.546 0 1.053-.0733 1.52-.22.48-.16.866-.4133 1.16-.76.306-.3467.46-.7933.46-1.34 0-.4267-.08-.7733-.24-1.04-.147-.2667-.36-.48-.64-.64-.267-.1733-.587-.3133-.96-.42-.494-.16-1.02-.2933-1.58-.4s-1.114-.2333-1.66-.38c-.534-.1467-1.034-.3333-1.5-.56-.254-.1333-.5-.2933-.74-.48-.227-.2-.427-.4267-.6-.68-.16-.2667-.294-.5667-.4-.9-.094-.3333-.14-.7-.14-1.1 0-.6.093-1.12.28-1.56.186-.44.44-.8133.76-1.12s.693-.5533 1.12-.74c.426-.1867.88-.32 1.36-.4.493-.0933.986-.14 1.48-.14.813 0 1.573.1267 2.28.38.72.24 1.313.6333 1.78 1.18.48.5467.74 1.2867.78 2.22h-1.7c-.067-.56-.254-1-.56-1.32-.307-.32-.687-.5467-1.14-.68-.454-.1333-.934-.2-1.44-.2-.374 0-.754.0333-1.14.1-.374.0667-.72.1867-1.04.36-.307.16-.554.3867-.74.68-.187.28-.28.64-.28 1.08 0 .3467.06.6533.18.92.133.2667.306.4933.52.68.226.1733.473.32.74.44.64.2667 1.346.4667 2.12.6.786.12 1.52.3 2.2.54.4.1333.766.3 1.1.5.333.2.613.4333.84.7.24.2667.42.5733.54.92.133.3333.2.7133.2 1.14 0 .7733-.134 1.4333-.4 1.98-.267.5333-.634.9667-1.1 1.3-.467.3333-1.007.5733-1.62.72-.6.1467-1.24.22-1.92.22zm12.147-.04c-1.107 0-2.034-.2267-2.78-.68-.747-.4667-1.307-1.1067-1.68-1.92-.36-.8133-.54-1.74-.54-2.78 0-1.0533.186-1.98.56-2.78.373-.8133.933-1.4533 1.68-1.92.746-.4667 1.68-.7 2.8-.7 1.106 0 2.026.2333 2.76.7.746.4667 1.3 1.1067 1.66 1.92.373.8.56 1.7267.56 2.78 0 1.04-.187 1.9667-.56 2.78-.374.8133-.934 1.4533-1.68 1.92-.734.4533-1.66.68-2.78.68zm0-1.5c.773 0 1.4-.1733 1.88-.52.493-.3467.853-.8133 1.08-1.4.24-.5867.36-1.24.36-1.96s-.12-1.3733-.36-1.96c-.227-.5867-.587-1.0533-1.08-1.4-.48-.3467-1.107-.52-1.88-.52-.76 0-1.387.1733-1.88.52-.48.3467-.84.8133-1.08 1.4-.227.5867-.34 1.24-.34 1.96s.113 1.3733.34 1.96c.24.5867.6 1.0533 1.08 1.4.493.3467 1.12.52 1.88.52zm7.294 1.38v-14.14h1.7v14.14zm8.775.12c-1.453 0-2.56-.3867-3.32-1.16-.747-.7733-1.12-1.96-1.12-3.56v-5.94h1.7v5.86c0 .6933.1 1.2867.3 1.78s.5.8733.9 1.14c.413.2533.927.38 1.54.38.64 0 1.167-.1267 1.58-.38.413-.2667.713-.6467.9-1.14.2-.4933.3-1.0867.3-1.78v-5.86h1.7v5.94c0 1.6-.387 2.7867-1.16 3.56-.76.7733-1.867 1.16-3.32 1.16zm11.404-.12c-.8 0-1.447-.12-1.94-.36-.48-.24-.834-.6133-1.06-1.12-.214-.5067-.32-1.1467-.32-1.92v-5.64h-1.72v-1.5h1.72v-3.14h1.7v3.14h2.82v1.5h-2.82v5.46c0 .72.126 1.2533.38 1.6.266.3333.8.5 1.6.5h.78v1.48zm3.122 0v-10.54h1.7v10.54zm.84-12.1c-.347 0-.627-.1067-.84-.32-.2-.2133-.3-.4867-.3-.82s.107-.6.32-.8c.213-.2133.487-.32.82-.32.307 0 .573.1067.8.32.24.2133.36.48.36.8 0 .3333-.113.6067-.34.82s-.5.32-.82.32zm8.135 12.22c-1.107 0-2.033-.2267-2.78-.68-.747-.4667-1.307-1.1067-1.68-1.92-.36-.8133-.54-1.74-.54-2.78 0-1.0533.187-1.98.56-2.78.373-.8133.933-1.4533 1.68-1.92s1.68-.7 2.8-.7c1.107 0 2.027.2333 2.76.7.747.4667 1.3 1.1067 1.66 1.92.373.8.56 1.7267.56 2.78 0 1.04-.187 1.9667-.56 2.78s-.933 1.4533-1.68 1.92c-.733.4533-1.66.68-2.78.68zm0-1.5c.773 0 1.4-.1733 1.88-.52.493-.3467.853-.8133 1.08-1.4.24-.5867.36-1.24.36-1.96s-.12-1.3733-.36-1.96c-.227-.5867-.587-1.0533-1.08-1.4-.48-.3467-1.107-.52-1.88-.52-.76 0-1.387.1733-1.88.52-.48.3467-.84.8133-1.08 1.4-.227.5867-.34 1.24-.34 1.96s.113 1.3733.34 1.96c.24.5867.6 1.0533 1.08 1.4.493.3467 1.12.52 1.88.52zm7.294 1.38v-10.54h1.64l.08 1.6c.24-.3867.547-.7067.92-.96.374-.2533.78-.44 1.22-.56.454-.1333.894-.2 1.32-.2 1.027 0 1.827.2133 2.4.64.587.4267 1 1.0067 1.24 1.74.254.72.38 1.54.38 2.46v5.82h-1.7v-5.36c0-.4933-.033-.9667-.1-1.42-.053-.4533-.173-.86-.36-1.22-.173-.36-.426-.64-.76-.84-.333-.2133-.78-.32-1.34-.32-.693 0-1.286.1933-1.78.58-.48.3867-.846.9067-1.1 1.56-.24.6533-.36 1.3867-.36 2.2v4.82zm15.657.12c-.48 0-.967-.0467-1.46-.14-.48-.0933-.933-.2533-1.36-.48-.413-.2267-.76-.5333-1.04-.92s-.46-.8667-.54-1.44h1.72c.133.36.347.6533.64.88.307.2133.647.3667 1.02.46.387.0933.753.14 1.1.14.213 0 .46-.0133.74-.04s.547-.0867.8-.18c.267-.1067.48-.26.64-.46.173-.2.26-.48.26-.84 0-.2667-.06-.4867-.18-.66s-.287-.3133-.5-.42c-.213-.12-.473-.2067-.78-.26-.627-.1333-1.3-.26-2.02-.38-.707-.12-1.333-.3467-1.88-.68-.187-.12-.36-.2533-.52-.4-.147-.16-.273-.3333-.38-.52-.107-.2-.193-.4133-.26-.64-.053-.24-.08-.5-.08-.78 0-.52.1-.9667.3-1.34.213-.3867.507-.7.88-.94.373-.2533.8-.44 1.28-.56.493-.12 1.02-.18 1.58-.18.693 0 1.313.1133 1.86.34.56.2133 1.02.5333 1.38.96.36.4133.573.9267.64 1.54h-1.58c-.093-.3867-.347-.7-.76-.94-.413-.2533-.94-.38-1.58-.38-.213 0-.453.02-.72.06-.267.0267-.52.0933-.76.2-.24.0933-.44.24-.6.44-.16.1867-.24.44-.24.76 0 .2933.073.54.22.74.16.2.38.36.66.48s.6.22.96.3c.467.0933.98.1933 1.54.3.56.0933 1 .1933 1.32.3.427.1333.78.32 1.06.56.293.24.507.5267.64.86.147.3333.22.72.22 1.16 0 .6267-.127 1.14-.38 1.54-.24.4-.567.7133-.98.94s-.873.3867-1.38.48c-.493.0933-.987.14-1.48.14z" fill="#2965ff"/></svg>