<svg fill="none" height="32" viewBox="0 0 55 32" width="55" xmlns="http://www.w3.org/2000/svg"><rect height="31" rx="15.5" stroke="#06038d" width="54" x=".5" y=".5"/><path d="m18.144 21.096c-.384 0-.7733-.0373-1.168-.112-.384-.0747-.7467-.2027-1.088-.384-.3307-.1813-.608-.4267-.832-.736s-.368-.6933-.432-1.152h1.376c.1067.288.2773.5227.512.704.2453.1707.5173.2933.816.368.3093.0747.6027.112.88.112.1707 0 .368-.0107.592-.032s.4373-.0693.64-.144c.2133-.0853.384-.208.512-.368.1387-.16.208-.384.208-.672 0-.2133-.048-.3893-.144-.528s-.2293-.2507-.4-.336c-.1707-.096-.3787-.1653-.624-.208-.5013-.1067-1.04-.208-1.616-.304-.5653-.096-1.0667-.2773-1.504-.544-.1493-.096-.288-.2027-.416-.32-.1173-.128-.2187-.2667-.304-.416-.0853-.16-.1547-.3307-.208-.512-.0427-.192-.064-.4-.064-.624 0-.416.08-.7733.24-1.072.1707-.3093.4053-.56.704-.752.2987-.2027.64-.352 1.024-.448.3947-.096.816-.144 1.264-.144.5547 0 1.0507.0907 1.488.272.448.1707.816.4267 1.104.768.288.3307.4587.7413.512 1.232h-1.264c-.0747-.3093-.2773-.56-.608-.752-.3307-.2027-.752-.304-1.264-.304-.1707 0-.3627.016-.576.048-.2133.0213-.416.0747-.608.16-.192.0747-.352.192-.48.352-.128.1493-.192.352-.192.608 0 .2347.0587.432.176.592.128.16.304.288.528.384s.48.176.768.24c.3733.0747.784.1547 1.232.24.448.0747.8.1547 1.056.24.3413.1067.624.256.848.448.2347.192.4053.4213.512.688.1173.2667.176.576.176.928 0 .5013-.1013.912-.304 1.232-.192.32-.4533.5707-.784.752s-.6987.3093-1.104.384c-.3947.0747-.7893.112-1.184.112zm8.7166 0c-.896 0-1.6373-.1813-2.224-.544-.5866-.3733-1.024-.8853-1.312-1.536s-.432-1.392-.432-2.224c0-.8427.1494-1.584.448-2.224.3094-.6507.7574-1.1627 1.344-1.536.5867-.3733 1.3067-.56 2.16-.56.6614 0 1.2267.128 1.696.384.48.2453.8747.576 1.184.992.3094.416.5334.8747.672 1.376.1387.4907.1974.9867.176 1.488-.0106.096-.0213.192-.032.288 0 .096-.0053.192-.016.288h-6.256c.0427.4907.1654.9333.368 1.328.2027.3947.4907.7093.864.944.3734.224.8374.336 1.392.336.2774 0 .5547-.032.832-.096.288-.0747.544-.1973.768-.368.2347-.1707.4-.4.496-.688h1.392c-.128.544-.368.992-.72 1.344-.352.3413-.7733.5973-1.264.768-.4906.16-1.0026.24-1.536.24zm-2.56-4.992h4.88c-.0106-.48-.1173-.9013-.32-1.264-.2026-.3627-.48-.6453-.832-.848-.3413-.2027-.752-.304-1.232-.304-.5226 0-.9653.112-1.328.336-.352.224-.624.5173-.816.88s-.3093.7627-.352 1.2zm11.7639 4.992c-.8853 0-1.6267-.1813-2.224-.544-.5973-.3733-1.0453-.8853-1.344-1.536-.288-.6507-.432-1.392-.432-2.224 0-.8427.1493-1.584.448-2.224.2987-.6507.7467-1.1627 1.344-1.536s1.344-.56 2.24-.56c.8853 0 1.6213.1867 2.208.56.5973.3733 1.04.8853 1.328 1.536.2987.64.448 1.3813.448 2.224 0 .832-.1493 1.5733-.448 2.224s-.7467 1.1627-1.344 1.536c-.5867.3627-1.328.544-2.224.544zm0-1.2c.6187 0 1.12-.1387 1.504-.416.3947-.2773.6827-.6507.864-1.12.192-.4693.288-.992.288-1.568s-.096-1.0987-.288-1.568c-.1813-.4693-.4693-.8427-.864-1.12-.384-.2773-.8853-.416-1.504-.416-.608 0-1.1093.1387-1.504.416-.384.2773-.672.6507-.864 1.12-.1813.4693-.272.992-.272 1.568s.0907 1.0987.272 1.568c.192.4693.48.8427.864 1.12.3947.2773.896.416 1.504.416z" fill="#06038d"/></svg>