<svg fill="none" height="72" viewBox="0 0 72 72" width="72" xmlns="http://www.w3.org/2000/svg" xmlns:xlink="http://www.w3.org/1999/xlink"><mask id="a" height="72" maskUnits="userSpaceOnUse" width="72" x="0" y="0"><path d="m72 0h-72v72h72z" fill="#fff"/></mask><rect fill="#2965ff" height="72" rx="36" width="72"/><g fill="#fff" mask="url(#a)"><path d="m48.4467 23.7216-.0963-.0962c-3.5218-3.4657-8.1907-5.383-13.1645-5.391-4.9739 0-9.6508 1.9013-13.1807 5.3589-3.7624 3.6982-5.8081 8.8405-5.6075 14.1112.024.6016-.0401 1.2033-.1685 1.7809-.2407 1.0429-.0241 2.1339.6739 2.9281-.722-.4011-1.6446-.3048-2.2623.3129l-3.1849 3.1849c-.738.738-.738 1.9414 0 2.6874.7381.7381.7381 1.9414 0 2.6875l-.6498.6498c-.3369.3369-.5455.7862-.5535 1.2675-.1685 8.5117 7.8859 10.7178 11.9853 6.6264l.2246-.2246 1.3397 1.3397c.7381.7381 1.9414.7381 2.6875 0l3.1849-3.1848c.6257-.6258.7139-1.5724.2888-2.2944.738.5616 1.7007.714 2.6152.4894 1.083-.2728 2.2463-.2648 3.3774.0722.4492.1283.9226.1283 1.3798.032 17.4405-3.6661 21.1468-22.3099 11.1189-32.3378z"/><path d="m36.0039 14.6485c1.444 0 2.6153-1.1712 2.6153-2.6152v-2.83991c0-1.44401-1.1713-2.61527-2.6153-2.61527s-2.6152 1.17126-2.6152 2.61527v2.83991c0 1.444 1.1712 2.6152 2.6152 2.6152z"/><path d="m62.8145 33.3887h-2.8399c-1.444 0-2.6152 1.1712-2.6152 2.6152s1.1712 2.6153 2.6152 2.6153h2.8399c1.444 0 2.6153-1.1713 2.6153-2.6153s-1.1713-2.6152-2.6153-2.6152z"/><path d="m17.1996 20.9056c.4974.4974 1.1472.7621 1.8451.7621.698 0 1.3558-.2727 1.8451-.7621.4974-.4974.7702-1.1472.7702-1.8531 0-.706-.2728-1.3558-.7702-1.8532l-2.0055-2.0055c-.4974-.4974-1.1472-.7622-1.8452-.7622-.6979 0-1.3557.2728-1.8531.7622-1.0188 1.0188-1.0188 2.6794 0 3.6982l2.0056 2.0056z"/><path d="m54.808 51.1098c-.4973-.4974-1.1471-.7621-1.8451-.7621-.6979 0-1.3557.2727-1.8531.7621-.4974.4893-.7621 1.1472-.7621 1.8531 0 .706.2727 1.3558.7621 1.8451l2.0055 2.0056c.4974.4974 1.1472.7702 1.8532.7702s1.3558-.2728 1.8451-.7702c1.0188-1.0188 1.0188-2.6794 0-3.6983z"/><path d="m52.9552 21.6675c.6979 0 1.3557-.2727 1.8451-.7621l2.0056-2.0056c1.0188-1.0188 1.0188-2.6794 0-3.6982-.4974-.4974-1.1472-.7621-1.8452-.7621-.6979 0-1.3557.2727-1.8531.7621l-2.0056 2.0055c-1.0188 1.0189-1.0188 2.6795 0 3.6983.4974.4974 1.1472.7621 1.8532.7621z"/></g></svg>