<svg fill="none" height="32" viewBox="0 0 57 32" width="57" xmlns="http://www.w3.org/2000/svg"><rect height="31" rx="15.5" stroke="#fc4c02" width="56" x=".5" y=".5"/><path d="m19.056 21.096c-.384 0-.7413-.0427-1.072-.128-.32-.096-.6133-.2293-.88-.4-.256-.1707-.48-.368-.672-.592l-.064 1.024h-1.296v-11.312h1.36v4.096c.2773-.4267.672-.752 1.184-.976.5227-.224 1.056-.336 1.6-.336.8533 0 1.552.192 2.096.576.544.3733.944.8853 1.2 1.536.2667.64.4 1.3653.4 2.176 0 .8-.1387 1.5307-.416 2.192-.2773.6507-.6987 1.1733-1.264 1.568-.5653.384-1.2907.576-2.176.576zm-.016-1.2c.6187 0 1.1093-.1387 1.472-.416.3627-.288.624-.6667.784-1.136.1707-.4693.256-.9867.256-1.552 0-.576-.0853-1.0987-.256-1.568-.16-.4693-.4267-.8427-.8-1.12s-.8693-.416-1.488-.416c-.5547 0-1.0293.1547-1.424.464-.384.3093-.6773.704-.88 1.184s-.304.9707-.304 1.472c0 .544.0853 1.0507.256 1.52.1813.4693.464.848.848 1.136.3947.288.9067.432 1.536.432zm5.0963 1.104v-1.168l3.2-2.768c.288-.2453.6026-.512.944-.8.352-.2987.6826-.6187.992-.96.32-.3413.5813-.704.784-1.088.2133-.3947.32-.8107.32-1.248 0-.6827-.2027-1.2053-.608-1.568-.4054-.3733-.9494-.56-1.632-.56-.544 0-1.0187.112-1.424.336-.4054.224-.672.5493-.8.976h-1.488c.1066-.5867.3466-1.0667.72-1.44.384-.384.8426-.672 1.376-.864.544-.192 1.104-.288 1.68-.288.704 0 1.3226.128 1.856.384.544.256.9653.6293 1.264 1.12.3093.48.464 1.072.464 1.776 0 .6933-.1334 1.3013-.4 1.824-.256.5227-.5974.9973-1.024 1.424-.416.416-.864.8267-1.344 1.232l-2.864 2.416h5.76v1.264zm13.6385.096c-.384 0-.7414-.0427-1.072-.128-.32-.096-.6134-.2293-.88-.4-.256-.1707-.48-.368-.672-.592l-.064 1.024h-1.296v-11.312h1.36v4.096c.2773-.4267.672-.752 1.184-.976.5226-.224 1.056-.336 1.6-.336.8533 0 1.552.192 2.096.576.544.3733.944.8853 1.2 1.536.2666.64.4 1.3653.4 2.176 0 .8-.1387 1.5307-.416 2.192-.2774.6507-.6987 1.1733-1.264 1.568-.5654.384-1.2907.576-2.176.576zm-.016-1.2c.6186 0 1.1093-.1387 1.472-.416.3626-.288.624-.6667.784-1.136.1706-.4693.256-.9867.256-1.552 0-.576-.0854-1.0987-.256-1.568-.16-.4693-.4267-.8427-.8-1.12-.3734-.2773-.8694-.416-1.488-.416-.5547 0-1.0294.1547-1.424.464-.384.3093-.6774.704-.88 1.184-.2027.48-.304.9707-.304 1.472 0 .544.0853 1.0507.256 1.52.1813.4693.464.848.848 1.136.3946.288.9066.432 1.536.432z" fill="#fc4c02"/></svg>