<svg fill="none" height="72" viewBox="0 0 72 72" width="72" xmlns="http://www.w3.org/2000/svg" xmlns:xlink="http://www.w3.org/1999/xlink"><mask id="a" height="72" maskUnits="userSpaceOnUse" width="72" x="0" y="0"><path d="m72 0h-72v72h72z" fill="#fff"/></mask><rect fill="#fc4c02" height="72" rx="36" width="72"/><g fill="#fff" mask="url(#a)"><path d="m48.0615 17.7051c1.2835.3931 2.6473-.3289 3.0404-1.6125l.7782-2.527c.393-1.2836-.329-2.6474-1.6125-3.0405-1.2836-.393-2.6474.329-3.0405 1.6125l-.7781 2.527c-.3931 1.2836.3289 2.6474 1.6125 3.0405z"/><path d="m59.87 29.1295-2.5271-.7782c-1.2835-.3931-2.6473.3289-3.0404 1.6125s.3289 2.6474 1.6125 3.0404l2.527.7782c1.2836.3931 2.6473-.3289 3.0404-1.6125.3931-1.2835-.3289-2.6473-1.6124-3.0404z"/><path d="m51.703 23.7067c.3049.5776.8103.9948 1.436 1.1873.6177.1925 1.2755.1284 1.8531-.1765l2.3345-1.2354c1.1873-.6258 1.6366-2.1019 1.0108-3.2892-.3048-.5776-.8102-.9947-1.436-1.1873-.6177-.1925-1.2755-.1283-1.8531.1765l-2.3345 1.2355c-1.1873.6257-1.6365 2.1018-1.0108 3.2891z"/><path d="m42.7586 14.7536c-1.3237-2.2944-4.6048-2.3505-6.0167-.1203-3.7143 5.8964-8.5598 10.9424-14.2797 14.9134-.361.2487-9.723 5.744-9.723 5.744-2.2061 1.2755-2.96022 4.0994-1.6927 6.3055l4.2518 7.3644c1.2675 2.1981 4.0994 2.9683 6.3055 1.6927l.0562-.032 5.391 9.009c.5134.8824 1.4279 1.3638 2.3665 1.3638s1.2595-.3049 3.2009-1.428c1.2996-.7541 1.7489-2.4227.9948-3.7304l-5.383-9.017 1.7409-1.0028c6.506-3.3212 13.8063-5.3268 21.5238-5.6316 2.6473-.1043 4.2277-2.9763 2.904-5.2707l-11.6403-20.168z"/></g></svg>