<svg width="350" height="240" viewBox="0 0 350 240" fill="none" xmlns="http://www.w3.org/2000/svg">
<g clip-path="url(#clip0_2301_12916)">
<circle cx="129" cy="121" r="59.5" fill="white" stroke="#2965FF" stroke-width="5"/>
<ellipse cx="172.013" cy="120.999" rx="10.4625" ry="17.05" fill="#06038D"/>
<path d="M290.11 255.397C308.047 251.108 319.11 233.089 314.82 215.152C310.531 197.215 292.512 186.152 274.575 190.442C256.638 194.731 245.575 212.75 249.865 230.687C254.155 248.624 272.173 259.687 290.11 255.397Z" fill="#7EE100" stroke="#7EE100" stroke-width="5" stroke-linejoin="round"/>
<path d="M280.97 213.773C280.97 211.364 281.934 210.456 283.613 210.456C285.291 210.456 286.263 211.372 286.263 213.773C286.263 214.545 286.889 215.171 287.66 215.171H290.206C290.792 215.171 291.266 214.696 291.266 214.111C291.266 210.002 289.715 207.25 286.67 206.176C286.054 205.959 285.588 205.41 285.588 204.756C285.588 203.997 284.972 203.381 284.213 203.381H282.642C281.878 203.381 281.259 204 281.259 204.763C281.259 205.414 280.799 205.963 280.188 206.187C277.182 207.287 275.638 210.047 275.638 214.111C275.638 223.748 285.99 224.077 285.99 230.976C285.99 233.385 284.93 234.253 283.243 234.253C281.557 234.253 280.505 233.385 280.505 230.976V230.326C280.505 229.221 279.609 228.326 278.505 228.326H277.533C276.429 228.326 275.533 229.221 275.533 230.326V230.639C275.533 234.767 277.094 237.556 280.193 238.63C280.8 238.84 281.259 239.381 281.259 240.024C281.259 240.771 281.865 241.376 282.611 241.376H284.23C284.98 241.376 285.588 240.768 285.588 240.018C285.588 239.377 286.042 238.836 286.646 238.621C289.715 237.529 291.314 234.766 291.314 230.639C291.314 221.041 280.97 220.704 280.97 213.773Z" fill="white"/>
<path d="M290.11 85.7235C308.047 81.4337 319.11 63.4154 314.82 45.4784C310.531 27.5414 292.512 16.4782 274.575 20.7679C256.638 25.0576 245.575 43.076 249.865 61.0129C254.155 78.9499 272.173 90.0132 290.11 85.7235Z" fill="#FC4C02" stroke="#FC4C02" stroke-width="5" stroke-linejoin="round"/>
<path d="M280.97 44.0994C280.97 41.69 281.934 40.7825 283.613 40.7825C285.291 40.7825 286.263 41.6981 286.263 44.0994C286.263 44.8712 286.889 45.4968 287.66 45.4968H290.206C290.792 45.4968 291.266 45.0222 291.266 44.4367C291.266 40.3281 289.715 37.5763 286.67 36.5025C286.054 36.2852 285.588 35.7358 285.588 35.0826C285.588 34.3229 284.972 33.707 284.213 33.707H282.642C281.878 33.707 281.259 34.326 281.259 35.0895C281.259 35.7403 280.799 36.2892 280.188 36.5129C277.182 37.6131 275.638 40.3729 275.638 44.4367C275.638 54.0741 285.99 54.4034 285.99 61.3022C285.99 63.7115 284.93 64.5789 283.243 64.5789C281.557 64.5789 280.505 63.7115 280.505 61.3022V60.6519C280.505 59.5473 279.609 58.6519 278.505 58.6519H277.533C276.429 58.6519 275.533 59.5473 275.533 60.6519V60.9649C275.533 65.0932 277.094 67.8825 280.193 68.9559C280.8 69.1665 281.259 69.7074 281.259 70.3506C281.259 71.0973 281.865 71.7026 282.611 71.7026H284.23C284.98 71.7026 285.588 71.0943 285.588 70.344C285.588 69.7031 286.042 69.1623 286.646 68.9474C289.715 67.855 291.314 65.0921 291.314 60.9649C291.314 51.3676 280.97 51.0303 280.97 44.0994Z" fill="white"/>
<path d="M290.11 170.561C308.047 166.272 319.11 148.253 314.82 130.316C310.531 112.379 292.512 101.316 274.575 105.606C256.638 109.896 245.575 127.914 249.865 145.851C254.155 163.788 272.173 174.851 290.11 170.561Z" fill="#2965FF" stroke="#2965FF" stroke-width="5" stroke-linejoin="round"/>
<path d="M280.97 128.937C280.97 126.528 281.934 125.62 283.613 125.62C285.291 125.62 286.263 126.536 286.263 128.937C286.263 129.709 286.889 130.335 287.66 130.335H290.206C290.792 130.335 291.266 129.86 291.266 129.275C291.266 125.166 289.715 122.414 286.67 121.34C286.054 121.123 285.588 120.574 285.588 119.921C285.588 119.161 284.972 118.545 284.213 118.545H282.642C281.878 118.545 281.259 119.164 281.259 119.927C281.259 120.578 280.799 121.127 280.188 121.351C277.182 122.451 275.638 125.211 275.638 129.275C275.638 138.912 285.99 139.241 285.99 146.14C285.99 148.549 284.93 149.417 283.243 149.417C281.557 149.417 280.505 148.549 280.505 146.14V145.49C280.505 144.385 279.609 143.49 278.505 143.49H277.533C276.429 143.49 275.533 144.385 275.533 145.49V145.803C275.533 149.931 277.094 152.72 280.193 153.794C280.8 154.004 281.259 154.545 281.259 155.188C281.259 155.935 281.865 156.54 282.611 156.54H284.23C284.98 156.54 285.588 155.932 285.588 155.182C285.588 154.541 286.042 154 286.646 153.785C289.715 152.693 291.314 149.93 291.314 145.803C291.314 136.205 280.97 135.868 280.97 128.937Z" fill="white"/>
</g>
<defs>
<clipPath id="clip0_2301_12916">
<rect width="350" height="240" fill="white"/>
</clipPath>
</defs>
</svg>
