<svg fill="none" height="72" viewBox="0 0 72 72" width="72" xmlns="http://www.w3.org/2000/svg" xmlns:xlink="http://www.w3.org/1999/xlink"><mask id="a" height="72" maskUnits="userSpaceOnUse" width="72" x="0" y="0"><path d="m72 0h-72v72h72z" fill="#fff"/></mask><rect fill="#2965ff" height="72" rx="36" width="72"/><g mask="url(#a)"><path d="m56.1243 23.2078c-4.685-3.6822-9.2978-7.3564-13.9588-11.0306-2.0216-1.5563-3.0083-3.53783-2.5992-6.08891.0722-.63377-.2808-.85037-.9867-.63377-1.6125.48936-2.9362 1.41193-3.7063 2.90407-1.0509 2.12591-2.7196 2.90411-4.8294 2.83191-3.1528-.1444-5.1022 1.5563-6.7869 3.971-1.8291 2.5591-2.7195 5.5273-3.4255 8.5036-.7701 3.1929-1.1311 6.3857-1.2515 9.6267-.1444 2.487-.0722 4.8936-.1444 7.3645v7.0596c0 1.8371 1.4922 3.3293 3.3293 3.3293h-1.5724c-.6658 0-1.2755.377-1.5724.9707l-3.5137 7.0275c-.2728.5455-.2407 1.1873.0802 1.7087.3209.5135.8824.8343 1.4921.8343h35.1296c.6097 0 1.1713-.3128 1.5002-.8343.3209-.5134.3449-1.1632.0722-1.7087l-3.5138-7.0275c-.2968-.5937-.9065-.9707-1.5723-.9707h-2.2784c1.8371 0 3.3293-1.4922 3.3293-3.3293v-5.1503s.2487-2.0938-1.2996-3.6261c-1.5483-1.5322-3.1849-2.9682-3.1849-2.9682-.7942-.6498-1.5082-1.3879-2.1339-2.1901l-5.7038-7.3805c.3529.2888.6979.5616 1.0509.8504 1.7569 1.3397 3.6341 1.9093 5.8001 1.3397 1.2515-.2888 2.519-.1444 3.6341.5616.6257.4171 1.3076.7701 2.0056 1.1311 1.6365.8504 3.6421.4412 4.8133-.9707.714-.8584 1.428-1.7168 2.142-2.5591.9145-1.083.746-2.6795-.3691-3.5539z" fill="#fff"/></g></svg>