<svg width="184" height="184" viewBox="0 0 184 184" fill="none" xmlns="http://www.w3.org/2000/svg">
<g clip-path="url(#clip0_3324_10462)">
<mask id="mask0_3324_10462" style="mask-type:luminance" maskUnits="userSpaceOnUse" x="0" y="0" width="184" height="184">
<path d="M184 0L0 0L0 184H184V0Z" fill="white"/>
</mask>
<g mask="url(#mask0_3324_10462)">
<path d="M92.0308 26.6514C61.7092 26.6514 37.0255 51.335 37.0255 81.6566C37.0255 115.689 74.9941 146.81 86.6184 155.544C88.238 156.753 90.1241 157.368 92.0308 157.368C93.9374 157.368 95.8235 156.753 97.4431 155.544C109.088 146.81 147.036 115.668 147.036 81.6566C147.036 51.335 122.352 26.6514 92.0308 26.6514ZM92.0308 104.475C78.9714 104.475 68.3516 93.8549 68.3516 80.7751C68.3516 67.6952 78.9714 57.0959 92.0308 57.0959C105.09 57.0959 115.71 67.7157 115.71 80.7751C115.71 93.8344 105.09 104.475 92.0308 104.475Z" fill="#7EE100"/>
</g>
</g>
<defs>
<clipPath id="clip0_3324_10462">
<rect width="184" height="184" fill="white"/>
</clipPath>
</defs>
</svg>
