<svg fill="none" height="140" viewBox="0 0 300 140" width="300" xmlns="http://www.w3.org/2000/svg" xmlns:xlink="http://www.w3.org/1999/xlink"><clipPath id="a"><path d="m0 0h140v140h-140z"/></clipPath><clipPath id="b"><path d="m160 0h140v140h-140z"/></clipPath><clipPath id="c"><path d="m80 0h140v140h-140z"/></clipPath><mask id="d" height="140" maskUnits="userSpaceOnUse" width="140" x="0" y="0"><path d="m140 0h-140v140h140z" fill="#fff"/></mask><mask id="e" height="140" maskUnits="userSpaceOnUse" width="140" x="160" y="0"><path d="m300 0h-140v140h140z" fill="#fff"/></mask><mask id="f" height="140" maskUnits="userSpaceOnUse" width="140" x="80" y="0"><path d="m220 0h-140v140h140z" fill="#fff"/></mask><g clip-path="url(#a)"><g mask="url(#d)"><path d="m96.3229 44.41c12.9311 0 23.3981 10.4825 23.3981 23.3984 0 12.1827-9.297 22.1816-21.1831 23.3047-3.6813 15.0999-21.1677 27.8909-38.7788 27.8909-.1248 0-.2496 0-.3588-.016-13.3994-1.669-39.122-48.2314-39.122-68.7284 0-17.5955 6.5827-29.2479 14.6318-29.2479 3.0262 0 7.9398 1.5131 15.0997 4.5237 3.2602 1.3727 5.366 4.5549 5.366 8.0958v4.2429c0 3.3226-1.8719 6.3644-4.8512 7.8463l-.234.1091-12.2763 4.8825c1.2479 6.5047 8.5637 16.332 21.1832 28.6707 1.9967-6.5203 7.1755-11.7147 13.8207-13.6646 1.0607-11.9331 11.0908-21.2925 23.3047-21.2925z" fill="#fc4c02"/></g></g><g clip-path="url(#b)"><g mask="url(#e)"><path d="m256.323 44.41c12.931 0 23.398 10.4825 23.398 23.3984 0 12.1827-9.297 22.1816-21.183 23.3047-3.681 15.0999-21.168 27.8909-38.779 27.8909-.125 0-.249 0-.359-.016-13.399-1.669-39.122-48.2314-39.122-68.7284 0-17.5955 6.583-29.2479 14.632-29.2479 3.026 0 7.94 1.5131 15.1 4.5237 3.26 1.3727 5.366 4.5549 5.366 8.0958v4.2429c0 3.3226-1.872 6.3644-4.851 7.8463l-.234.1091-12.277 4.8825c1.248 6.5047 8.564 16.332 21.184 28.6707 1.996-6.5203 7.175-11.7147 13.82-13.6646 1.061-11.9331 11.091-21.2925 23.305-21.2925z" fill="#06038d"/></g></g><g clip-path="url(#c)"><g mask="url(#f)"><path d="m176.323 44.41c12.931 0 23.398 10.4825 23.398 23.3984 0 12.1827-9.297 22.1816-21.183 23.3047-3.681 15.0999-21.168 27.8909-38.779 27.8909-.125 0-.249 0-.359-.016-13.399-1.669-39.122-48.2314-39.122-68.7284 0-17.5955 6.583-29.2479 14.632-29.2479 3.026 0 7.94 1.5131 15.1 4.5237 3.26 1.3727 5.366 4.5549 5.366 8.0958v4.2429c0 3.3226-1.872 6.3644-4.851 7.8463l-.234.1091-12.277 4.8825c1.248 6.5047 8.564 16.332 21.184 28.6707 1.996-6.5203 7.175-11.7147 13.82-13.6646 1.061-11.9331 11.091-21.2925 23.305-21.2925z" fill="#2965ff"/></g></g></svg>