<svg fill="none" height="180" viewBox="0 0 280 180" width="280" xmlns="http://www.w3.org/2000/svg" xmlns:xlink="http://www.w3.org/1999/xlink"><mask id="a" height="179" maskUnits="userSpaceOnUse" width="180" x="100" y="0"><path d="m280 0h-180v178.594h180z" fill="#fff"/></mask><mask id="b" height="141" maskUnits="userSpaceOnUse" width="142" x="0" y="39"><path d="m141.417 41.1005-139.99317-1.413-1.42410605 138.8995 139.99227605 1.413z" fill="#fff"/></mask><g mask="url(#a)"><path d="m246.327 71.6963c-9.126-1.3133-15.463-9.7306-14.14-18.7847.181-1.2338.502-2.4476.963-3.6217 1.183-3.1241.241-6.6263-2.346-8.7555-5.576-4.6365-11.913-8.298-18.752-10.7854-3.189-1.174-6.779-.179-8.905 2.4476-5.676 7.2035-16.145 8.4571-23.405 2.8456-1.063-.8358-2.026-1.7909-2.868-2.8456-2.126-2.6465-5.716-3.6216-8.905-2.4476-6.317 2.3083-12.214 5.5917-17.468 9.7307-2.728 2.1491-3.731 5.7906-2.467 9.0143 3.469 8.4372-.602 18.0683-9.086 21.5109-1.524.6169-3.128 1.0148-4.753 1.1541-3.449.3582-6.257 2.9252-6.899 6.308-.802 3.9003-1.203 7.8602-1.203 11.84 0 3.3231.26 6.6463.802 9.9296.562 3.4824 3.409 6.1684 6.939 6.5464 9.146.856 15.864 8.895 15.002 17.969-.181 1.851-.662 3.662-1.444 5.333-1.484 3.204-.602 7.005 2.166 9.214 5.535 4.556 11.833 8.158 18.592 10.606.862.298 1.764.457 2.687.457 2.547 0 4.934-1.233 6.398-3.303 3.088-4.457 8.183-7.124 13.638-7.104 5.274 0 10.228 2.488 13.377 6.686 2.126 2.826 5.896 3.9 9.205 2.587 6.178-2.467 11.934-5.87 17.048-10.109 2.647-2.169 3.57-5.77 2.306-8.914-3.57-8.398.381-18.069 8.845-21.611 1.444-.597 2.948-.995 4.492-1.174 3.41-.457 6.117-3.064 6.699-6.4272.682-3.5221 1.063-7.104 1.103-10.7057 0-3.7808-.361-7.5617-1.063-11.2828-.582-3.2833-3.229-5.8304-6.558-6.308zm-34.997 17.5908c0 11.6809-9.547 21.1529-21.32 21.1529-11.772 0-21.319-9.472-21.319-21.1529 0-11.6808 9.547-21.1527 21.319-21.1527 11.773 0 21.32 9.4719 21.32 21.1527z" fill="#fc4c02"/></g><g mask="url(#b)"><path d="m114.655 96.5973c-7.086-1.0931-11.948-7.6893-10.846-14.7206.15-.9581.409-1.8996.777-2.8091.945-2.4205.24-5.1517-1.755-6.828-4.2992-3.6497-9.199-6.5471-14.4981-8.5353-2.4708-.9381-5.2708-.1925-6.9451 1.8337-4.4717 5.5578-12.6239 6.4506-18.2257 2.0293-.82-.6583-1.5611-1.4087-2.2078-2.2356-1.6323-2.075-4.4166-2.8615-6.906-1.9735-4.9318 1.7457-9.5438 4.253-13.6635 7.4308-2.1385 1.65-2.9475 4.4743-1.9905 6.9914 2.6312 6.5892-.612 14.0477-7.2374 16.6585-1.1904.4678-2.4414.7647-3.706.8603-2.6857.2515-4.8899 2.2259-5.416 4.8518-.6551 3.027-.9986 6.104-1.0303 9.199-.0265 2.584.1497 5.171.5447 7.729.409 2.713 2.6025 4.824 5.3447 5.146 7.1059.737 12.2672 7.042 11.5241 14.093-.1551 1.438-.5439 2.842-1.1656 4.136-1.1798 2.48-.5238 5.443 1.6112 7.183 4.2687 3.587 9.1378 6.438 14.3748 8.394.6683.239 1.369.37 2.0865.378 1.981.02 3.847-.921 5.0021-2.519 2.4377-3.443 6.4209-5.477 10.6634-5.418 4.1023.041 7.9352 2.015 10.3506 5.305 1.6308 2.214 4.5547 3.079 7.1389 2.084 4.8239-1.871 9.3276-4.472 13.339-7.728 2.076-1.666 2.822-4.46 1.865-6.915-2.71-6.559.44-14.05 7.051-16.738 1.128-.453 2.301-.751 3.503-.878 2.656-.329 4.782-2.335 5.261-4.946.559-2.734.884-5.517.943-8.318.031-2.94-.22-5.884-.736-8.783-.426-2.5584-2.465-4.5601-5.051-4.9577zm-27.3584 13.4067c-.0932 9.084-7.5934 16.376-16.7495 16.283-9.156-.092-16.5052-7.534-16.4121-16.618.0932-9.085 7.5934-16.3764 16.7495-16.284s16.5052 7.534 16.4121 16.619z" fill="#2965ff"/></g></svg>