<svg fill="none" height="72" viewBox="0 0 72 72" width="72" xmlns="http://www.w3.org/2000/svg" xmlns:xlink="http://www.w3.org/1999/xlink"><clipPath id="a"><rect height="72" rx="36" width="72"/></clipPath><mask id="b" height="72" maskUnits="userSpaceOnUse" width="72" x="0" y="0"><path d="m72 0h-72v72h72z" fill="#fff"/></mask><g clip-path="url(#a)"><rect fill="#7ee100" height="72" rx="36" width="72"/><g fill="#fff" mask="url(#b)"><path d="m45.5183 33.3248c5.2758-5.2758 5.2936-13.8118.0397-19.0656-5.2538-5.25389-13.7898-5.23611-19.0656.0397-5.2758 5.2758-5.2936 13.8118-.0397 19.0656 5.2538 5.2539 13.7898 5.2361 19.0656-.0397z"/><path d="m52.7785 46.113c-3.6903-3.7464-8.5838-5.8161-13.7823-5.8161h-5.9926c-5.1985 0-10.0921 2.0617-13.7823 5.8161-3.1768 3.225-5.1263 7.3484-5.5915 11.7848-.2006 1.9093 1.2835 3.5859 3.2089 3.5859h38.3224c1.9254 0 3.4095-1.6686 3.2089-3.5859-.4653-4.4283-2.4067-8.5518-5.5915-11.7848z"/></g></g></svg>