<svg fill="none" height="72" viewBox="0 0 72 72" width="72" xmlns="http://www.w3.org/2000/svg" xmlns:xlink="http://www.w3.org/1999/xlink"><clipPath id="a"><rect height="72" rx="36" width="72"/></clipPath><mask id="b" height="72" maskUnits="userSpaceOnUse" width="72" x="0" y="0"><path d="m72 0h-72v72h72z" fill="#fff"/></mask><g clip-path="url(#a)"><rect fill="#fc4c02" height="72" rx="36" width="72"/><g mask="url(#b)"><path d="m46.85 28.5825-15.8841-15.8841c-1.2515-1.2515-3.2811-1.2515-4.5406 0l-2.88 2.88c-1.2515 1.2514-1.2515 3.2811 0 4.5406l15.8841 15.8841-15.8841 15.8841c-1.2515 1.2515-1.2515 3.2811 0 4.5406l2.88 2.88c1.2515 1.2515 3.2811 1.2515 4.5406 0l15.8841-15.8841 5.1503-5.1503c1.2515-1.2515 1.2515-3.2811 0-4.5406z" fill="#fff"/></g></g></svg>