<svg fill="none" height="144" viewBox="0 0 360 144" width="360" xmlns="http://www.w3.org/2000/svg" xmlns:xlink="http://www.w3.org/1999/xlink"><clipPath id="a"><path d="m101 52h159v40h-159z"/></clipPath><g clip-path="url(#a)" fill="#002b5a"><path d="m101 73.3958v-.1135c0-11.9238 9.049-21.2823 21.279-21.2823 8.25 0 13.552 3.5016 17.123 8.5299l-8.42 6.6174c-2.318-2.9284-4.956-4.7956-8.831-4.7956-5.649 0-9.635 4.841-9.635 10.8114v.1135c0 6.135 3.981 10.9249 9.635 10.9249 4.221 0 6.688-1.9807 9.113-4.9772l8.42 6.0839c-3.81 5.3234-8.942 9.245-17.879 9.245-11.538 0-20.805-8.9442-20.805-21.1631"/><path d="m143.191 52.8066h32.3v9.9374h-21.108v6.9636h19.094v9.4266h-19.094v14.6195h-11.192z"/><path d="m191.036 93.7537-11.996-40.9471v40.9187h11.991v.0228zm16.84-14.9146c4.263-2.3041 6.992-6.2485 6.992-11.9408v-.1135c0-4.0351-1.21-7.1905-3.571-9.5231-2.707-2.8149-6.97-4.4494-13.141-4.4494h-19.073l11.191 17.0599v-7.2417h7.317c3.746 0 6.059 1.6345 6.059 4.841v.1135c0 2.9739-2.185 4.8638-5.995 4.8638h-5.671l13.963 21.2765h11.926l-10.002-14.8919z"/><path d="m242.814 52.5273h-10.781l-15.002 36.0096 2.574 3.8706.912 1.362h6.107l2.877-7.3097h15.567l2.941 7.3097h11.991zm-10.025 25.0847 4.546-11.6399 4.503 11.6399z"/></g></svg>