<svg width="148" height="40" viewBox="0 0 148 40" fill="none" xmlns="http://www.w3.org/2000/svg">
<path fill-rule="evenodd" clip-rule="evenodd" d="M17.8432 13.0362H18.027V4.35547H22.4227V28.8571H18.6082L18.245 26.8268H18.0629C17.4817 27.551 16.7292 28.1285 15.8099 28.5594C14.8888 28.9904 13.8 29.2063 12.5407 29.2063C10.964 29.2063 9.52985 28.8162 8.23473 28.0334C6.93962 27.2524 5.91626 26.1676 5.16556 24.7788C4.41486 23.3927 4.03906 21.7987 4.03906 20.0022C4.03906 18.2056 4.41486 16.6143 5.16556 15.2255C5.91536 13.8368 6.93962 12.7537 8.23473 11.9709C9.53074 11.1881 10.9667 10.7981 12.5407 10.7981C13.7264 10.7981 14.774 11.014 15.6825 11.4449C16.5893 11.8758 17.3104 12.4054 17.8432 13.0362ZM15.6646 24.6216C16.392 24.1782 16.966 23.5598 17.3902 22.7663C17.8127 21.9738 18.0252 21.0515 18.0252 20.0022C18.0252 18.9528 17.8127 18.0315 17.3902 17.238C16.9651 16.4455 16.3911 15.8315 15.6646 15.4006C14.9381 14.9696 14.1031 14.7537 13.2304 14.7537C12.3577 14.7537 11.5586 14.9696 10.8321 15.4006C10.1048 15.8333 9.52895 16.4446 9.10651 17.238C8.68407 18.0306 8.47151 18.9528 8.47151 20.0022C8.47151 21.0515 8.68228 21.9729 9.10651 22.7663C9.52985 23.5589 10.1057 24.1773 10.8321 24.6216C11.5586 25.0649 12.3344 25.2862 13.2304 25.2862C14.1264 25.2862 14.9381 25.0658 15.6646 24.6216Z" fill="white"/>
<path fill-rule="evenodd" clip-rule="evenodd" d="M33.7568 10.7954C35.5237 10.7954 37.1175 11.1926 38.5337 11.986C39.9508 12.7786 41.0647 13.8768 41.8764 15.2762C42.6863 16.6774 43.0926 18.2509 43.0926 20.0013C43.0926 21.7517 42.6881 23.327 41.8764 24.7264C41.0638 26.1276 39.9517 27.2231 38.5337 28.0166C37.1175 28.8118 35.5004 29.2072 33.7568 29.2072C32.0133 29.2072 30.4338 28.81 29.0158 28.0166C27.5987 27.224 26.4848 26.1258 25.6731 24.7264C24.8614 23.3252 24.4569 21.7517 24.4569 20.0013C24.4569 18.2509 24.8614 16.6756 25.6731 15.2762C26.4839 13.875 27.5996 12.7795 29.0158 11.986C30.4338 11.1926 31.9899 10.7954 33.7568 10.7954ZM36.2251 24.6038C36.9767 24.1729 37.5758 23.5545 38.0242 22.7486C38.4718 21.9454 38.6969 21.0266 38.6969 20.0022C38.6969 18.9777 38.4727 18.0617 38.0242 17.2558C37.5749 16.4508 36.9758 15.8315 36.2251 15.4006C35.4753 14.9696 34.651 14.7537 33.755 14.7537C32.859 14.7537 32.0357 14.9696 31.285 15.4006C30.5352 15.8333 29.9405 16.4499 29.5055 17.2558C29.0705 18.059 28.8526 18.9759 28.8526 20.0022C28.8526 21.0284 29.0705 21.9427 29.5055 22.7486C29.9405 23.5536 30.5343 24.1729 31.285 24.6038C32.0348 25.0347 32.859 25.2506 33.755 25.2506C34.651 25.2506 35.4744 25.0347 36.2251 24.6038Z" fill="white"/>
<path d="M58.5148 11.7239C57.4117 11.1055 56.1596 10.7972 54.7542 10.7972C53.5183 10.7972 52.4402 11.0078 51.5209 11.428C50.5998 11.8483 49.9235 12.3263 49.4858 12.863H49.3038L48.9405 11.1482H45.126V28.8571H49.5217V18.7769C49.5217 18.0297 49.6984 17.3597 50.0491 16.7644C50.3998 16.1691 50.8913 15.6964 51.5209 15.3473C52.1505 14.9981 52.8653 14.8213 53.6636 14.8213C54.4143 14.8213 55.0923 14.991 55.6986 15.3295C56.3031 15.668 56.7767 16.1354 57.1148 16.7289C57.4529 17.3242 57.6242 18.0066 57.6242 18.7769V28.8571H62.0199V18.2172C62.0199 16.7715 61.7105 15.4814 61.0934 14.3495C60.4764 13.2175 59.6162 12.3423 58.5131 11.7239H58.5148Z" fill="white"/>
<path fill-rule="evenodd" clip-rule="evenodd" d="M73.3886 10.7954C75.0604 10.7954 76.586 11.1801 77.9663 11.9505V11.9496L77.9681 11.9531C79.3485 12.7235 80.431 13.7781 81.2194 15.1207C82.006 16.4623 82.3997 17.9506 82.3997 19.5837C82.3997 19.98 82.3818 20.3469 82.3459 20.6854C82.3082 21.024 82.267 21.263 82.2185 21.4034H68.4485C68.5436 22.2199 68.8225 22.9565 69.2835 23.6087C69.7427 24.2608 70.3311 24.7637 71.045 25.1129C71.759 25.4639 72.5401 25.6389 73.3877 25.6389C74.3088 25.6389 75.1133 25.4532 75.8039 25.0791C76.4928 24.706 77.0201 24.2502 77.3834 23.7135H81.8885C81.5737 24.6242 81.0472 25.4923 80.309 26.3213C79.5691 27.1485 78.6193 27.838 77.4569 28.3853C76.2945 28.9326 74.9375 29.2072 73.3886 29.2072C71.645 29.2072 70.0584 28.81 68.6297 28.0166C67.2 27.224 66.0807 26.1258 65.269 24.7264C64.4573 23.3252 64.0528 21.7517 64.0528 20.0013C64.0528 18.2509 64.4573 16.6756 65.269 15.2762C66.0798 13.875 67.2009 12.7795 68.6297 11.986C70.0584 11.1926 71.7168 10.7954 73.3886 10.7954ZM69.2835 16.3788C68.8476 17.0221 68.5687 17.7382 68.4485 18.5317H78.0417C77.9439 17.7391 77.6901 17.0203 77.2784 16.3788C76.8641 15.7373 76.3259 15.2309 75.6604 14.8568C74.9941 14.4845 74.2371 14.297 73.3895 14.297C72.4917 14.297 71.6926 14.4845 70.9912 14.8568C70.2872 15.2291 69.7185 15.7373 69.2835 16.3788Z" fill="white"/>
<path d="M115.921 10.7972C117.327 10.7972 118.579 11.1055 119.682 11.7239L119.684 11.7221C120.787 12.3405 121.647 13.2157 122.264 14.3477C122.881 15.4796 123.191 16.7698 123.191 18.2154V28.8553H118.795V18.7751C118.795 18.0048 118.624 17.3224 118.285 16.7271C117.946 16.1336 117.472 15.6662 116.868 15.3277C116.261 14.9892 115.583 14.8195 114.832 14.8195C114.034 14.8195 113.319 14.9963 112.69 15.3455C112.06 15.6947 111.569 16.1674 111.218 16.7627C110.867 17.358 110.691 18.0279 110.691 18.7751V28.8553H106.295V4.35547H110.691V12.863H110.873C111.283 12.3263 111.944 11.8483 112.852 11.428C113.761 11.0078 114.782 10.7972 115.921 10.7972Z" fill="white"/>
<path fill-rule="evenodd" clip-rule="evenodd" d="M139.429 13.1766L139.792 11.1464H143.605V35.6462H139.209V27.0348H139.027C138.495 27.6425 137.775 28.1543 136.866 28.5745C135.96 28.9948 134.91 29.2054 133.725 29.2054C132.148 29.2054 130.714 28.8153 129.419 28.0326C128.123 27.2516 127.1 26.1667 126.349 24.7779C125.599 23.3919 125.223 21.7979 125.223 20.0013C125.223 18.2047 125.599 16.6134 126.349 15.2246C127.099 13.8359 128.123 12.7528 129.419 11.97C130.715 11.1872 132.15 10.7972 133.725 10.7972C134.959 10.7972 136.049 11.0131 136.994 11.444C137.939 11.8758 138.689 12.4534 139.247 13.1766H139.429ZM136.85 24.6216C137.578 24.1782 138.152 23.5598 138.576 22.7663C138.998 21.9738 139.211 21.0515 139.211 20.0022C139.211 18.9528 138.998 18.0315 138.576 17.238C138.151 16.4455 137.577 15.8315 136.85 15.4006C136.124 14.9696 135.289 14.7537 134.416 14.7537C133.543 14.7537 132.744 14.9696 132.018 15.4006C131.29 15.8333 130.715 16.4446 130.292 17.238C129.87 18.0306 129.657 18.9528 129.657 20.0022C129.657 21.0515 129.868 21.9729 130.292 22.7663C130.715 23.5589 131.291 24.1773 132.018 24.6216C132.744 25.0649 133.52 25.2862 134.416 25.2862C135.312 25.2862 136.124 25.0658 136.85 24.6216Z" fill="white"/>
<path d="M95.355 16.6532V11.2111C95.355 10.6291 94.6214 10.3661 94.2447 10.813L84.5789 22.3353C84.2389 22.7404 84.5295 23.3535 85.0605 23.3535H93.3173V28.7939C93.3173 29.3758 94.0509 29.6388 94.4276 29.1919L104.093 17.6697C104.433 17.2645 104.143 16.6514 103.612 16.6514L103.61 16.6532H95.355Z" fill="#7EE100"/>
</svg>
