<svg fill="none" height="40" viewBox="0 0 148 40" width="148" xmlns="http://www.w3.org/2000/svg"><g fill="#06038d"><path clip-rule="evenodd" d="m17.8432 13.0362h.1838v-8.68073h4.3957v24.50163h-3.8145l-.3632-2.0303h-.1821c-.5812.7242-1.3337 1.3017-2.253 1.7326-.9211.431-2.0099.6469-3.2692.6469-1.5767 0-3.01085-.3901-4.30597-1.1729-1.29511-.781-2.31847-1.8658-3.06917-3.2546-.7507-1.3861-1.1265-2.9801-1.1265-4.7766 0-1.7966.3758-3.3879 1.1265-4.7767.7498-1.3887 1.77406-2.4718 3.06917-3.2546 1.29601-.7828 2.73197-1.1728 4.30597-1.1728 1.1857 0 2.2333.2159 3.1418.6468.9068.4309 1.6279.9605 2.1607 1.5913zm-2.1786 11.5854c.7274-.4434 1.3014-1.0618 1.7256-1.8553.4225-.7925.635-1.7148.635-2.7641 0-1.0494-.2125-1.9707-.635-2.7642-.4251-.7925-.9991-1.4065-1.7256-1.8374-.7265-.431-1.5615-.6469-2.4342-.6469s-1.6718.2159-2.3983.6469c-.7273.4327-1.30315 1.044-1.72559 1.8374-.42244.7926-.635 1.7148-.635 2.7642 0 1.0493.21077 1.9707.635 2.7641.42334.7926.99919 1.411 1.72559 1.8553.7265.4433 1.5023.6646 2.3983.6646s1.7077-.2204 2.4342-.6646z" fill-rule="evenodd"/><path clip-rule="evenodd" d="m33.7568 10.7954c1.7669 0 3.3607.3972 4.7769 1.1906 1.4171.7926 2.531 1.8908 3.3427 3.2902.8099 1.4012 1.2162 2.9747 1.2162 4.7251s-.4045 3.3257-1.2162 4.7251c-.8126 1.4012-1.9247 2.4967-3.3427 3.2902-1.4162.7952-3.0333 1.1906-4.7769 1.1906-1.7435 0-3.323-.3972-4.741-1.1906-1.4171-.7926-2.531-1.8908-3.3427-3.2902-.8117-1.4012-1.2162-2.9747-1.2162-4.7251s.4045-3.3257 1.2162-4.7251c.8108-1.4012 1.9265-2.4967 3.3427-3.2902 1.418-.7934 2.9741-1.1906 4.741-1.1906zm2.4683 13.8084c.7516-.4309 1.3507-1.0493 1.7991-1.8552.4476-.8032.6727-1.722.6727-2.7464 0-1.0245-.2242-1.9405-.6727-2.7464-.4493-.805-1.0484-1.4243-1.7991-1.8552-.7498-.431-1.5741-.6469-2.4701-.6469s-1.7193.2159-2.47.6469c-.7498.4327-1.3445 1.0493-1.7795 1.8552-.435.8032-.6529 1.7201-.6529 2.7464 0 1.0262.2179 1.9405.6529 2.7464.435.805 1.0288 1.4243 1.7795 1.8552.7498.4309 1.574.6468 2.47.6468s1.7194-.2159 2.4701-.6468z" fill-rule="evenodd"/><path d="m58.5148 11.7239c-1.1031-.6184-2.3552-.9267-3.7606-.9267-1.2359 0-2.314.2106-3.2333.6308-.9211.4203-1.5974.8983-2.0351 1.435h-.182l-.3633-1.7148h-3.8145v17.7089h4.3957v-10.0802c0-.7472.1767-1.4172.5274-2.0125s.8422-1.068 1.4718-1.4171c.6296-.3492 1.3444-.526 2.1427-.526.7507 0 1.4287.1697 2.035.5082.6045.3385 1.0781.8059 1.4162 1.3994.3381.5953.5094 1.2777.5094 2.048v10.0802h4.3957v-10.6399c0-1.4457-.3094-2.7358-.9265-3.8677-.617-1.132-1.4772-2.0072-2.5803-2.6256z"/><path clip-rule="evenodd" d="m73.3886 10.7954c1.6718 0 3.1974.3847 4.5777 1.1551v-.0009l.0018.0035c1.3804.7704 2.4629 1.825 3.2513 3.1676.7866 1.3416 1.1803 2.8299 1.1803 4.463 0 .3963-.0179.7632-.0538 1.1017-.0377.3386-.0789.5776-.1274.718h-13.77c.0951.8165.374 1.5531.835 2.2053.4592.6521 1.0476 1.155 1.7615 1.5042.714.351 1.4951.526 2.3427.526.9211 0 1.7256-.1857 2.4162-.5598.6889-.3731 1.2162-.8289 1.5795-1.3656h4.5051c-.3148.9107-.8413 1.7788-1.5795 2.6078-.7399.8272-1.6897 1.5167-2.8521 2.064s-2.5194.8219-4.0683.8219c-1.7436 0-3.3302-.3972-4.7589-1.1906-1.4297-.7926-2.549-1.8908-3.3607-3.2902-.8117-1.4012-1.2162-2.9747-1.2162-4.7251s.4045-3.3257 1.2162-4.7251c.8108-1.4012 1.9319-2.4967 3.3607-3.2902 1.4287-.7934 3.0871-1.1906 4.7589-1.1906zm-4.1051 5.5834c-.4359.6433-.7148 1.3594-.835 2.1529h9.5932c-.0978-.7926-.3516-1.5114-.7633-2.1529-.4143-.6415-.9525-1.1479-1.618-1.522-.6663-.3723-1.4233-.5598-2.2709-.5598-.8978 0-1.6969.1875-2.3983.5598-.704.3723-1.2727.8805-1.7077 1.522z" fill-rule="evenodd"/><path d="m115.921 10.7972c1.406 0 2.658.3083 3.761.9267l.002-.0018c1.103.6184 1.963 1.4936 2.58 2.6256.617 1.1319.927 2.4221.927 3.8677v10.6399h-4.396v-10.0802c0-.7703-.171-1.4527-.51-2.048-.339-.5935-.813-1.0609-1.417-1.3994-.607-.3385-1.285-.5082-2.036-.5082-.798 0-1.513.1768-2.142.526-.63.3492-1.121.8219-1.472 1.4172s-.527 1.2652-.527 2.0124v10.0802h-4.396v-24.49983h4.396v8.50753h.182c.41-.5367 1.071-1.0147 1.979-1.435.909-.4202 1.93-.6308 3.069-.6308z"/><path clip-rule="evenodd" d="m139.429 13.1766.363-2.0302h3.813v24.4998h-4.396v-8.6114h-.182c-.532.6077-1.252 1.1195-2.161 1.5397-.906.4203-1.956.6309-3.141.6309-1.577 0-3.011-.3901-4.306-1.1728-1.296-.781-2.319-1.8659-3.07-3.2547-.75-1.386-1.126-2.98-1.126-4.7766s.376-3.3879 1.126-4.7767c.75-1.3887 1.774-2.4718 3.07-3.2546s2.731-1.1728 4.306-1.1728c1.234 0 2.324.2159 3.269.6468.945.4318 1.695 1.0094 2.253 1.7326zm-2.579 11.445c.728-.4434 1.302-1.0618 1.726-1.8553.422-.7925.635-1.7148.635-2.7641 0-1.0494-.213-1.9707-.635-2.7642-.425-.7925-.999-1.4065-1.726-1.8374-.726-.431-1.561-.6469-2.434-.6469s-1.672.2159-2.398.6469c-.728.4327-1.303 1.044-1.726 1.8374-.422.7926-.635 1.7148-.635 2.7642 0 1.0493.211 1.9707.635 2.7641.423.7926.999 1.411 1.726 1.8553.726.4433 1.502.6646 2.398.6646s1.708-.2204 2.434-.6646z" fill-rule="evenodd"/></g><path d="m95.355 16.6532v-5.4421c0-.582-.7336-.845-1.1103-.3981l-9.6658 11.5223c-.34.4051-.0494 1.0182.4816 1.0182h8.2568v5.4404c0 .5819.7336.8449 1.1103.398l9.6654-11.5222c.34-.4052.05-1.0183-.481-1.0183l-.002.0018z" fill="#7ee100"/></svg>