<svg fill="none" height="32" viewBox="0 0 104 32" width="104" xmlns="http://www.w3.org/2000/svg"><rect height="31" rx="15.5" stroke="#2965ff" width="103" x=".5" y=".5"/><path d="m15.072 21v-8.432h1.312l.064 1.28c.192-.3093.4373-.5653.736-.768s.624-.352.976-.448c.3627-.1067.7147-.16 1.056-.16.8213 0 1.4613.1707 1.92.512.4693.3413.8.8053.992 1.392.2027.576.304 1.232.304 1.968v4.656h-1.36v-4.288c0-.3947-.0267-.7733-.08-1.136-.0427-.3627-.1387-.688-.288-.976-.1387-.288-.3413-.512-.608-.672-.2667-.1707-.624-.256-1.072-.256-.5547 0-1.0293.1547-1.424.464-.384.3093-.6773.7253-.88 1.248-.192.5227-.288 1.1093-.288 1.76v3.856zm13.1331.096c-.8853 0-1.6266-.1813-2.224-.544-.5973-.3733-1.0453-.8853-1.344-1.536-.288-.6507-.432-1.392-.432-2.224 0-.8427.1494-1.584.448-2.224.2987-.6507.7467-1.1627 1.344-1.536.5974-.3733 1.344-.56 2.24-.56.8854 0 1.6214.1867 2.208.56.5974.3733 1.04.8853 1.328 1.536.2987.64.448 1.3813.448 2.224 0 .832-.1493 1.5733-.448 2.224-.2986.6507-.7466 1.1627-1.344 1.536-.5866.3627-1.328.544-2.224.544zm0-1.2c.6187 0 1.12-.1387 1.504-.416.3947-.2773.6827-.6507.864-1.12.192-.4693.288-.992.288-1.568s-.096-1.0987-.288-1.568c-.1813-.4693-.4693-.8427-.864-1.12-.384-.2773-.8853-.416-1.504-.416-.608 0-1.1093.1387-1.504.416-.384.2773-.672.6507-.864 1.12-.1813.4693-.272.992-.272 1.568s.0907 1.0987.272 1.568c.192.4693.48.8427.864 1.12.3947.2773.896.416 1.504.416zm5.8357 1.104v-8.432h1.312l.064 1.28c.192-.3093.4373-.5653.736-.768.2986-.2027.624-.352.976-.448.3626-.1067.7146-.16 1.056-.16.8213 0 1.4613.1707 1.92.512.4693.3413.8.8053.992 1.392.2026.576.304 1.232.304 1.968v4.656h-1.36v-4.288c0-.3947-.0267-.7733-.08-1.136-.0427-.3627-.1387-.688-.288-.976-.1387-.288-.3414-.512-.608-.672-.2667-.1707-.624-.256-1.072-.256-.5547 0-1.0294.1547-1.424.464-.384.3093-.6774.7253-.88 1.248-.192.5227-.288 1.1093-.288 1.76v3.856zm9.5651-3.888v-1.248h4.96v1.248zm7.2161 6.928v-11.472h1.296l.064 1.264c.288-.4373.6773-.7733 1.168-1.008.5013-.2347 1.04-.352 1.616-.352.8533 0 1.552.192 2.096.576.544.3733.944.8853 1.2 1.536.2667.6507.4 1.3867.4 2.208s-.1333 1.5573-.4 2.208-.6773 1.1627-1.232 1.536-1.264.56-2.128.56c-.4267 0-.8107-.0427-1.152-.128-.3413-.096-.64-.2293-.896-.4-.256-.1813-.48-.3893-.672-.624v4.096zm3.968-4.144c.6187 0 1.1093-.1387 1.472-.416.3627-.288.624-.6667.784-1.136.1707-.4693.256-.9867.256-1.552 0-.576-.0853-1.0987-.256-1.568-.16-.4693-.4267-.8427-.8-1.12s-.8693-.416-1.488-.416c-.5547 0-1.0293.144-1.424.432-.384.2773-.6773.656-.88 1.136-.2027.4693-.304.9867-.304 1.552 0 .5867.096 1.1147.288 1.584s.4853.8373.88 1.104.8853.4 1.472.4zm5.6883 1.104v-8.432h1.312l.064 1.312c.2133-.3307.4586-.5973.736-.8.288-.2027.6026-.352.944-.448.352-.1067.7306-.16 1.136-.16h.208.224v1.28h-.496c-.6614 0-1.2.144-1.616.432-.4054.2773-.6987.656-.88 1.136-.1814.4693-.272.992-.272 1.568v4.112zm9.4925.096c-.8854 0-1.6267-.1813-2.224-.544-.5974-.3733-1.0454-.8853-1.344-1.536-.288-.6507-.432-1.392-.432-2.224 0-.8427.1493-1.584.448-2.224.2986-.6507.7466-1.1627 1.344-1.536.5973-.3733 1.344-.56 2.24-.56.8853 0 1.6213.1867 2.208.56.5973.3733 1.04.8853 1.328 1.536.2986.64.448 1.3813.448 2.224 0 .832-.1494 1.5733-.448 2.224-.2987.6507-.7467 1.1627-1.344 1.536-.5867.3627-1.328.544-2.224.544zm0-1.2c.6186 0 1.12-.1387 1.504-.416.3946-.2773.6826-.6507.864-1.12.192-.4693.288-.992.288-1.568s-.096-1.0987-.288-1.568c-.1814-.4693-.4694-.8427-.864-1.12-.384-.2773-.8854-.416-1.504-.416-.608 0-1.1094.1387-1.504.416-.384.2773-.672.6507-.864 1.12-.1814.4693-.2721.992-.2721 1.568s.0907 1.0987.2721 1.568c.192.4693.48.8427.864 1.12.3946.2773.896.416 1.504.416zm6.4953 1.104v-7.232h-1.376v-1.2h1.376v-.896c0-.6293.0854-1.1413.256-1.536.1814-.40533.464-.704.848-.896.3947-.192.912-.288 1.552-.288h.96v1.2h-.816c-.384 0-.6826.064-.896.192-.2026.128-.3466.32-.432.576-.0746.2453-.112.5493-.112.912v.736h2.256v1.2h-2.256v7.232zm5.0434 0v-8.432h1.36v8.432zm.672-9.68c-.2773 0-.5013-.0853-.672-.256-.16-.1707-.24-.3893-.24-.656s.0853-.48.256-.64c.1707-.17067.3893-.256.656-.256.2453 0 .4587.08533.64.256.192.17067.288.384.288.64 0 .2667-.0907.4853-.272.656s-.4.256-.656.256zm6.252 9.68c-.64 0-1.1573-.096-1.552-.288-.384-.192-.6667-.4907-.848-.896-.1707-.4053-.256-.9173-.256-1.536v-4.512h-1.376v-1.2h1.376v-2.512h1.36v2.512h2.256v1.2h-2.256v4.368c0 .576.1013 1.0027.304 1.28.2133.2667.64.4 1.28.4h.624v1.184z" fill="#2965ff"/></svg>