<svg fill="none" height="32" viewBox="0 0 118 32" width="118" xmlns="http://www.w3.org/2000/svg"><rect height="31" rx="15.5" stroke="#fc4c02" width="117" x=".5" y=".5"/><path d="m18.736 24.776c-.576 0-1.1093-.0907-1.6-.272-.4907-.1707-.9067-.4427-1.248-.816s-.5707-.848-.688-1.424h1.408c.0853.32.2453.576.48.768s.5067.3253.816.4c.3093.0853.6133.128.912.128.576 0 1.04-.1173 1.392-.352.3627-.224.624-.5387.784-.944.16-.3947.24-.848.24-1.36v-1.168c-.1813.32-.4213.5813-.72.784s-.624.352-.976.448c-.352.0853-.7147.128-1.088.128-.8533 0-1.552-.1867-2.096-.56-.544-.384-.9493-.896-1.216-1.536-.256-.6507-.384-1.3813-.384-2.192s.1333-1.5413.4-2.192c.2667-.6613.6773-1.184 1.232-1.568s1.264-.576 2.128-.576c.4907 0 .9867.0907 1.488.272s.912.4747 1.232.88l.064-1.056h1.296v8.368c0 .7893-.144 1.472-.432 2.048-.2773.576-.704 1.0187-1.28 1.328-.5653.3093-1.28.464-2.144.464zm-.096-4.88c.5653 0 1.04-.144 1.424-.432s.6773-.672.88-1.152.304-1.0027.304-1.568c0-.5867-.1013-1.1093-.304-1.568-.192-.4587-.48-.8213-.864-1.088s-.8693-.4-1.456-.4c-.608 0-1.0987.1387-1.472.416-.3627.2773-.6293.6507-.8 1.12-.16.4693-.24.992-.24 1.568 0 .5973.0853 1.1307.256 1.6s.4427.8373.816 1.104.8587.4 1.456.4zm9.7683 1.2c-.8854 0-1.6267-.1813-2.224-.544-.5974-.3733-1.0454-.8853-1.344-1.536-.288-.6507-.432-1.392-.432-2.224 0-.8427.1493-1.584.448-2.224.2986-.6507.7466-1.1627 1.344-1.536.5973-.3733 1.344-.56 2.24-.56.8853 0 1.6213.1867 2.208.56.5973.3733 1.04.8853 1.328 1.536.2986.64.448 1.3813.448 2.224 0 .832-.1494 1.5733-.448 2.224-.2987.6507-.7467 1.1627-1.344 1.536-.5867.3627-1.328.544-2.224.544zm0-1.2c.6186 0 1.12-.1387 1.504-.416.3946-.2773.6826-.6507.864-1.12.192-.4693.288-.992.288-1.568s-.096-1.0987-.288-1.568c-.1814-.4693-.4694-.8427-.864-1.12-.384-.2773-.8854-.416-1.504-.416-.608 0-1.1094.1387-1.504.416-.384.2773-.672.6507-.864 1.12-.1814.4693-.2721.992-.2721 1.568s.0907 1.0987.2721 1.568c.192.4693.48.8427.864 1.12.3946.2773.896.416 1.504.416zm8.1236 1.104-3.248-8.432h1.536l2.656 7.12 2.608-7.12h1.552l-3.248 8.432zm9.9381.096c-.896 0-1.6373-.1813-2.224-.544-.5867-.3733-1.024-.8853-1.312-1.536s-.432-1.392-.432-2.224c0-.8427.1493-1.584.448-2.224.3093-.6507.7573-1.1627 1.344-1.536s1.3067-.56 2.16-.56c.6613 0 1.2267.128 1.696.384.48.2453.8747.576 1.184.992s.5333.8747.672 1.376c.1387.4907.1973.9867.176 1.488-.0107.096-.0213.192-.032.288 0 .096-.0053.192-.016.288h-6.256c.0427.4907.1653.9333.368 1.328s.4907.7093.864.944c.3733.224.8373.336 1.392.336.2773 0 .5547-.032.832-.096.288-.0747.544-.1973.768-.368.2347-.1707.4-.4.496-.688h1.392c-.128.544-.368.992-.72 1.344-.352.3413-.7733.5973-1.264.768-.4907.16-1.0027.24-1.536.24zm-2.56-4.992h4.88c-.0107-.48-.1173-.9013-.32-1.264s-.48-.6453-.832-.848c-.3413-.2027-.752-.304-1.232-.304-.5227 0-.9653.112-1.328.336-.352.224-.624.5173-.816.88s-.3093.7627-.352 1.2zm8.0839 4.896v-8.432h1.312l.064 1.312c.2133-.3307.4586-.5973.736-.8.288-.2027.6026-.352.944-.448.352-.1067.7306-.16 1.136-.16h.208.224v1.28h-.496c-.6614 0-1.2.144-1.616.432-.4054.2773-.6987.656-.88 1.136-.1814.4693-.272.992-.272 1.568v4.112zm5.9687 0v-8.432h1.312l.064 1.28c.192-.3093.4374-.5653.736-.768.2987-.2027.624-.352.976-.448.3627-.1067.7147-.16 1.056-.16.8214 0 1.4614.1707 1.92.512.4694.3413.8.8053.992 1.392.2027.576.304 1.232.304 1.968v4.656h-1.36v-4.288c0-.3947-.0266-.7733-.08-1.136-.0426-.3627-.1386-.688-.288-.976-.1386-.288-.3413-.512-.608-.672-.2666-.1707-.624-.256-1.072-.256-.5546 0-1.0293.1547-1.424.464-.384.3093-.6773.7253-.88 1.248-.192.5227-.288 1.1093-.288 1.76v3.856zm9.4532 0v-8.432h1.312l.064 1.008c.1813-.256.384-.464.608-.624.2346-.16.4906-.2773.768-.352.288-.0853.592-.128.912-.128.5866 0 1.0613.128 1.424.384.3626.2453.6346.5707.816.976.192-.288.4106-.5333.656-.736.256-.2027.5386-.3573.848-.464.32-.1067.672-.16 1.056-.16.6186 0 1.1146.1333 1.488.4.384.2667.6613.6293.832 1.088.1706.448.256.9547.256 1.52v5.52h-1.36v-4.832c0-.2773-.016-.56-.048-.848-.0214-.288-.0854-.5547-.192-.8-.1067-.256-.2667-.4587-.48-.608-.2027-.16-.4907-.24-.864-.24-.352 0-.6507.0853-.896.256-.2347.16-.4267.3787-.576.656-.1494.2773-.256.576-.32.896-.064.3093-.096.6187-.096.928v4.592h-1.36v-4.848c0-.2667-.016-.544-.048-.832-.0214-.288-.08-.5547-.176-.8-.0854-.256-.2347-.4587-.448-.608-.2027-.16-.4854-.24-.848-.24-.512 0-.912.1493-1.2.448-.288.288-.4907.6453-.608 1.072-.1067.416-.16.8267-.16 1.232v4.576zm16.7573.096c-.896 0-1.6373-.1813-2.224-.544-.5866-.3733-1.024-.8853-1.312-1.536s-.432-1.392-.432-2.224c0-.8427.1494-1.584.448-2.224.3094-.6507.7574-1.1627 1.344-1.536.5867-.3733 1.3067-.56 2.16-.56.6614 0 1.2267.128 1.696.384.48.2453.8747.576 1.184.992.3094.416.5334.8747.672 1.376.1387.4907.1974.9867.176 1.488-.0106.096-.0213.192-.032.288 0 .096-.0053.192-.016.288h-6.256c.0427.4907.1654.9333.368 1.328.2027.3947.4907.7093.864.944.3734.224.8374.336 1.392.336.2774 0 .5547-.032.832-.096.288-.0747.544-.1973.768-.368.2347-.1707.4-.4.496-.688h1.392c-.128.544-.368.992-.72 1.344-.352.3413-.7733.5973-1.264.768-.4906.16-1.0026.24-1.536.24zm-2.56-4.992h4.88c-.0106-.48-.1173-.9013-.32-1.264-.2026-.3627-.48-.6453-.832-.848-.3413-.2027-.752-.304-1.232-.304-.5226 0-.9653.112-1.328.336-.352.224-.624.5173-.816.88s-.3093.7627-.352 1.2zm8.0839 4.896v-8.432h1.312l.064 1.28c.192-.3093.4373-.5653.736-.768s.624-.352.976-.448c.3627-.1067.7147-.16 1.056-.16.8213 0 1.4613.1707 1.92.512.4693.3413.8.8053.992 1.392.2027.576.304 1.232.304 1.968v4.656h-1.36v-4.288c0-.3947-.0267-.7733-.08-1.136-.0427-.3627-.1387-.688-.288-.976-.1387-.288-.3413-.512-.608-.672-.2667-.1707-.624-.256-1.072-.256-.5547 0-1.0293.1547-1.424.464-.384.3093-.6773.7253-.88 1.248-.192.5227-.288 1.1093-.288 1.76v3.856zm12.877 0c-.64 0-1.157-.096-1.552-.288-.384-.192-.667-.4907-.848-.896-.171-.4053-.2559-.9173-.2559-1.536v-4.512h-1.376v-1.2h1.376v-2.512h1.3599v2.512h2.256v1.2h-2.256v4.368c0 .576.101 1.0027.304 1.28.213.2667.64.4 1.28.4h.624v1.184z" fill="#fc4c02"/></svg>