<svg fill="none" height="32" viewBox="0 0 93 32" width="93" xmlns="http://www.w3.org/2000/svg"><rect height="31" rx="15.5" stroke="#2965ff" width="92" x=".5" y=".5"/><path d="m16.816 21-2.624-8.432h1.536l2.016 7.12 2.08-7.12h1.84l2.096 7.12 1.984-7.12h1.552l-2.624 8.432h-1.856l-2.08-6.832-2.08 6.832zm15.3884.096c-.896 0-1.6374-.1813-2.224-.544-.5867-.3733-1.024-.8853-1.312-1.536s-.432-1.392-.432-2.224c0-.8427.1493-1.584.448-2.224.3093-.6507.7573-1.1627 1.344-1.536.5866-.3733 1.3066-.56 2.16-.56.6613 0 1.2266.128 1.696.384.48.2453.8746.576 1.184.992.3093.416.5333.8747.672 1.376.1386.4907.1973.9867.176 1.488-.0107.096-.0214.192-.032.288 0 .096-.0054.192-.016.288h-6.256c.0426.4907.1653.9333.368 1.328.2026.3947.4906.7093.864.944.3733.224.8373.336 1.392.336.2773 0 .5546-.032.832-.096.288-.0747.544-.1973.768-.368.2346-.1707.4-.4.496-.688h1.392c-.128.544-.368.992-.72 1.344-.352.3413-.7734.5973-1.264.768-.4907.16-1.0027.24-1.536.24zm-2.56-4.992h4.88c-.0107-.48-.1174-.9013-.32-1.264-.2027-.3627-.48-.6453-.832-.848-.3414-.2027-.752-.304-1.232-.304-.5227 0-.9654.112-1.328.336-.352.224-.624.5173-.816.88s-.3094.7627-.352 1.2zm12.0679 4.992c-.384 0-.7414-.0427-1.072-.128-.32-.096-.6134-.2293-.88-.4-.256-.1707-.48-.368-.672-.592l-.064 1.024h-1.296v-11.312h1.36v4.096c.2773-.4267.672-.752 1.184-.976.5226-.224 1.056-.336 1.6-.336.8533 0 1.552.192 2.096.576.544.3733.944.8853 1.2 1.536.2666.64.4 1.3653.4 2.176 0 .8-.1387 1.5307-.416 2.192-.2774.6507-.6987 1.1733-1.264 1.568-.5654.384-1.2907.576-2.176.576zm-.016-1.2c.6186 0 1.1093-.1387 1.472-.416.3626-.288.624-.6667.784-1.136.1706-.4693.256-.9867.256-1.552 0-.576-.0854-1.0987-.256-1.568-.16-.4693-.4267-.8427-.8-1.12-.3734-.2773-.8694-.416-1.488-.416-.5547 0-1.0294.1547-1.424.464-.384.3093-.6774.704-.88 1.184-.2027.48-.304.9707-.304 1.472 0 .544.0853 1.0507.256 1.52.1813.4693.464.848.848 1.136.3946.288.9066.432 1.536.432zm6.348 1.104v-7.232h-1.376v-1.2h1.376v-.896c0-.6293.0853-1.1413.256-1.536.1813-.40533.464-.704.848-.896.3946-.192.912-.288 1.552-.288h.96v1.2h-.816c-.384 0-.6827.064-.896.192-.2027.128-.3467.32-.432.576-.0747.2453-.112.5493-.112.912v.736h2.256v1.2h-2.256v7.232zm5.0433 0v-11.312h1.36v11.312zm7.18.096c-.8853 0-1.6266-.1813-2.224-.544-.5973-.3733-1.0453-.8853-1.344-1.536-.288-.6507-.432-1.392-.432-2.224 0-.8427.1494-1.584.448-2.224.2987-.6507.7467-1.1627 1.344-1.536.5974-.3733 1.344-.56 2.24-.56.8854 0 1.6214.1867 2.208.56.5974.3733 1.04.8853 1.328 1.536.2987.64.448 1.3813.448 2.224 0 .832-.1493 1.5733-.448 2.224-.2986.6507-.7466 1.1627-1.344 1.536-.5866.3627-1.328.544-2.224.544zm0-1.2c.6187 0 1.12-.1387 1.504-.416.3947-.2773.6827-.6507.864-1.12.192-.4693.288-.992.288-1.568s-.096-1.0987-.288-1.568c-.1813-.4693-.4693-.8427-.864-1.12-.384-.2773-.8853-.416-1.504-.416-.608 0-1.1093.1387-1.504.416-.384.2773-.672.6507-.864 1.12-.1813.4693-.272.992-.272 1.568s.0907 1.0987.272 1.568c.192.4693.48.8427.864 1.12.3947.2773.896.416 1.504.416zm7.5797 1.104-2.624-8.432h1.536l2.016 7.12 2.08-7.12h1.84l2.096 7.12 1.984-7.12h1.552l-2.624 8.432h-1.8561l-2.0799-6.832-2.08 6.832z" fill="#2965ff"/></svg>