<svg fill="none" height="32" viewBox="0 0 88 32" width="88" xmlns="http://www.w3.org/2000/svg"><rect height="31" rx="15.5" stroke="#06038d" width="87" x=".5" y=".5"/><path d="m16.816 21-2.624-8.432h1.536l2.016 7.12 2.08-7.12h1.84l2.096 7.12 1.984-7.12h1.552l-2.624 8.432h-1.856l-2.08-6.832-2.08 6.832zm15.3884.096c-.896 0-1.6374-.1813-2.224-.544-.5867-.3733-1.024-.8853-1.312-1.536s-.432-1.392-.432-2.224c0-.8427.1493-1.584.448-2.224.3093-.6507.7573-1.1627 1.344-1.536.5866-.3733 1.3066-.56 2.16-.56.6613 0 1.2266.128 1.696.384.48.2453.8746.576 1.184.992.3093.416.5333.8747.672 1.376.1386.4907.1973.9867.176 1.488-.0107.096-.0214.192-.032.288 0 .096-.0054.192-.016.288h-6.256c.0426.4907.1653.9333.368 1.328.2026.3947.4906.7093.864.944.3733.224.8373.336 1.392.336.2773 0 .5546-.032.832-.096.288-.0747.544-.1973.768-.368.2346-.1707.4-.4.496-.688h1.392c-.128.544-.368.992-.72 1.344-.352.3413-.7734.5973-1.264.768-.4907.16-1.0027.24-1.536.24zm-2.56-4.992h4.88c-.0107-.48-.1174-.9013-.32-1.264-.2027-.3627-.48-.6453-.832-.848-.3414-.2027-.752-.304-1.232-.304-.5227 0-.9654.112-1.328.336-.352.224-.624.5173-.816.88s-.3094.7627-.352 1.2zm12.0679 4.992c-.384 0-.7414-.0427-1.072-.128-.32-.096-.6134-.2293-.88-.4-.256-.1707-.48-.368-.672-.592l-.064 1.024h-1.296v-11.312h1.36v4.096c.2773-.4267.672-.752 1.184-.976.5226-.224 1.056-.336 1.6-.336.8533 0 1.552.192 2.096.576.544.3733.944.8853 1.2 1.536.2666.64.4 1.3653.4 2.176 0 .8-.1387 1.5307-.416 2.192-.2774.6507-.6987 1.1733-1.264 1.568-.5654.384-1.2907.576-2.176.576zm-.016-1.2c.6186 0 1.1093-.1387 1.472-.416.3626-.288.624-.6667.784-1.136.1706-.4693.256-.9867.256-1.552 0-.576-.0854-1.0987-.256-1.568-.16-.4693-.4267-.8427-.8-1.12-.3734-.2773-.8694-.416-1.488-.416-.5547 0-1.0294.1547-1.424.464-.384.3093-.6774.704-.88 1.184-.2027.48-.304.9707-.304 1.472 0 .544.0853 1.0507.256 1.52.1813.4693.464.848.848 1.136.3946.288.9066.432 1.536.432zm8.7602 1.2c-.384 0-.7733-.0373-1.168-.112-.384-.0747-.7467-.2027-1.088-.384-.3307-.1813-.608-.4267-.832-.736s-.368-.6933-.432-1.152h1.376c.1067.288.2773.5227.512.704.2453.1707.5173.2933.816.368.3093.0747.6027.112.88.112.1707 0 .368-.0107.592-.032s.4373-.0693.64-.144c.2133-.0853.384-.208.512-.368.1387-.16.208-.384.208-.672 0-.2133-.048-.3893-.144-.528s-.2293-.2507-.4-.336c-.1707-.096-.3787-.1653-.624-.208-.5013-.1067-1.04-.208-1.616-.304-.5653-.096-1.0667-.2773-1.504-.544-.1493-.096-.288-.2027-.416-.32-.1173-.128-.2187-.2667-.304-.416-.0853-.16-.1547-.3307-.208-.512-.0427-.192-.064-.4-.064-.624 0-.416.08-.7733.24-1.072.1707-.3093.4053-.56.704-.752.2987-.2027.64-.352 1.024-.448.3947-.096.816-.144 1.264-.144.5547 0 1.0507.0907 1.488.272.448.1707.816.4267 1.104.768.288.3307.4587.7413.512 1.232h-1.264c-.0747-.3093-.2773-.56-.608-.752-.3307-.2027-.752-.304-1.264-.304-.1707 0-.3627.016-.576.048-.2133.0213-.416.0747-.608.16-.192.0747-.352.192-.48.352-.128.1493-.192.352-.192.608 0 .2347.0587.432.176.592.128.16.304.288.528.384s.48.176.768.24c.3733.0747.784.1547 1.232.24.448.0747.8.1547 1.056.24.3413.1067.624.256.848.448.2347.192.4053.4213.512.688.1173.2667.176.576.176.928 0 .5013-.1013.912-.304 1.232-.192.32-.4533.5707-.784.752s-.6987.3093-1.104.384c-.3947.0747-.7893.112-1.184.112zm5.0686-.096v-8.432h1.36v8.432zm.672-9.68c-.2773 0-.5013-.0853-.672-.256-.16-.1707-.24-.3893-.24-.656s.0854-.48.256-.64c.1707-.17067.3894-.256.656-.256.2454 0 .4587.08533.64.256.192.17067.288.384.288.64 0 .2667-.0906.4853-.272.656-.1813.1707-.4.256-.656.256zm5.996 9.776c-.8853 0-1.5093-.24-1.872-.72-.352-.48-.528-1.1627-.528-2.048v-4.56h-1.376v-1.2h1.376v-2.528h1.36v2.528h2.592v1.2h-2.592v4.384c0 .32.0267.6133.08.88.0534.256.1654.464.336.624.1707.1493.4267.2293.768.24.2454 0 .4587-.0427.64-.128.192-.0853.352-.1867.48-.304l.592.992c-.1813.1493-.3733.272-.576.368-.192.096-.3946.1653-.608.208-.2026.0427-.4266.064-.672.064zm6.8238 0c-.896 0-1.6374-.1813-2.224-.544-.5867-.3733-1.024-.8853-1.312-1.536s-.432-1.392-.432-2.224c0-.8427.1493-1.584.448-2.224.3093-.6507.7573-1.1627 1.344-1.536.5866-.3733 1.3066-.56 2.16-.56.6613 0 1.2266.128 1.696.384.48.2453.8746.576 1.184.992.3093.416.5333.8747.672 1.376.1386.4907.1973.9867.176 1.488-.0107.096-.0214.192-.032.288 0 .096-.0054.192-.016.288h-6.256c.0426.4907.1653.9333.368 1.328.2026.3947.4906.7093.864.944.3733.224.8373.336 1.392.336.2773 0 .5546-.032.832-.096.288-.0747.544-.1973.768-.368.2346-.1707.4-.4.496-.688h1.392c-.128.544-.368.992-.72 1.344-.352.3413-.7734.5973-1.264.768-.4907.16-1.0027.24-1.536.24zm-2.56-4.992h4.88c-.0107-.48-.1174-.9013-.32-1.264-.2027-.3627-.48-.6453-.832-.848-.3414-.2027-.752-.304-1.232-.304-.5227 0-.9654.112-1.328.336-.352.224-.624.5173-.816.88s-.3094.7627-.352 1.2z" fill="#06038d"/></svg>