<svg fill="none" height="35" viewBox="0 0 35 35" width="35" xmlns="http://www.w3.org/2000/svg" xmlns:xlink="http://www.w3.org/1999/xlink"><clipPath id="a"><rect height="35" rx="17.5" width="35"/></clipPath><mask id="b" height="35" maskUnits="userSpaceOnUse" width="35" x="0" y="0"><path d="m35 0h-35v35h35z" fill="#fff"/></mask><g clip-path="url(#a)"><rect fill="#fc4c02" height="35" rx="17.5" width="35"/><g fill="#fff" mask="url(#b)"><path d="m17.6618 16.1176-4.3053-6.15764h-2.2969l5.3348 7.62784.6707.9593 4.5666 6.5321h2.297l-5.5961-8.0022z"/><path d="m24.1707 5.06982h-13.341c-3.18216 0-5.75988 2.57772-5.75988 5.75988v13.341c0 3.1821 2.57772 5.7598 5.75988 5.7598h13.341c3.1821 0 5.7598-2.5777 5.7598-5.7598v-13.341c0-3.18216-2.5777-5.75988-5.7598-5.75988zm-3.2446 21.08578-4.6212-6.7231-5.7833 6.7231h-1.49356l6.61786-7.6902-6.61786-9.63234h5.04626l4.3755 6.36824 5.4791-6.36824h1.4936l-6.3098 7.33534 6.8635 9.9872h-5.0462z"/></g></g></svg>