<svg fill="none" height="35" viewBox="0 0 35 35" width="35" xmlns="http://www.w3.org/2000/svg" xmlns:xlink="http://www.w3.org/1999/xlink"><clipPath id="a"><rect height="35" rx="17.5" width="35"/></clipPath><mask id="b" height="35" maskUnits="userSpaceOnUse" width="35" x="0" y="0"><path d="m35 0h-35v35h35z" fill="#fff"/></mask><g clip-path="url(#a)"><rect fill="#2965ff" height="35" rx="17.5" width="35"/><g mask="url(#b)"><path d="m21.6514 5.06982h-8.3025c-4.57435 0-8.28298 3.70864-8.28298 8.28298v8.3025c0 4.5744 3.70863 8.283 8.28298 8.283h8.3025c4.5744 0 8.283-3.7086 8.283-8.283v-8.3025c0-4.57434-3.7086-8.28298-8.283-8.28298zm-7.9164 18.78888h-2.8234v-8.946h2.8234zm-1.4117-10.3577c-.8462 0-1.4117-.5303-1.4117-1.1894 0-.659.5655-1.1621 1.4117-1.1621s1.3805.5031 1.4117 1.1621c0 .6591-.5265 1.1894-1.4117 1.1894zm11.7694 10.3577h-2.8234v-4.707c0-.9398-.4719-1.8835-1.6496-1.903h-.039c-1.1387 0-1.6106.971-1.6106 1.903v4.707h-2.8234v-8.946h2.8234v1.205s.9086-1.205 2.7376-1.205 3.385 1.2869 3.385 3.888z" fill="#fff"/></g></g></svg>