<svg fill="none" height="35" viewBox="0 0 35 35" width="35" xmlns="http://www.w3.org/2000/svg" xmlns:xlink="http://www.w3.org/1999/xlink"><clipPath id="a"><rect height="35" rx="17.5" width="35"/></clipPath><mask id="b" height="35" maskUnits="userSpaceOnUse" width="35" x="0" y="0"><path d="m35 0h-35v35h35z" fill="#fff"/></mask><g clip-path="url(#a)"><rect fill="#7ee100" height="35" rx="17.5" width="35"/><g mask="url(#b)"><path d="m21.6514 5.06982h-8.3025c-4.57435 0-8.28298 3.70864-8.28298 8.28298v8.3025c0 4.5744 3.70863 8.283 8.28298 8.283h3.7984v-9.7883h-2.609v-3.264h2.609v-1.9577c0-2.6089 1.3064-4.5666 3.9153-4.5666 1.8913 0 2.6089.6513 2.6089.6513v2.6089h-1.3064c-1.3961 0-1.9577.3276-1.9577 1.3064v1.9577h3.2641l-.6513 3.264h-2.6089v9.7883h1.2401c4.5744 0 8.283-3.7086 8.283-8.283v-8.3025c0-4.57434-3.7086-8.28298-8.283-8.28298z" fill="#fff"/></g></g></svg>