<svg fill="none" height="35" viewBox="0 0 35 35" width="35" xmlns="http://www.w3.org/2000/svg" xmlns:xlink="http://www.w3.org/1999/xlink"><clipPath id="a"><rect height="35" rx="17.5" width="35"/></clipPath><mask id="b" height="35" maskUnits="userSpaceOnUse" width="35" x="0" y="0"><path d="m35 0h-35v35h35z" fill="#fff"/></mask><g clip-path="url(#a)"><rect fill="#000" height="35" rx="17.5" width="35"/><g mask="url(#b)"><path d="m17.4863 14.9009c-1.4428 0-2.6128 1.1699-2.6128 2.6128s1.17 2.6128 2.6128 2.6128c1.4429 0 2.6129-1.1699 2.6129-2.6128s-1.17-2.6128-2.6129-2.6128z" fill="#fff"/><path d="m17.4865 5.06982c-6.8752 0-12.44402 5.57268-12.44402 12.44398s5.57272 12.444 12.44402 12.444 12.444-5.5727 12.444-12.444-5.5727-12.44398-12.444-12.44398zm7.6902 15.61058c-.0585 1.1816-.3938 2.3515-1.2557 3.2017-.8696.8618-2.0434 1.1816-3.2367 1.2401h-6.3956c-1.1933-.0585-2.3671-.3783-3.2367-1.2401-.8619-.8541-1.19336-2.0201-1.25576-3.2017v-6.3253c.0585-1.1817.39386-2.3516 1.25576-3.2017.8696-.8618 2.0434-1.18163 3.2367-1.24012h6.3956c1.1933.05849 2.3671.37832 3.2367 1.24012.8619.854 1.1933 2.02 1.2557 3.2017z" fill="#fff"/><path d="m20.6022 11.3486c-1.556-.0429-4.6758-.0429-6.2318 0-.8111.0234-1.7275.2223-2.3086.8423-.6005.6396-.8267 1.4156-.8501 2.2814-.039 1.5208 0 6.0874 0 6.0874.0273.8658.2496 1.6418.8501 2.2814.5772.6161 1.4975.8189 2.3086.8423 1.556.0429 4.6758.0429 6.2318 0 .8111-.0234 1.7276-.2223 2.3086-.8423.6006-.6396.8268-1.4156.8502-2.2814v-6.0874c-.0234-.8658-.2496-1.6418-.8502-2.2814-.5771-.6161-1.4975-.8189-2.3086-.8423zm-3.1159 10.2172c-2.2384 0-4.0518-1.8133-4.0518-4.0518 0-2.2384 1.8134-4.0518 4.0518-4.0518 2.2385 0 4.0518 1.8134 4.0518 4.0518 0 2.2385-1.8133 4.0518-4.0518 4.0518zm4.0674-7.2651c-.4484 0-.8111-.3627-.8111-.8112 0-.4484.3627-.8111.8111-.8111.4485 0 .8112.3627.8112.8111 0 .4485-.3627.8112-.8112.8112z" fill="#f9f9fc"/></g></g></svg>