<svg fill="none" height="174" viewBox="0 0 336 174" width="336" xmlns="http://www.w3.org/2000/svg"><path d="m112 174c0-15.383-5.9-30.135-16.402-41.012-10.5021-10.877-24.7459-16.988-39.598-16.988s-29.0959 6.111-39.598 16.988c-10.50201 10.877-16.40199776 25.629-16.402 41.012h56z" fill="#7ee100"/><path d="m112 116c0-15.383-5.9-30.1351-16.402-41.0122-10.5021-10.8771-24.7459-16.9878-39.598-16.9878s-29.0959 6.1107-39.598 16.9878c-10.50201 10.8771-16.40199776 25.6292-16.402 41.0122h56z" fill="#fc4c02"/><path d="m112 58c0-15.3826-5.9-30.1351-16.402-41.0122-10.5021-10.8771-24.7459-16.98779884-39.598-16.9878s-29.0959 6.11069-39.598 16.9878c-10.50201 10.8771-16.40199776 25.6296-16.402 41.0122h56z" fill="#2965ff"/><path d="m224 174c0-15.383-5.9-30.135-16.402-41.012s-24.746-16.988-39.598-16.988-29.096 6.111-39.598 16.988-16.402 25.629-16.402 41.012h56z" fill="#fc4c02"/><path d="m224 116c0-15.383-5.9-30.1351-16.402-41.0122s-24.746-16.9878-39.598-16.9878-29.096 6.1107-39.598 16.9878-16.402 25.6292-16.402 41.0122h56z" fill="#2965ff"/><path d="m224 58c0-15.3826-5.9-30.1351-16.402-41.0122s-24.746-16.98779884-39.598-16.9878-29.096 6.11069-39.598 16.9878c-10.502 10.8771-16.402 25.6296-16.402 41.0122h56z" fill="#fc4c02"/><path d="m336 174c0-15.383-5.9-30.135-16.402-41.012s-24.746-16.988-39.598-16.988-29.096 6.111-39.598 16.988-16.402 25.629-16.402 41.012h56z" fill="#2965ff"/><path d="m336 116c0-15.383-5.9-30.1351-16.402-41.0122s-24.746-16.9878-39.598-16.9878-29.096 6.1107-39.598 16.9878-16.402 25.6292-16.402 41.0122h56z" fill="#fc4c02"/><path d="m336 58c0-15.3826-5.9-30.1351-16.402-41.0122s-24.746-16.98779884-39.598-16.9878-29.096 6.11069-39.598 16.9878c-10.502 10.8771-16.402 25.6296-16.402 41.0122h56z" fill="#7ee100"/></svg>